G04 #@! TF.GenerationSoftware,KiCad,Pcbnew,(5.1.10)-1*
G04 #@! TF.CreationDate,2021-12-13T18:57:16+09:00*
G04 #@! TF.ProjectId,cat_toilet,6361745f-746f-4696-9c65-742e6b696361,rev?*
G04 #@! TF.SameCoordinates,Original*
G04 #@! TF.FileFunction,Legend,Top*
G04 #@! TF.FilePolarity,Positive*
%FSLAX46Y46*%
G04 Gerber Fmt 4.6, Leading zero omitted, Abs format (unit mm)*
G04 Created by KiCad (PCBNEW (5.1.10)-1) date 2021-12-13 18:57:16*
%MOMM*%
%LPD*%
G01*
G04 APERTURE LIST*
%ADD10C,0.050000*%
%ADD11C,0.120000*%
%ADD12C,0.150000*%
G04 APERTURE END LIST*
D10*
X1500000Y-41000000D02*
X250000Y-41000000D01*
X1500000Y-40000000D02*
X1500000Y-41000000D01*
X0Y-39999999D02*
X1500000Y-40000000D01*
X21500000Y-40000000D02*
X23000000Y-40000000D01*
X21500000Y-41000000D02*
X21500000Y-40000000D01*
X22750000Y-41000000D02*
X21500000Y-41000000D01*
X21500000Y-9000000D02*
X22750000Y-9000000D01*
X21500000Y-10000000D02*
X21500000Y-9000000D01*
X23000000Y-10000000D02*
X21500000Y-10000000D01*
X1500000Y-10000000D02*
X0Y-10000000D01*
X1500000Y-9000000D02*
X1500000Y-10000000D01*
X250000Y-9000000D02*
X1500000Y-9000000D01*
D11*
X17262742Y-38977500D02*
X17737258Y-38977500D01*
X17262742Y-40022500D02*
X17737258Y-40022500D01*
X13762742Y-38977500D02*
X14237258Y-38977500D01*
X13762742Y-40022500D02*
X14237258Y-40022500D01*
X8160000Y-38010000D02*
X8160000Y-33290000D01*
X8160000Y-33290000D02*
X40000Y-33290000D01*
X40000Y-33290000D02*
X40000Y-38010000D01*
X40000Y-38010000D02*
X8160000Y-38010000D01*
X6400000Y-38010000D02*
X6400000Y-38210000D01*
X6400000Y-38210000D02*
X6700000Y-38210000D01*
X6700000Y-38210000D02*
X6700000Y-38010000D01*
X6400000Y-38110000D02*
X6700000Y-38110000D01*
X5600000Y-38010000D02*
X5600000Y-37400000D01*
X5600000Y-37400000D02*
X7550000Y-37400000D01*
X7550000Y-37400000D02*
X7550000Y-33900000D01*
X7550000Y-33900000D02*
X650000Y-33900000D01*
X650000Y-33900000D02*
X650000Y-37400000D01*
X650000Y-37400000D02*
X2600000Y-37400000D01*
X2600000Y-37400000D02*
X2600000Y-38010000D01*
X8160000Y-36700000D02*
X7550000Y-36700000D01*
X8160000Y-35400000D02*
X7550000Y-35400000D01*
X40000Y-36700000D02*
X650000Y-36700000D01*
X40000Y-35400000D02*
X650000Y-35400000D01*
X5200000Y-33900000D02*
X5200000Y-34400000D01*
X5200000Y-34400000D02*
X5000000Y-34400000D01*
X5000000Y-34400000D02*
X5000000Y-33900000D01*
X5100000Y-33900000D02*
X5100000Y-34400000D01*
X3200000Y-33900000D02*
X3200000Y-34400000D01*
X3200000Y-34400000D02*
X3000000Y-34400000D01*
X3000000Y-34400000D02*
X3000000Y-33900000D01*
X3100000Y-33900000D02*
X3100000Y-34400000D01*
X7210000Y-38310000D02*
X8460000Y-38310000D01*
X8460000Y-38310000D02*
X8460000Y-37060000D01*
X6700000Y-2235000D02*
X8985000Y-2235000D01*
X8985000Y-2235000D02*
X8985000Y-765000D01*
X8985000Y-765000D02*
X6700000Y-765000D01*
X13100000Y-37110000D02*
X14900000Y-37110000D01*
X14900000Y-33890000D02*
X12450000Y-33890000D01*
X2380000Y-30850000D02*
X2380000Y-31630000D01*
X2380000Y-31630000D02*
X3380000Y-31630000D01*
X20620000Y-30850000D02*
X20620000Y-31630000D01*
X20620000Y-31630000D02*
X19620000Y-31630000D01*
X2380000Y-5885000D02*
X20620000Y-5885000D01*
X20620000Y-5885000D02*
X20620000Y-12305000D01*
X2380000Y-5885000D02*
X2380000Y-12305000D01*
X2380000Y-12305000D02*
X2000000Y-12305000D01*
X20522500Y-35245276D02*
X20522500Y-35754724D01*
X19477500Y-35245276D02*
X19477500Y-35754724D01*
X16300000Y-765000D02*
X14015000Y-765000D01*
X14015000Y-765000D02*
X14015000Y-2235000D01*
X14015000Y-2235000D02*
X16300000Y-2235000D01*
X17510000Y-35359420D02*
X17510000Y-35640580D01*
X16490000Y-35359420D02*
X16490000Y-35640580D01*
X11510000Y-35359420D02*
X11510000Y-35640580D01*
X10490000Y-35359420D02*
X10490000Y-35640580D01*
D12*
X17050000Y-38386666D02*
X16816666Y-38053333D01*
X16650000Y-38386666D02*
X16650000Y-37686666D01*
X16916666Y-37686666D01*
X16983333Y-37720000D01*
X17016666Y-37753333D01*
X17050000Y-37820000D01*
X17050000Y-37920000D01*
X17016666Y-37986666D01*
X16983333Y-38020000D01*
X16916666Y-38053333D01*
X16650000Y-38053333D01*
X17716666Y-38386666D02*
X17316666Y-38386666D01*
X17516666Y-38386666D02*
X17516666Y-37686666D01*
X17450000Y-37786666D01*
X17383333Y-37853333D01*
X17316666Y-37886666D01*
X18383333Y-38386666D02*
X17983333Y-38386666D01*
X18183333Y-38386666D02*
X18183333Y-37686666D01*
X18116666Y-37786666D01*
X18050000Y-37853333D01*
X17983333Y-37886666D01*
X13550000Y-38386666D02*
X13316666Y-38053333D01*
X13150000Y-38386666D02*
X13150000Y-37686666D01*
X13416666Y-37686666D01*
X13483333Y-37720000D01*
X13516666Y-37753333D01*
X13550000Y-37820000D01*
X13550000Y-37920000D01*
X13516666Y-37986666D01*
X13483333Y-38020000D01*
X13416666Y-38053333D01*
X13150000Y-38053333D01*
X14216666Y-38386666D02*
X13816666Y-38386666D01*
X14016666Y-38386666D02*
X14016666Y-37686666D01*
X13950000Y-37786666D01*
X13883333Y-37853333D01*
X13816666Y-37886666D01*
X14650000Y-37686666D02*
X14716666Y-37686666D01*
X14783333Y-37720000D01*
X14816666Y-37753333D01*
X14850000Y-37820000D01*
X14883333Y-37953333D01*
X14883333Y-38120000D01*
X14850000Y-38253333D01*
X14816666Y-38320000D01*
X14783333Y-38353333D01*
X14716666Y-38386666D01*
X14650000Y-38386666D01*
X14583333Y-38353333D01*
X14550000Y-38320000D01*
X14516666Y-38253333D01*
X14483333Y-38120000D01*
X14483333Y-37953333D01*
X14516666Y-37820000D01*
X14550000Y-37753333D01*
X14583333Y-37720000D01*
X14650000Y-37686666D01*
X3766666Y-38552380D02*
X3766666Y-39266666D01*
X3719047Y-39409523D01*
X3623809Y-39504761D01*
X3480952Y-39552380D01*
X3385714Y-39552380D01*
X4147619Y-38552380D02*
X4766666Y-38552380D01*
X4433333Y-38933333D01*
X4576190Y-38933333D01*
X4671428Y-38980952D01*
X4719047Y-39028571D01*
X4766666Y-39123809D01*
X4766666Y-39361904D01*
X4719047Y-39457142D01*
X4671428Y-39504761D01*
X4576190Y-39552380D01*
X4290476Y-39552380D01*
X4195238Y-39504761D01*
X4147619Y-39457142D01*
X6983333Y-3246666D02*
X6983333Y-2546666D01*
X7150000Y-2546666D01*
X7250000Y-2580000D01*
X7316666Y-2646666D01*
X7350000Y-2713333D01*
X7383333Y-2846666D01*
X7383333Y-2946666D01*
X7350000Y-3080000D01*
X7316666Y-3146666D01*
X7250000Y-3213333D01*
X7150000Y-3246666D01*
X6983333Y-3246666D01*
X8050000Y-3246666D02*
X7650000Y-3246666D01*
X7850000Y-3246666D02*
X7850000Y-2546666D01*
X7783333Y-2646666D01*
X7716666Y-2713333D01*
X7650000Y-2746666D01*
X13466666Y-33116666D02*
X13466666Y-33683333D01*
X13500000Y-33750000D01*
X13533333Y-33783333D01*
X13600000Y-33816666D01*
X13733333Y-33816666D01*
X13800000Y-33783333D01*
X13833333Y-33750000D01*
X13866666Y-33683333D01*
X13866666Y-33116666D01*
X14533333Y-33116666D02*
X14200000Y-33116666D01*
X14166666Y-33450000D01*
X14200000Y-33416666D01*
X14266666Y-33383333D01*
X14433333Y-33383333D01*
X14500000Y-33416666D01*
X14533333Y-33450000D01*
X14566666Y-33516666D01*
X14566666Y-33683333D01*
X14533333Y-33750000D01*
X14500000Y-33783333D01*
X14433333Y-33816666D01*
X14266666Y-33816666D01*
X14200000Y-33783333D01*
X14166666Y-33750000D01*
X342380Y-30941904D02*
X1151904Y-30941904D01*
X1247142Y-30894285D01*
X1294761Y-30846666D01*
X1342380Y-30751428D01*
X1342380Y-30560952D01*
X1294761Y-30465714D01*
X1247142Y-30418095D01*
X1151904Y-30370476D01*
X342380Y-30370476D01*
X675714Y-29465714D02*
X1342380Y-29465714D01*
X294761Y-29703809D02*
X1009047Y-29941904D01*
X1009047Y-29322857D01*
X19883333Y-37816666D02*
X19650000Y-37483333D01*
X19483333Y-37816666D02*
X19483333Y-37116666D01*
X19750000Y-37116666D01*
X19816666Y-37150000D01*
X19850000Y-37183333D01*
X19883333Y-37250000D01*
X19883333Y-37350000D01*
X19850000Y-37416666D01*
X19816666Y-37450000D01*
X19750000Y-37483333D01*
X19483333Y-37483333D01*
X20516666Y-37116666D02*
X20183333Y-37116666D01*
X20150000Y-37450000D01*
X20183333Y-37416666D01*
X20250000Y-37383333D01*
X20416666Y-37383333D01*
X20483333Y-37416666D01*
X20516666Y-37450000D01*
X20550000Y-37516666D01*
X20550000Y-37683333D01*
X20516666Y-37750000D01*
X20483333Y-37783333D01*
X20416666Y-37816666D01*
X20250000Y-37816666D01*
X20183333Y-37783333D01*
X20150000Y-37750000D01*
X14983333Y-3316666D02*
X14983333Y-2616666D01*
X15150000Y-2616666D01*
X15250000Y-2650000D01*
X15316666Y-2716666D01*
X15350000Y-2783333D01*
X15383333Y-2916666D01*
X15383333Y-3016666D01*
X15350000Y-3150000D01*
X15316666Y-3216666D01*
X15250000Y-3283333D01*
X15150000Y-3316666D01*
X14983333Y-3316666D01*
X15616666Y-2616666D02*
X16050000Y-2616666D01*
X15816666Y-2883333D01*
X15916666Y-2883333D01*
X15983333Y-2916666D01*
X16016666Y-2950000D01*
X16050000Y-3016666D01*
X16050000Y-3183333D01*
X16016666Y-3250000D01*
X15983333Y-3283333D01*
X15916666Y-3316666D01*
X15716666Y-3316666D01*
X15650000Y-3283333D01*
X15616666Y-3250000D01*
X16883333Y-37750000D02*
X16850000Y-37783333D01*
X16750000Y-37816666D01*
X16683333Y-37816666D01*
X16583333Y-37783333D01*
X16516666Y-37716666D01*
X16483333Y-37650000D01*
X16450000Y-37516666D01*
X16450000Y-37416666D01*
X16483333Y-37283333D01*
X16516666Y-37216666D01*
X16583333Y-37150000D01*
X16683333Y-37116666D01*
X16750000Y-37116666D01*
X16850000Y-37150000D01*
X16883333Y-37183333D01*
X17116666Y-37116666D02*
X17583333Y-37116666D01*
X17283333Y-37816666D01*
X10883333Y-37750000D02*
X10850000Y-37783333D01*
X10750000Y-37816666D01*
X10683333Y-37816666D01*
X10583333Y-37783333D01*
X10516666Y-37716666D01*
X10483333Y-37650000D01*
X10450000Y-37516666D01*
X10450000Y-37416666D01*
X10483333Y-37283333D01*
X10516666Y-37216666D01*
X10583333Y-37150000D01*
X10683333Y-37116666D01*
X10750000Y-37116666D01*
X10850000Y-37150000D01*
X10883333Y-37183333D01*
X11116666Y-37116666D02*
X11550000Y-37116666D01*
X11316666Y-37383333D01*
X11416666Y-37383333D01*
X11483333Y-37416666D01*
X11516666Y-37450000D01*
X11550000Y-37516666D01*
X11550000Y-37683333D01*
X11516666Y-37750000D01*
X11483333Y-37783333D01*
X11416666Y-37816666D01*
X11216666Y-37816666D01*
X11150000Y-37783333D01*
X11116666Y-37750000D01*
M02*
