G04 #@! TF.GenerationSoftware,KiCad,Pcbnew,(5.1.10)-1*
G04 #@! TF.CreationDate,2021-12-13T18:57:16+09:00*
G04 #@! TF.ProjectId,cat_toilet,6361745f-746f-4696-9c65-742e6b696361,rev?*
G04 #@! TF.SameCoordinates,Original*
G04 #@! TF.FileFunction,Copper,L1,Top*
G04 #@! TF.FilePolarity,Positive*
%FSLAX46Y46*%
G04 Gerber Fmt 4.6, Leading zero omitted, Abs format (unit mm)*
G04 Created by KiCad (PCBNEW (5.1.10)-1) date 2021-12-13 18:57:16*
%MOMM*%
%LPD*%
G01*
G04 APERTURE LIST*
G04 #@! TA.AperFunction,ComponentPad*
%ADD10O,1.200000X1.750000*%
G04 #@! TD*
G04 #@! TA.AperFunction,SMDPad,CuDef*
%ADD11R,1.060000X0.650000*%
G04 #@! TD*
G04 #@! TA.AperFunction,SMDPad,CuDef*
%ADD12R,2.000000X0.900000*%
G04 #@! TD*
G04 #@! TA.AperFunction,SMDPad,CuDef*
%ADD13R,0.900000X2.000000*%
G04 #@! TD*
G04 #@! TA.AperFunction,SMDPad,CuDef*
%ADD14R,5.000000X5.000000*%
G04 #@! TD*
G04 #@! TA.AperFunction,ComponentPad*
%ADD15O,2.000000X1.400000*%
G04 #@! TD*
G04 #@! TA.AperFunction,ComponentPad*
%ADD16O,1.400000X2.200000*%
G04 #@! TD*
G04 #@! TA.AperFunction,ViaPad*
%ADD17C,0.400000*%
G04 #@! TD*
G04 #@! TA.AperFunction,Conductor*
%ADD18C,0.250000*%
G04 #@! TD*
G04 #@! TA.AperFunction,Conductor*
%ADD19C,0.400000*%
G04 #@! TD*
G04 #@! TA.AperFunction,Conductor*
%ADD20C,0.100000*%
G04 #@! TD*
G04 APERTURE END LIST*
G04 #@! TA.AperFunction,SMDPad,CuDef*
G36*
G01*
X17925000Y-39775000D02*
X17925000Y-39225000D01*
G75*
G02*
X18125000Y-39025000I200000J0D01*
G01*
X18525000Y-39025000D01*
G75*
G02*
X18725000Y-39225000I0J-200000D01*
G01*
X18725000Y-39775000D01*
G75*
G02*
X18525000Y-39975000I-200000J0D01*
G01*
X18125000Y-39975000D01*
G75*
G02*
X17925000Y-39775000I0J200000D01*
G01*
G37*
G04 #@! TD.AperFunction*
G04 #@! TA.AperFunction,SMDPad,CuDef*
G36*
G01*
X16275000Y-39775000D02*
X16275000Y-39225000D01*
G75*
G02*
X16475000Y-39025000I200000J0D01*
G01*
X16875000Y-39025000D01*
G75*
G02*
X17075000Y-39225000I0J-200000D01*
G01*
X17075000Y-39775000D01*
G75*
G02*
X16875000Y-39975000I-200000J0D01*
G01*
X16475000Y-39975000D01*
G75*
G02*
X16275000Y-39775000I0J200000D01*
G01*
G37*
G04 #@! TD.AperFunction*
G04 #@! TA.AperFunction,SMDPad,CuDef*
G36*
G01*
X14425000Y-39775000D02*
X14425000Y-39225000D01*
G75*
G02*
X14625000Y-39025000I200000J0D01*
G01*
X15025000Y-39025000D01*
G75*
G02*
X15225000Y-39225000I0J-200000D01*
G01*
X15225000Y-39775000D01*
G75*
G02*
X15025000Y-39975000I-200000J0D01*
G01*
X14625000Y-39975000D01*
G75*
G02*
X14425000Y-39775000I0J200000D01*
G01*
G37*
G04 #@! TD.AperFunction*
G04 #@! TA.AperFunction,SMDPad,CuDef*
G36*
G01*
X12775000Y-39775000D02*
X12775000Y-39225000D01*
G75*
G02*
X12975000Y-39025000I200000J0D01*
G01*
X13375000Y-39025000D01*
G75*
G02*
X13575000Y-39225000I0J-200000D01*
G01*
X13575000Y-39775000D01*
G75*
G02*
X13375000Y-39975000I-200000J0D01*
G01*
X12975000Y-39975000D01*
G75*
G02*
X12775000Y-39775000I0J200000D01*
G01*
G37*
G04 #@! TD.AperFunction*
D10*
X2100000Y-36200000D03*
X4100000Y-36200000D03*
G04 #@! TA.AperFunction,ComponentPad*
G36*
G01*
X6700000Y-35574999D02*
X6700000Y-36825001D01*
G75*
G02*
X6450001Y-37075000I-249999J0D01*
G01*
X5749999Y-37075000D01*
G75*
G02*
X5500000Y-36825001I0J249999D01*
G01*
X5500000Y-35574999D01*
G75*
G02*
X5749999Y-35325000I249999J0D01*
G01*
X6450001Y-35325000D01*
G75*
G02*
X6700000Y-35574999I0J-249999D01*
G01*
G37*
G04 #@! TD.AperFunction*
G04 #@! TA.AperFunction,SMDPad,CuDef*
G36*
G01*
X7150000Y-1243750D02*
X7150000Y-1756250D01*
G75*
G02*
X6931250Y-1975000I-218750J0D01*
G01*
X6493750Y-1975000D01*
G75*
G02*
X6275000Y-1756250I0J218750D01*
G01*
X6275000Y-1243750D01*
G75*
G02*
X6493750Y-1025000I218750J0D01*
G01*
X6931250Y-1025000D01*
G75*
G02*
X7150000Y-1243750I0J-218750D01*
G01*
G37*
G04 #@! TD.AperFunction*
G04 #@! TA.AperFunction,SMDPad,CuDef*
G36*
G01*
X8725000Y-1243750D02*
X8725000Y-1756250D01*
G75*
G02*
X8506250Y-1975000I-218750J0D01*
G01*
X8068750Y-1975000D01*
G75*
G02*
X7850000Y-1756250I0J218750D01*
G01*
X7850000Y-1243750D01*
G75*
G02*
X8068750Y-1025000I218750J0D01*
G01*
X8506250Y-1025000D01*
G75*
G02*
X8725000Y-1243750I0J-218750D01*
G01*
G37*
G04 #@! TD.AperFunction*
D11*
X15100000Y-34550000D03*
X15100000Y-36450000D03*
X12900000Y-36450000D03*
X12900000Y-35500000D03*
X12900000Y-34550000D03*
D12*
X20000000Y-13495000D03*
X20000000Y-14765000D03*
X20000000Y-16035000D03*
X20000000Y-17305000D03*
X20000000Y-18575000D03*
X20000000Y-19845000D03*
X20000000Y-21115000D03*
X20000000Y-22385000D03*
X20000000Y-23655000D03*
X20000000Y-24925000D03*
X20000000Y-26195000D03*
X20000000Y-27465000D03*
X20000000Y-28735000D03*
X20000000Y-30005000D03*
D13*
X17215000Y-31005000D03*
X15945000Y-31005000D03*
X14675000Y-31005000D03*
X13405000Y-31005000D03*
X12135000Y-31005000D03*
X10865000Y-31005000D03*
X9595000Y-31005000D03*
X8325000Y-31005000D03*
X7055000Y-31005000D03*
X5785000Y-31005000D03*
D12*
X3000000Y-30005000D03*
X3000000Y-28735000D03*
X3000000Y-27465000D03*
X3000000Y-26195000D03*
X3000000Y-24925000D03*
X3000000Y-23655000D03*
X3000000Y-22385000D03*
X3000000Y-21115000D03*
X3000000Y-19845000D03*
X3000000Y-18575000D03*
X3000000Y-17305000D03*
X3000000Y-16035000D03*
X3000000Y-14765000D03*
X3000000Y-13495000D03*
D14*
X10500000Y-20995000D03*
D15*
X4700000Y-42500000D03*
X8300000Y-42500000D03*
D16*
X2175000Y-42100000D03*
X10825000Y-42100000D03*
G04 #@! TA.AperFunction,SMDPad,CuDef*
G36*
G01*
X19762500Y-35925000D02*
X20237500Y-35925000D01*
G75*
G02*
X20475000Y-36162500I0J-237500D01*
G01*
X20475000Y-36662500D01*
G75*
G02*
X20237500Y-36900000I-237500J0D01*
G01*
X19762500Y-36900000D01*
G75*
G02*
X19525000Y-36662500I0J237500D01*
G01*
X19525000Y-36162500D01*
G75*
G02*
X19762500Y-35925000I237500J0D01*
G01*
G37*
G04 #@! TD.AperFunction*
G04 #@! TA.AperFunction,SMDPad,CuDef*
G36*
G01*
X19762500Y-34100000D02*
X20237500Y-34100000D01*
G75*
G02*
X20475000Y-34337500I0J-237500D01*
G01*
X20475000Y-34837500D01*
G75*
G02*
X20237500Y-35075000I-237500J0D01*
G01*
X19762500Y-35075000D01*
G75*
G02*
X19525000Y-34837500I0J237500D01*
G01*
X19525000Y-34337500D01*
G75*
G02*
X19762500Y-34100000I237500J0D01*
G01*
G37*
G04 #@! TD.AperFunction*
G04 #@! TA.AperFunction,SMDPad,CuDef*
G36*
G01*
X15850000Y-1756250D02*
X15850000Y-1243750D01*
G75*
G02*
X16068750Y-1025000I218750J0D01*
G01*
X16506250Y-1025000D01*
G75*
G02*
X16725000Y-1243750I0J-218750D01*
G01*
X16725000Y-1756250D01*
G75*
G02*
X16506250Y-1975000I-218750J0D01*
G01*
X16068750Y-1975000D01*
G75*
G02*
X15850000Y-1756250I0J218750D01*
G01*
G37*
G04 #@! TD.AperFunction*
G04 #@! TA.AperFunction,SMDPad,CuDef*
G36*
G01*
X14275000Y-1756250D02*
X14275000Y-1243750D01*
G75*
G02*
X14493750Y-1025000I218750J0D01*
G01*
X14931250Y-1025000D01*
G75*
G02*
X15150000Y-1243750I0J-218750D01*
G01*
X15150000Y-1756250D01*
G75*
G02*
X14931250Y-1975000I-218750J0D01*
G01*
X14493750Y-1975000D01*
G75*
G02*
X14275000Y-1756250I0J218750D01*
G01*
G37*
G04 #@! TD.AperFunction*
G04 #@! TA.AperFunction,SMDPad,CuDef*
G36*
G01*
X16750000Y-35825000D02*
X17250000Y-35825000D01*
G75*
G02*
X17475000Y-36050000I0J-225000D01*
G01*
X17475000Y-36500000D01*
G75*
G02*
X17250000Y-36725000I-225000J0D01*
G01*
X16750000Y-36725000D01*
G75*
G02*
X16525000Y-36500000I0J225000D01*
G01*
X16525000Y-36050000D01*
G75*
G02*
X16750000Y-35825000I225000J0D01*
G01*
G37*
G04 #@! TD.AperFunction*
G04 #@! TA.AperFunction,SMDPad,CuDef*
G36*
G01*
X16750000Y-34275000D02*
X17250000Y-34275000D01*
G75*
G02*
X17475000Y-34500000I0J-225000D01*
G01*
X17475000Y-34950000D01*
G75*
G02*
X17250000Y-35175000I-225000J0D01*
G01*
X16750000Y-35175000D01*
G75*
G02*
X16525000Y-34950000I0J225000D01*
G01*
X16525000Y-34500000D01*
G75*
G02*
X16750000Y-34275000I225000J0D01*
G01*
G37*
G04 #@! TD.AperFunction*
G04 #@! TA.AperFunction,SMDPad,CuDef*
G36*
G01*
X10750000Y-35825000D02*
X11250000Y-35825000D01*
G75*
G02*
X11475000Y-36050000I0J-225000D01*
G01*
X11475000Y-36500000D01*
G75*
G02*
X11250000Y-36725000I-225000J0D01*
G01*
X10750000Y-36725000D01*
G75*
G02*
X10525000Y-36500000I0J225000D01*
G01*
X10525000Y-36050000D01*
G75*
G02*
X10750000Y-35825000I225000J0D01*
G01*
G37*
G04 #@! TD.AperFunction*
G04 #@! TA.AperFunction,SMDPad,CuDef*
G36*
G01*
X10750000Y-34275000D02*
X11250000Y-34275000D01*
G75*
G02*
X11475000Y-34500000I0J-225000D01*
G01*
X11475000Y-34950000D01*
G75*
G02*
X11250000Y-35175000I-225000J0D01*
G01*
X10750000Y-35175000D01*
G75*
G02*
X10525000Y-34950000I0J225000D01*
G01*
X10525000Y-34500000D01*
G75*
G02*
X10750000Y-34275000I225000J0D01*
G01*
G37*
G04 #@! TD.AperFunction*
D17*
X13800000Y-21000000D03*
X8600000Y-15200000D03*
X8600000Y-16700000D03*
X10800000Y-25600000D03*
X15200000Y-24400000D03*
X800000Y-21300000D03*
X5800000Y-25300000D03*
X16000000Y-17500000D03*
X17000000Y-38000000D03*
X18000000Y-33400000D03*
X5000000Y-19300000D03*
X5100000Y-23700000D03*
X6000000Y-15300000D03*
X6000000Y-16560000D03*
X15800000Y-40700000D03*
X13700000Y-25800000D03*
X13700000Y-27500000D03*
X14100000Y-34600000D03*
X7025000Y-24500000D03*
X8300000Y-2200000D03*
X14700000Y-2200000D03*
X1500000Y-26200000D03*
X17200000Y-18500000D03*
X17200000Y-17400000D03*
X6525000Y-20000000D03*
X1600000Y-16000000D03*
X17700000Y-23400000D03*
X21400000Y-30500000D03*
X800000Y-22400000D03*
X11900000Y-39500000D03*
X9000000Y-35500000D03*
X9000000Y-27500000D03*
X5975000Y-26500000D03*
X11508732Y-37491268D03*
X9600003Y-27500000D03*
X5000000Y-21500000D03*
X5900000Y-28500000D03*
X16000000Y-21900000D03*
X18000000Y-35500000D03*
X6700000Y-2200000D03*
X16300000Y-2200000D03*
D18*
X13795000Y-20995000D02*
X13800000Y-21000000D01*
X10500000Y-20995000D02*
X13795000Y-20995000D01*
X6895000Y-13495000D02*
X8600000Y-15200000D01*
X3000000Y-13495000D02*
X6895000Y-13495000D01*
X8600000Y-16700000D02*
X9800000Y-16700000D01*
X10500000Y-17400000D02*
X10500000Y-20995000D01*
X9800000Y-16700000D02*
X10500000Y-17400000D01*
X11775000Y-35500000D02*
X11000000Y-36275000D01*
X12900000Y-35500000D02*
X11775000Y-35500000D01*
X17000000Y-38000000D02*
X17000000Y-36275000D01*
X13009998Y-38000000D02*
X17000000Y-38000000D01*
X11284998Y-36275000D02*
X13009998Y-38000000D01*
X11000000Y-36275000D02*
X11284998Y-36275000D01*
D19*
X11175000Y-34550000D02*
X11000000Y-34725000D01*
X12900000Y-34550000D02*
X11175000Y-34550000D01*
X2500000Y-36000000D02*
X2500000Y-35500000D01*
X2500000Y-35500000D02*
X3500000Y-34500000D01*
X10775000Y-34500000D02*
X11000000Y-34725000D01*
X3500000Y-34500000D02*
X10775000Y-34500000D01*
X12900000Y-34550000D02*
X12950000Y-34550000D01*
X12950000Y-34550000D02*
X14100000Y-33400000D01*
X14100000Y-33400000D02*
X18000000Y-33400000D01*
X2100000Y-35900000D02*
X3500000Y-34500000D01*
X2100000Y-36200000D02*
X2100000Y-35900000D01*
D18*
X5000000Y-17600000D02*
X5000000Y-19300000D01*
X5465000Y-14765000D02*
X6000000Y-15300000D01*
X3000000Y-14765000D02*
X5465000Y-14765000D01*
X6000000Y-16600000D02*
X5000000Y-17600000D01*
X6000000Y-16560000D02*
X6000000Y-16600000D01*
X16825000Y-34550000D02*
X17000000Y-34725000D01*
X15100000Y-34550000D02*
X16825000Y-34550000D01*
X17000000Y-34725000D02*
X18525000Y-34725000D01*
X20000000Y-36200000D02*
X20000000Y-36412500D01*
X18525000Y-34725000D02*
X20000000Y-36200000D01*
X13700000Y-25800000D02*
X13700000Y-27500000D01*
X15050000Y-34600000D02*
X15100000Y-34550000D01*
X14100000Y-34600000D02*
X15050000Y-34600000D01*
X14825000Y-39725000D02*
X15800000Y-40700000D01*
X14825000Y-39500000D02*
X14825000Y-39725000D01*
X20000000Y-37825000D02*
X18325000Y-39500000D01*
X20000000Y-36412500D02*
X20000000Y-37825000D01*
X17125000Y-40700000D02*
X15800000Y-40700000D01*
X18325000Y-39500000D02*
X17125000Y-40700000D01*
X5100000Y-23700000D02*
X5900000Y-24500000D01*
X5900000Y-24500000D02*
X7025000Y-24500000D01*
X8287500Y-2187500D02*
X8300000Y-2200000D01*
X8287500Y-1500000D02*
X8287500Y-2187500D01*
X14712500Y-2187500D02*
X14700000Y-2200000D01*
X14712500Y-1500000D02*
X14712500Y-2187500D01*
X2995000Y-26200000D02*
X3000000Y-26195000D01*
X1500000Y-26200000D02*
X2995000Y-26200000D01*
X19925000Y-18500000D02*
X20000000Y-18575000D01*
X17200000Y-18500000D02*
X19925000Y-18500000D01*
X19905000Y-17400000D02*
X20000000Y-17305000D01*
X17200000Y-17400000D02*
X19905000Y-17400000D01*
X3155000Y-20000000D02*
X3000000Y-19845000D01*
X6525000Y-20000000D02*
X3155000Y-20000000D01*
X1635000Y-16035000D02*
X1600000Y-16000000D01*
X3000000Y-16035000D02*
X1635000Y-16035000D01*
X17700000Y-22609998D02*
X17700000Y-23400000D01*
X11125002Y-16035000D02*
X17700000Y-22609998D01*
X3000000Y-16035000D02*
X11125002Y-16035000D01*
X21400000Y-30500000D02*
X21100000Y-30200000D01*
X20195000Y-30200000D02*
X20000000Y-30005000D01*
X21100000Y-30200000D02*
X20195000Y-30200000D01*
X21400000Y-33187500D02*
X20000000Y-34587500D01*
X21400000Y-30500000D02*
X21400000Y-33187500D01*
X2985000Y-22400000D02*
X3000000Y-22385000D01*
X800000Y-22400000D02*
X2985000Y-22400000D01*
X3000000Y-27465000D02*
X1735000Y-27465000D01*
X1735000Y-27465000D02*
X800000Y-28400000D01*
X800000Y-28400000D02*
X800000Y-36700000D01*
X800000Y-36700000D02*
X2000000Y-37900000D01*
X10300000Y-37900000D02*
X11900000Y-39500000D01*
X2000000Y-37900000D02*
X10300000Y-37900000D01*
X9000000Y-35725000D02*
X9000000Y-35500000D01*
X12775000Y-39500000D02*
X9000000Y-35725000D01*
X13175000Y-39500000D02*
X12775000Y-39500000D01*
X6975000Y-27500000D02*
X5975000Y-26500000D01*
X9000000Y-27500000D02*
X6975000Y-27500000D01*
X16675000Y-39500000D02*
X15675000Y-38500000D01*
X15675000Y-38500000D02*
X12500000Y-38500000D01*
X11508732Y-37508732D02*
X11508732Y-37491268D01*
X12500000Y-38500000D02*
X11508732Y-37508732D01*
X9600003Y-26100003D02*
X9600003Y-27500000D01*
X5000000Y-21500000D02*
X9600003Y-26100003D01*
X13800000Y-24100000D02*
X16000000Y-21900000D01*
X5900000Y-28500000D02*
X8000000Y-28500000D01*
X8025001Y-28474999D02*
X10474999Y-28474999D01*
X8000000Y-28500000D02*
X8025001Y-28474999D01*
X10474999Y-28474999D02*
X12500000Y-26449998D01*
X12500000Y-25400000D02*
X13800000Y-24100000D01*
X12500000Y-26449998D02*
X12500000Y-25400000D01*
X12900000Y-36450000D02*
X13650000Y-36450000D01*
X14600000Y-35500000D02*
X18000000Y-35500000D01*
X13650000Y-36450000D02*
X14600000Y-35500000D01*
X6712500Y-2187500D02*
X6700000Y-2200000D01*
X6712500Y-1500000D02*
X6712500Y-2187500D01*
X16300000Y-1512500D02*
X16287500Y-1500000D01*
X16300000Y-2200000D02*
X16300000Y-1512500D01*
X22596001Y-39982524D02*
X22488267Y-41225217D01*
X22231383Y-42438462D01*
X21828561Y-43611344D01*
X21285800Y-44726398D01*
X20611198Y-45766989D01*
X19814801Y-46717618D01*
X18908495Y-47564098D01*
X17905774Y-48293825D01*
X16821606Y-48895907D01*
X15662617Y-49365231D01*
X15482793Y-49423490D01*
X15251743Y-49479270D01*
X15038399Y-49488108D01*
X14827407Y-49455341D01*
X14626799Y-49382216D01*
X14444207Y-49271514D01*
X14286604Y-49127463D01*
X14159972Y-48955532D01*
X14069153Y-48762290D01*
X14016383Y-48550207D01*
X14004000Y-48381018D01*
X14004000Y-47980160D01*
X14003861Y-47978750D01*
X14003785Y-47967854D01*
X14001867Y-47949606D01*
X14001867Y-47931256D01*
X14001277Y-47925646D01*
X13955592Y-47518352D01*
X13947984Y-47482557D01*
X13940867Y-47446616D01*
X13939199Y-47441227D01*
X13815273Y-47050564D01*
X13800855Y-47016924D01*
X13786896Y-46983056D01*
X13784212Y-46978094D01*
X13784212Y-46978093D01*
X13784209Y-46978089D01*
X13586766Y-46618941D01*
X13566091Y-46588746D01*
X13545816Y-46558229D01*
X13542224Y-46553888D01*
X13542220Y-46553882D01*
X13542215Y-46553877D01*
X13278775Y-46239921D01*
X13252625Y-46214312D01*
X13226813Y-46188320D01*
X13222447Y-46184760D01*
X13222441Y-46184754D01*
X13222434Y-46184750D01*
X12903031Y-45927942D01*
X12872376Y-45907882D01*
X12842035Y-45887417D01*
X12837062Y-45884773D01*
X12837054Y-45884768D01*
X12837046Y-45884765D01*
X12473846Y-45694888D01*
X12439936Y-45681187D01*
X12406140Y-45666981D01*
X12400740Y-45665351D01*
X12007567Y-45549634D01*
X11971600Y-45542773D01*
X11935731Y-45535410D01*
X11930126Y-45534861D01*
X11930116Y-45534859D01*
X11930107Y-45534859D01*
X11521955Y-45497714D01*
X11485377Y-45497969D01*
X11448723Y-45497713D01*
X11443109Y-45498264D01*
X11035506Y-45541105D01*
X10999661Y-45548463D01*
X10963671Y-45555329D01*
X10958270Y-45556959D01*
X10566751Y-45678154D01*
X10533028Y-45692330D01*
X10499045Y-45706060D01*
X10494064Y-45708709D01*
X10133542Y-45903643D01*
X10103200Y-45924109D01*
X10072548Y-45944167D01*
X10068176Y-45947733D01*
X9752382Y-46208980D01*
X9726588Y-46234954D01*
X9700418Y-46260582D01*
X9696828Y-46264923D01*
X9696823Y-46264928D01*
X9696819Y-46264933D01*
X9437787Y-46582538D01*
X9417524Y-46613037D01*
X9396837Y-46643249D01*
X9394154Y-46648211D01*
X9201742Y-47010085D01*
X9187805Y-47043900D01*
X9173363Y-47077595D01*
X9171696Y-47082984D01*
X9053237Y-47475339D01*
X9046131Y-47511229D01*
X9038511Y-47547074D01*
X9037922Y-47552685D01*
X8997928Y-47960577D01*
X8997928Y-47960585D01*
X8996000Y-47980161D01*
X8996000Y-48375297D01*
X8973156Y-48608273D01*
X8911445Y-48812670D01*
X8811208Y-49001188D01*
X8676267Y-49166643D01*
X8511754Y-49302740D01*
X8323941Y-49404290D01*
X8119980Y-49467427D01*
X7907635Y-49489746D01*
X7689850Y-49469926D01*
X7533852Y-49428294D01*
X6371273Y-48985623D01*
X5274727Y-48406375D01*
X4256957Y-47697816D01*
X3333116Y-46870496D01*
X2516991Y-45936760D01*
X1820744Y-44910526D01*
X1254746Y-43807076D01*
X827449Y-42642886D01*
X594694Y-41647000D01*
X1096000Y-41647000D01*
X1096000Y-42552999D01*
X1111613Y-42711520D01*
X1173311Y-42914912D01*
X1273504Y-43102360D01*
X1408341Y-43266659D01*
X1572640Y-43401496D01*
X1760087Y-43501689D01*
X1963479Y-43563387D01*
X2175000Y-43584220D01*
X2386520Y-43563387D01*
X2589912Y-43501689D01*
X2777360Y-43401496D01*
X2941659Y-43266659D01*
X3076496Y-43102360D01*
X3176689Y-42914913D01*
X3238387Y-42711521D01*
X3254000Y-42553000D01*
X3254000Y-42500000D01*
X3315780Y-42500000D01*
X3336613Y-42711521D01*
X3398311Y-42914913D01*
X3498504Y-43102360D01*
X3633341Y-43266659D01*
X3797640Y-43401496D01*
X3985087Y-43501689D01*
X4188479Y-43563387D01*
X4347000Y-43579000D01*
X5053000Y-43579000D01*
X5211521Y-43563387D01*
X5414913Y-43501689D01*
X5602360Y-43401496D01*
X5766659Y-43266659D01*
X5901496Y-43102360D01*
X6001689Y-42914913D01*
X6063387Y-42711521D01*
X6063487Y-42710502D01*
X6683726Y-42710502D01*
X6692222Y-42758093D01*
X6767702Y-43008269D01*
X6890539Y-43238912D01*
X7056012Y-43441159D01*
X7257762Y-43607238D01*
X7488035Y-43730766D01*
X7737983Y-43806997D01*
X7998000Y-43833000D01*
X8298000Y-43833000D01*
X8298000Y-42502000D01*
X6825252Y-42502000D01*
X6683726Y-42710502D01*
X6063487Y-42710502D01*
X6084220Y-42500000D01*
X6063488Y-42289498D01*
X6683726Y-42289498D01*
X6825252Y-42498000D01*
X8298000Y-42498000D01*
X8298000Y-41167000D01*
X8302000Y-41167000D01*
X8302000Y-42498000D01*
X8322000Y-42498000D01*
X8322000Y-42502000D01*
X8302000Y-42502000D01*
X8302000Y-43833000D01*
X8602000Y-43833000D01*
X8862017Y-43806997D01*
X9111965Y-43730766D01*
X9342238Y-43607238D01*
X9543988Y-43441159D01*
X9709461Y-43238912D01*
X9832298Y-43008269D01*
X9847060Y-42959342D01*
X9923504Y-43102360D01*
X10058341Y-43266659D01*
X10222640Y-43401496D01*
X10410087Y-43501689D01*
X10613479Y-43563387D01*
X10825000Y-43584220D01*
X11036520Y-43563387D01*
X11239912Y-43501689D01*
X11427360Y-43401496D01*
X11591659Y-43266659D01*
X11726496Y-43102360D01*
X11826689Y-42914913D01*
X11888387Y-42711521D01*
X11904000Y-42553000D01*
X11904000Y-41647001D01*
X11888387Y-41488480D01*
X11826689Y-41285087D01*
X11726496Y-41097640D01*
X11591659Y-40933341D01*
X11427360Y-40798504D01*
X11239913Y-40698311D01*
X11036521Y-40636613D01*
X10825000Y-40615780D01*
X10613480Y-40636613D01*
X10410088Y-40698311D01*
X10222641Y-40798504D01*
X10058342Y-40933341D01*
X9923505Y-41097640D01*
X9823312Y-41285087D01*
X9761613Y-41488479D01*
X9746000Y-41647000D01*
X9746000Y-41829695D01*
X9709461Y-41761088D01*
X9543988Y-41558841D01*
X9342238Y-41392762D01*
X9111965Y-41269234D01*
X8862017Y-41193003D01*
X8602000Y-41167000D01*
X8302000Y-41167000D01*
X8298000Y-41167000D01*
X7998000Y-41167000D01*
X7737983Y-41193003D01*
X7488035Y-41269234D01*
X7257762Y-41392762D01*
X7056012Y-41558841D01*
X6890539Y-41761088D01*
X6767702Y-41991731D01*
X6692222Y-42241907D01*
X6683726Y-42289498D01*
X6063488Y-42289498D01*
X6063387Y-42288479D01*
X6001689Y-42085087D01*
X5901496Y-41897640D01*
X5766659Y-41733341D01*
X5602360Y-41598504D01*
X5414913Y-41498311D01*
X5211521Y-41436613D01*
X5053000Y-41421000D01*
X4347000Y-41421000D01*
X4188479Y-41436613D01*
X3985087Y-41498311D01*
X3797640Y-41598504D01*
X3633341Y-41733341D01*
X3498504Y-41897640D01*
X3398311Y-42085087D01*
X3336613Y-42288479D01*
X3315780Y-42500000D01*
X3254000Y-42500000D01*
X3254000Y-41647001D01*
X3238387Y-41488480D01*
X3176689Y-41285087D01*
X3076496Y-41097640D01*
X2941659Y-40933341D01*
X2777360Y-40798504D01*
X2589913Y-40698311D01*
X2386521Y-40636613D01*
X2175000Y-40615780D01*
X1963480Y-40636613D01*
X1760088Y-40698311D01*
X1572641Y-40798504D01*
X1408342Y-40933341D01*
X1273505Y-41097640D01*
X1173312Y-41285087D01*
X1111613Y-41488479D01*
X1096000Y-41647000D01*
X594694Y-41647000D01*
X545214Y-41435294D01*
X411154Y-40192120D01*
X404000Y-39992759D01*
X404000Y-37011931D01*
X441895Y-37058106D01*
X461123Y-37073886D01*
X1626114Y-38238878D01*
X1641894Y-38258106D01*
X1718638Y-38321088D01*
X1806195Y-38367888D01*
X1901199Y-38396707D01*
X1975246Y-38404000D01*
X1975248Y-38404000D01*
X1999999Y-38406438D01*
X2024750Y-38404000D01*
X10091237Y-38404000D01*
X11340053Y-39652816D01*
X11343250Y-39668888D01*
X11386896Y-39774260D01*
X11450261Y-39869091D01*
X11530909Y-39949739D01*
X11625740Y-40013104D01*
X11731112Y-40056750D01*
X11842973Y-40079000D01*
X11957027Y-40079000D01*
X12068888Y-40056750D01*
X12174260Y-40013104D01*
X12269091Y-39949739D01*
X12349739Y-39869091D01*
X12382419Y-39820183D01*
X12400387Y-39838151D01*
X12405328Y-39888315D01*
X12438380Y-39997275D01*
X12492055Y-40097694D01*
X12564289Y-40185711D01*
X12652306Y-40257945D01*
X12752725Y-40311620D01*
X12861685Y-40344672D01*
X12975000Y-40355833D01*
X13375000Y-40355833D01*
X13488315Y-40344672D01*
X13597275Y-40311620D01*
X13697694Y-40257945D01*
X13785711Y-40185711D01*
X13857945Y-40097694D01*
X13911620Y-39997275D01*
X13944672Y-39888315D01*
X13955833Y-39775000D01*
X13955833Y-39225000D01*
X13944672Y-39111685D01*
X13912007Y-39004000D01*
X14087993Y-39004000D01*
X14055328Y-39111685D01*
X14044167Y-39225000D01*
X14044167Y-39775000D01*
X14055328Y-39888315D01*
X14088380Y-39997275D01*
X14142055Y-40097694D01*
X14214289Y-40185711D01*
X14302306Y-40257945D01*
X14402725Y-40311620D01*
X14511685Y-40344672D01*
X14625000Y-40355833D01*
X14743070Y-40355833D01*
X15240053Y-40852817D01*
X15243250Y-40868888D01*
X15286896Y-40974260D01*
X15350261Y-41069091D01*
X15430909Y-41149739D01*
X15525740Y-41213104D01*
X15631112Y-41256750D01*
X15742973Y-41279000D01*
X15857027Y-41279000D01*
X15968888Y-41256750D01*
X16074260Y-41213104D01*
X16087885Y-41204000D01*
X17100246Y-41204000D01*
X17125000Y-41206438D01*
X17223801Y-41196707D01*
X17318805Y-41167888D01*
X17406362Y-41121088D01*
X17483106Y-41058106D01*
X17498890Y-41038873D01*
X18181931Y-40355833D01*
X18525000Y-40355833D01*
X18638315Y-40344672D01*
X18747275Y-40311620D01*
X18847694Y-40257945D01*
X18935711Y-40185711D01*
X19007945Y-40097694D01*
X19061620Y-39997275D01*
X19094672Y-39888315D01*
X19105833Y-39775000D01*
X19105833Y-39431930D01*
X20338873Y-38198890D01*
X20358106Y-38183106D01*
X20421088Y-38106362D01*
X20467888Y-38018805D01*
X20496707Y-37923801D01*
X20504000Y-37849754D01*
X20506438Y-37825000D01*
X20504000Y-37800246D01*
X20504000Y-37217797D01*
X20581027Y-37176625D01*
X20674727Y-37099727D01*
X20751625Y-37006027D01*
X20808765Y-36899126D01*
X20843952Y-36783131D01*
X20855833Y-36662500D01*
X20855833Y-36162500D01*
X20843952Y-36041869D01*
X20808765Y-35925874D01*
X20751625Y-35818973D01*
X20674727Y-35725273D01*
X20581027Y-35648375D01*
X20474126Y-35591235D01*
X20358131Y-35556048D01*
X20237500Y-35544167D01*
X20056931Y-35544167D01*
X19968597Y-35455833D01*
X20237500Y-35455833D01*
X20358131Y-35443952D01*
X20474126Y-35408765D01*
X20581027Y-35351625D01*
X20674727Y-35274727D01*
X20751625Y-35181027D01*
X20808765Y-35074126D01*
X20843952Y-34958131D01*
X20855833Y-34837500D01*
X20855833Y-34444430D01*
X21738878Y-33561386D01*
X21758106Y-33545606D01*
X21821088Y-33468862D01*
X21867888Y-33381305D01*
X21896707Y-33286301D01*
X21904000Y-33212254D01*
X21906438Y-33187500D01*
X21904000Y-33162746D01*
X21904000Y-30787885D01*
X21913104Y-30774260D01*
X21956750Y-30668888D01*
X21979000Y-30557027D01*
X21979000Y-30442973D01*
X21956750Y-30331112D01*
X21913104Y-30225740D01*
X21849739Y-30130909D01*
X21769091Y-30050261D01*
X21674260Y-29986896D01*
X21568888Y-29943250D01*
X21552816Y-29940053D01*
X21473890Y-29861127D01*
X21458106Y-29841894D01*
X21381362Y-29778912D01*
X21380833Y-29778629D01*
X21380833Y-29555000D01*
X21373515Y-29480703D01*
X21351844Y-29409262D01*
X21330858Y-29370000D01*
X21351844Y-29330738D01*
X21373515Y-29259297D01*
X21380833Y-29185000D01*
X21380833Y-28285000D01*
X21373515Y-28210703D01*
X21351844Y-28139262D01*
X21330858Y-28100000D01*
X21351844Y-28060738D01*
X21373515Y-27989297D01*
X21380833Y-27915000D01*
X21380833Y-27015000D01*
X21373515Y-26940703D01*
X21351844Y-26869262D01*
X21330858Y-26830000D01*
X21351844Y-26790738D01*
X21373515Y-26719297D01*
X21380833Y-26645000D01*
X21380833Y-25745000D01*
X21373515Y-25670703D01*
X21351844Y-25599262D01*
X21330858Y-25560000D01*
X21351844Y-25520738D01*
X21373515Y-25449297D01*
X21380833Y-25375000D01*
X21380833Y-24475000D01*
X21373515Y-24400703D01*
X21351844Y-24329262D01*
X21330858Y-24290000D01*
X21351844Y-24250738D01*
X21373515Y-24179297D01*
X21380833Y-24105000D01*
X21380833Y-23205000D01*
X21373515Y-23130703D01*
X21351844Y-23059262D01*
X21330858Y-23020000D01*
X21351844Y-22980738D01*
X21373515Y-22909297D01*
X21380833Y-22835000D01*
X21380833Y-21935000D01*
X21373515Y-21860703D01*
X21351844Y-21789262D01*
X21330858Y-21750000D01*
X21351844Y-21710738D01*
X21373515Y-21639297D01*
X21380833Y-21565000D01*
X21380833Y-20665000D01*
X21373515Y-20590703D01*
X21351844Y-20519262D01*
X21330858Y-20480000D01*
X21351844Y-20440738D01*
X21373515Y-20369297D01*
X21380833Y-20295000D01*
X21380833Y-19395000D01*
X21373515Y-19320703D01*
X21351844Y-19249262D01*
X21330858Y-19210000D01*
X21351844Y-19170738D01*
X21373515Y-19099297D01*
X21380833Y-19025000D01*
X21380833Y-18125000D01*
X21373515Y-18050703D01*
X21351844Y-17979262D01*
X21330858Y-17940000D01*
X21351844Y-17900738D01*
X21373515Y-17829297D01*
X21380833Y-17755000D01*
X21380833Y-16855000D01*
X21373515Y-16780703D01*
X21351844Y-16709262D01*
X21330858Y-16670000D01*
X21351844Y-16630738D01*
X21373515Y-16559297D01*
X21380833Y-16485000D01*
X21380833Y-15585000D01*
X21373515Y-15510703D01*
X21351844Y-15439262D01*
X21330858Y-15400000D01*
X21351844Y-15360738D01*
X21373515Y-15289297D01*
X21380833Y-15215000D01*
X21380833Y-14451335D01*
X21449764Y-14394764D01*
X21528867Y-14298378D01*
X21587646Y-14188411D01*
X21623841Y-14069090D01*
X21636063Y-13945000D01*
X21633000Y-13655250D01*
X21474750Y-13497000D01*
X20002000Y-13497000D01*
X20002000Y-13517000D01*
X19998000Y-13517000D01*
X19998000Y-13497000D01*
X18525250Y-13497000D01*
X18367000Y-13655250D01*
X18363937Y-13945000D01*
X18376159Y-14069090D01*
X18412354Y-14188411D01*
X18471133Y-14298378D01*
X18550236Y-14394764D01*
X18619167Y-14451335D01*
X18619167Y-15215000D01*
X18626485Y-15289297D01*
X18648156Y-15360738D01*
X18669142Y-15400000D01*
X18648156Y-15439262D01*
X18626485Y-15510703D01*
X18619167Y-15585000D01*
X18619167Y-16485000D01*
X18626485Y-16559297D01*
X18648156Y-16630738D01*
X18669142Y-16670000D01*
X18648156Y-16709262D01*
X18626485Y-16780703D01*
X18619167Y-16855000D01*
X18619167Y-16896000D01*
X17487885Y-16896000D01*
X17474260Y-16886896D01*
X17368888Y-16843250D01*
X17257027Y-16821000D01*
X17142973Y-16821000D01*
X17031112Y-16843250D01*
X16925740Y-16886896D01*
X16830909Y-16950261D01*
X16750261Y-17030909D01*
X16686896Y-17125740D01*
X16643250Y-17231112D01*
X16621000Y-17342973D01*
X16621000Y-17457027D01*
X16643250Y-17568888D01*
X16686896Y-17674260D01*
X16750261Y-17769091D01*
X16830909Y-17849739D01*
X16925740Y-17913104D01*
X17014816Y-17950000D01*
X16925740Y-17986896D01*
X16830909Y-18050261D01*
X16750261Y-18130909D01*
X16686896Y-18225740D01*
X16643250Y-18331112D01*
X16621000Y-18442973D01*
X16621000Y-18557027D01*
X16643250Y-18668888D01*
X16686896Y-18774260D01*
X16750261Y-18869091D01*
X16830909Y-18949739D01*
X16925740Y-19013104D01*
X17031112Y-19056750D01*
X17142973Y-19079000D01*
X17257027Y-19079000D01*
X17368888Y-19056750D01*
X17474260Y-19013104D01*
X17487885Y-19004000D01*
X18619167Y-19004000D01*
X18619167Y-19025000D01*
X18626485Y-19099297D01*
X18648156Y-19170738D01*
X18669142Y-19210000D01*
X18648156Y-19249262D01*
X18626485Y-19320703D01*
X18619167Y-19395000D01*
X18619167Y-20295000D01*
X18626485Y-20369297D01*
X18648156Y-20440738D01*
X18669142Y-20480000D01*
X18648156Y-20519262D01*
X18626485Y-20590703D01*
X18619167Y-20665000D01*
X18619167Y-21565000D01*
X18626485Y-21639297D01*
X18648156Y-21710738D01*
X18669142Y-21750000D01*
X18648156Y-21789262D01*
X18626485Y-21860703D01*
X18619167Y-21935000D01*
X18619167Y-22835000D01*
X18626485Y-22909297D01*
X18648156Y-22980738D01*
X18669142Y-23020000D01*
X18648156Y-23059262D01*
X18626485Y-23130703D01*
X18619167Y-23205000D01*
X18619167Y-24105000D01*
X18626485Y-24179297D01*
X18648156Y-24250738D01*
X18669142Y-24290000D01*
X18648156Y-24329262D01*
X18626485Y-24400703D01*
X18619167Y-24475000D01*
X18619167Y-25375000D01*
X18626485Y-25449297D01*
X18648156Y-25520738D01*
X18669142Y-25560000D01*
X18648156Y-25599262D01*
X18626485Y-25670703D01*
X18619167Y-25745000D01*
X18619167Y-26645000D01*
X18626485Y-26719297D01*
X18648156Y-26790738D01*
X18669142Y-26830000D01*
X18648156Y-26869262D01*
X18626485Y-26940703D01*
X18619167Y-27015000D01*
X18619167Y-27915000D01*
X18626485Y-27989297D01*
X18648156Y-28060738D01*
X18669142Y-28100000D01*
X18648156Y-28139262D01*
X18626485Y-28210703D01*
X18619167Y-28285000D01*
X18619167Y-29185000D01*
X18626485Y-29259297D01*
X18648156Y-29330738D01*
X18669142Y-29370000D01*
X18648156Y-29409262D01*
X18626485Y-29480703D01*
X18619167Y-29555000D01*
X18619167Y-30455000D01*
X18626485Y-30529297D01*
X18648156Y-30600738D01*
X18683349Y-30666579D01*
X18730710Y-30724290D01*
X18788421Y-30771651D01*
X18854262Y-30806844D01*
X18925703Y-30828515D01*
X19000000Y-30835833D01*
X20896000Y-30835833D01*
X20896001Y-32978735D01*
X20155570Y-33719167D01*
X19762500Y-33719167D01*
X19641869Y-33731048D01*
X19525874Y-33766235D01*
X19418973Y-33823375D01*
X19325273Y-33900273D01*
X19248375Y-33993973D01*
X19191235Y-34100874D01*
X19156048Y-34216869D01*
X19144167Y-34337500D01*
X19144167Y-34631404D01*
X18898890Y-34386127D01*
X18883106Y-34366894D01*
X18806362Y-34303912D01*
X18718805Y-34257112D01*
X18623801Y-34228293D01*
X18549754Y-34221000D01*
X18525000Y-34218562D01*
X18500246Y-34221000D01*
X17784511Y-34221000D01*
X17753732Y-34163417D01*
X17678389Y-34071611D01*
X17586583Y-33996268D01*
X17554277Y-33979000D01*
X18057027Y-33979000D01*
X18085066Y-33973423D01*
X18113504Y-33970622D01*
X18140847Y-33962328D01*
X18168888Y-33956750D01*
X18195305Y-33945808D01*
X18222646Y-33937514D01*
X18247841Y-33924047D01*
X18274260Y-33913104D01*
X18298037Y-33897217D01*
X18323231Y-33883750D01*
X18345316Y-33865625D01*
X18369091Y-33849739D01*
X18389311Y-33829519D01*
X18411395Y-33811395D01*
X18429519Y-33789311D01*
X18449739Y-33769091D01*
X18465625Y-33745316D01*
X18483750Y-33723231D01*
X18497217Y-33698037D01*
X18513104Y-33674260D01*
X18524047Y-33647841D01*
X18537514Y-33622646D01*
X18545808Y-33595305D01*
X18556750Y-33568888D01*
X18562328Y-33540847D01*
X18570622Y-33513504D01*
X18573423Y-33485066D01*
X18579000Y-33457027D01*
X18579000Y-33428439D01*
X18581801Y-33400000D01*
X18579000Y-33371561D01*
X18579000Y-33342973D01*
X18573423Y-33314934D01*
X18570622Y-33286496D01*
X18562328Y-33259153D01*
X18556750Y-33231112D01*
X18545808Y-33204695D01*
X18537514Y-33177354D01*
X18524047Y-33152159D01*
X18513104Y-33125740D01*
X18497217Y-33101963D01*
X18483750Y-33076769D01*
X18465625Y-33054684D01*
X18449739Y-33030909D01*
X18429519Y-33010689D01*
X18411395Y-32988605D01*
X18389311Y-32970481D01*
X18369091Y-32950261D01*
X18345316Y-32934375D01*
X18323231Y-32916250D01*
X18298037Y-32902783D01*
X18274260Y-32886896D01*
X18247841Y-32875953D01*
X18222646Y-32862486D01*
X18195305Y-32854192D01*
X18168888Y-32843250D01*
X18140847Y-32837672D01*
X18113504Y-32829378D01*
X18085066Y-32826577D01*
X18057027Y-32821000D01*
X14128432Y-32821000D01*
X14100000Y-32818200D01*
X14071568Y-32821000D01*
X14071561Y-32821000D01*
X13986496Y-32829378D01*
X13877354Y-32862486D01*
X13776769Y-32916250D01*
X13710694Y-32970476D01*
X13710689Y-32970481D01*
X13688605Y-32988605D01*
X13670481Y-33010689D01*
X12837004Y-33844167D01*
X12370000Y-33844167D01*
X12295703Y-33851485D01*
X12224262Y-33873156D01*
X12158421Y-33908349D01*
X12100710Y-33955710D01*
X12088162Y-33971000D01*
X11539310Y-33971000D01*
X11481842Y-33940283D01*
X11368192Y-33905808D01*
X11250000Y-33894167D01*
X10750000Y-33894167D01*
X10631808Y-33905808D01*
X10581726Y-33921000D01*
X3528432Y-33921000D01*
X3500000Y-33918200D01*
X3471568Y-33921000D01*
X3471561Y-33921000D01*
X3386496Y-33929378D01*
X3296263Y-33956750D01*
X3277354Y-33962486D01*
X3176768Y-34016250D01*
X3110694Y-34070476D01*
X3110689Y-34070481D01*
X3088605Y-34088605D01*
X3070481Y-34110689D01*
X2227363Y-34953808D01*
X2100000Y-34941264D01*
X1908084Y-34960166D01*
X1723542Y-35016146D01*
X1553467Y-35107053D01*
X1404395Y-35229394D01*
X1304000Y-35351725D01*
X1304000Y-32005000D01*
X4698937Y-32005000D01*
X4711159Y-32129090D01*
X4747354Y-32248411D01*
X4806133Y-32358378D01*
X4885236Y-32454764D01*
X4981622Y-32533867D01*
X5091589Y-32592646D01*
X5210910Y-32628841D01*
X5335000Y-32641063D01*
X5624750Y-32638000D01*
X5783000Y-32479750D01*
X5783000Y-31007000D01*
X4860250Y-31007000D01*
X4702000Y-31165250D01*
X4698937Y-32005000D01*
X1304000Y-32005000D01*
X1304000Y-28608763D01*
X1619167Y-28293596D01*
X1619167Y-29185000D01*
X1626485Y-29259297D01*
X1648156Y-29330738D01*
X1669142Y-29370000D01*
X1648156Y-29409262D01*
X1626485Y-29480703D01*
X1619167Y-29555000D01*
X1619167Y-30455000D01*
X1626485Y-30529297D01*
X1648156Y-30600738D01*
X1683349Y-30666579D01*
X1730710Y-30724290D01*
X1788421Y-30771651D01*
X1854262Y-30806844D01*
X1925703Y-30828515D01*
X2000000Y-30835833D01*
X4000000Y-30835833D01*
X4074297Y-30828515D01*
X4145738Y-30806844D01*
X4211579Y-30771651D01*
X4269290Y-30724290D01*
X4316651Y-30666579D01*
X4351844Y-30600738D01*
X4373515Y-30529297D01*
X4380833Y-30455000D01*
X4380833Y-30005000D01*
X4698937Y-30005000D01*
X4702000Y-30844750D01*
X4860250Y-31003000D01*
X5783000Y-31003000D01*
X5783000Y-29530250D01*
X5787000Y-29530250D01*
X5787000Y-31003000D01*
X5807000Y-31003000D01*
X5807000Y-31007000D01*
X5787000Y-31007000D01*
X5787000Y-32479750D01*
X5945250Y-32638000D01*
X6235000Y-32641063D01*
X6359090Y-32628841D01*
X6478411Y-32592646D01*
X6588378Y-32533867D01*
X6684764Y-32454764D01*
X6741335Y-32385833D01*
X7505000Y-32385833D01*
X7579297Y-32378515D01*
X7650738Y-32356844D01*
X7690000Y-32335858D01*
X7729262Y-32356844D01*
X7800703Y-32378515D01*
X7875000Y-32385833D01*
X8775000Y-32385833D01*
X8849297Y-32378515D01*
X8920738Y-32356844D01*
X8960000Y-32335858D01*
X8999262Y-32356844D01*
X9070703Y-32378515D01*
X9145000Y-32385833D01*
X10045000Y-32385833D01*
X10119297Y-32378515D01*
X10190738Y-32356844D01*
X10230000Y-32335858D01*
X10269262Y-32356844D01*
X10340703Y-32378515D01*
X10415000Y-32385833D01*
X11315000Y-32385833D01*
X11389297Y-32378515D01*
X11460738Y-32356844D01*
X11500000Y-32335858D01*
X11539262Y-32356844D01*
X11610703Y-32378515D01*
X11685000Y-32385833D01*
X12585000Y-32385833D01*
X12659297Y-32378515D01*
X12730738Y-32356844D01*
X12770000Y-32335858D01*
X12809262Y-32356844D01*
X12880703Y-32378515D01*
X12955000Y-32385833D01*
X13855000Y-32385833D01*
X13929297Y-32378515D01*
X14000738Y-32356844D01*
X14040000Y-32335858D01*
X14079262Y-32356844D01*
X14150703Y-32378515D01*
X14225000Y-32385833D01*
X15125000Y-32385833D01*
X15199297Y-32378515D01*
X15270738Y-32356844D01*
X15310000Y-32335858D01*
X15349262Y-32356844D01*
X15420703Y-32378515D01*
X15495000Y-32385833D01*
X16395000Y-32385833D01*
X16469297Y-32378515D01*
X16540738Y-32356844D01*
X16580000Y-32335858D01*
X16619262Y-32356844D01*
X16690703Y-32378515D01*
X16765000Y-32385833D01*
X17665000Y-32385833D01*
X17739297Y-32378515D01*
X17810738Y-32356844D01*
X17876579Y-32321651D01*
X17934290Y-32274290D01*
X17981651Y-32216579D01*
X18016844Y-32150738D01*
X18038515Y-32079297D01*
X18045833Y-32005000D01*
X18045833Y-30005000D01*
X18038515Y-29930703D01*
X18016844Y-29859262D01*
X17981651Y-29793421D01*
X17934290Y-29735710D01*
X17876579Y-29688349D01*
X17810738Y-29653156D01*
X17739297Y-29631485D01*
X17665000Y-29624167D01*
X16765000Y-29624167D01*
X16690703Y-29631485D01*
X16619262Y-29653156D01*
X16580000Y-29674142D01*
X16540738Y-29653156D01*
X16469297Y-29631485D01*
X16395000Y-29624167D01*
X15495000Y-29624167D01*
X15420703Y-29631485D01*
X15349262Y-29653156D01*
X15310000Y-29674142D01*
X15270738Y-29653156D01*
X15199297Y-29631485D01*
X15125000Y-29624167D01*
X14225000Y-29624167D01*
X14150703Y-29631485D01*
X14079262Y-29653156D01*
X14040000Y-29674142D01*
X14000738Y-29653156D01*
X13929297Y-29631485D01*
X13855000Y-29624167D01*
X12955000Y-29624167D01*
X12880703Y-29631485D01*
X12809262Y-29653156D01*
X12770000Y-29674142D01*
X12730738Y-29653156D01*
X12659297Y-29631485D01*
X12585000Y-29624167D01*
X11685000Y-29624167D01*
X11610703Y-29631485D01*
X11539262Y-29653156D01*
X11500000Y-29674142D01*
X11460738Y-29653156D01*
X11389297Y-29631485D01*
X11315000Y-29624167D01*
X10415000Y-29624167D01*
X10340703Y-29631485D01*
X10269262Y-29653156D01*
X10230000Y-29674142D01*
X10190738Y-29653156D01*
X10119297Y-29631485D01*
X10045000Y-29624167D01*
X9145000Y-29624167D01*
X9070703Y-29631485D01*
X8999262Y-29653156D01*
X8960000Y-29674142D01*
X8920738Y-29653156D01*
X8849297Y-29631485D01*
X8775000Y-29624167D01*
X7875000Y-29624167D01*
X7800703Y-29631485D01*
X7729262Y-29653156D01*
X7690000Y-29674142D01*
X7650738Y-29653156D01*
X7579297Y-29631485D01*
X7505000Y-29624167D01*
X6741335Y-29624167D01*
X6684764Y-29555236D01*
X6588378Y-29476133D01*
X6478411Y-29417354D01*
X6359090Y-29381159D01*
X6235000Y-29368937D01*
X5945250Y-29372000D01*
X5787000Y-29530250D01*
X5783000Y-29530250D01*
X5624750Y-29372000D01*
X5335000Y-29368937D01*
X5210910Y-29381159D01*
X5091589Y-29417354D01*
X4981622Y-29476133D01*
X4885236Y-29555236D01*
X4806133Y-29651622D01*
X4747354Y-29761589D01*
X4711159Y-29880910D01*
X4698937Y-30005000D01*
X4380833Y-30005000D01*
X4380833Y-29555000D01*
X4373515Y-29480703D01*
X4351844Y-29409262D01*
X4330858Y-29370000D01*
X4351844Y-29330738D01*
X4373515Y-29259297D01*
X4380833Y-29185000D01*
X4380833Y-28285000D01*
X4373515Y-28210703D01*
X4351844Y-28139262D01*
X4330858Y-28100000D01*
X4351844Y-28060738D01*
X4373515Y-27989297D01*
X4380833Y-27915000D01*
X4380833Y-27015000D01*
X4373515Y-26940703D01*
X4351844Y-26869262D01*
X4330858Y-26830000D01*
X4351844Y-26790738D01*
X4373515Y-26719297D01*
X4380833Y-26645000D01*
X4380833Y-25745000D01*
X4373515Y-25670703D01*
X4351844Y-25599262D01*
X4330858Y-25560000D01*
X4351844Y-25520738D01*
X4373515Y-25449297D01*
X4380833Y-25375000D01*
X4380833Y-24475000D01*
X4373515Y-24400703D01*
X4351844Y-24329262D01*
X4330858Y-24290000D01*
X4351844Y-24250738D01*
X4373515Y-24179297D01*
X4380833Y-24105000D01*
X4380833Y-23205000D01*
X4373515Y-23130703D01*
X4351844Y-23059262D01*
X4330858Y-23020000D01*
X4351844Y-22980738D01*
X4373515Y-22909297D01*
X4380833Y-22835000D01*
X4380833Y-21935000D01*
X4373515Y-21860703D01*
X4351844Y-21789262D01*
X4330858Y-21750000D01*
X4351844Y-21710738D01*
X4373515Y-21639297D01*
X4380833Y-21565000D01*
X4380833Y-20665000D01*
X4373515Y-20590703D01*
X4351844Y-20519262D01*
X4343686Y-20504000D01*
X6237115Y-20504000D01*
X6250740Y-20513104D01*
X6356112Y-20556750D01*
X6467973Y-20579000D01*
X6582027Y-20579000D01*
X6693888Y-20556750D01*
X6799260Y-20513104D01*
X6894091Y-20449739D01*
X6974739Y-20369091D01*
X7038104Y-20274260D01*
X7081750Y-20168888D01*
X7104000Y-20057027D01*
X7104000Y-19942973D01*
X7081750Y-19831112D01*
X7038104Y-19725740D01*
X6974739Y-19630909D01*
X6894091Y-19550261D01*
X6799260Y-19486896D01*
X6693888Y-19443250D01*
X6582027Y-19421000D01*
X6467973Y-19421000D01*
X6356112Y-19443250D01*
X6250740Y-19486896D01*
X6237115Y-19496000D01*
X5545520Y-19496000D01*
X5556750Y-19468888D01*
X5579000Y-19357027D01*
X5579000Y-19242973D01*
X5556750Y-19131112D01*
X5513104Y-19025740D01*
X5504000Y-19012115D01*
X5504000Y-18495000D01*
X7363937Y-18495000D01*
X7367000Y-20834750D01*
X7525250Y-20993000D01*
X10498000Y-20993000D01*
X10498000Y-18020250D01*
X10339750Y-17862000D01*
X8000000Y-17858937D01*
X7875910Y-17871159D01*
X7756589Y-17907354D01*
X7646622Y-17966133D01*
X7550236Y-18045236D01*
X7471133Y-18141622D01*
X7412354Y-18251589D01*
X7376159Y-18370910D01*
X7363937Y-18495000D01*
X5504000Y-18495000D01*
X5504000Y-17808763D01*
X6215193Y-17097570D01*
X6274260Y-17073104D01*
X6369091Y-17009739D01*
X6449739Y-16929091D01*
X6513104Y-16834260D01*
X6556750Y-16728888D01*
X6579000Y-16617027D01*
X6579000Y-16539000D01*
X10916239Y-16539000D01*
X12237174Y-17859936D01*
X10660250Y-17862000D01*
X10502000Y-18020250D01*
X10502000Y-20993000D01*
X13474750Y-20993000D01*
X13633000Y-20834750D01*
X13635064Y-19257826D01*
X15752889Y-21375651D01*
X15725740Y-21386896D01*
X15630909Y-21450261D01*
X15550261Y-21530909D01*
X15486896Y-21625740D01*
X15443250Y-21731112D01*
X15440053Y-21747184D01*
X13629926Y-23557311D01*
X13636063Y-23495000D01*
X13633000Y-21155250D01*
X13474750Y-20997000D01*
X10502000Y-20997000D01*
X10502000Y-23969750D01*
X10660250Y-24128000D01*
X13000000Y-24131063D01*
X13062311Y-24124926D01*
X12161123Y-25026114D01*
X12141895Y-25041894D01*
X12126115Y-25061122D01*
X12078913Y-25118638D01*
X12032113Y-25206195D01*
X12003293Y-25301199D01*
X11993562Y-25400000D01*
X11996001Y-25424763D01*
X11996000Y-26241234D01*
X10266236Y-27970999D01*
X9937277Y-27970999D01*
X9969094Y-27949739D01*
X10049742Y-27869091D01*
X10113107Y-27774260D01*
X10156753Y-27668888D01*
X10179003Y-27557027D01*
X10179003Y-27442973D01*
X10156753Y-27331112D01*
X10113107Y-27225740D01*
X10104003Y-27212115D01*
X10104003Y-26124757D01*
X10106441Y-26100003D01*
X10096710Y-26001202D01*
X10090919Y-25982111D01*
X10067891Y-25906198D01*
X10021091Y-25818641D01*
X9958109Y-25741897D01*
X9938876Y-25726113D01*
X8343376Y-24130613D01*
X10339750Y-24128000D01*
X10498000Y-23969750D01*
X10498000Y-20997000D01*
X7525250Y-20997000D01*
X7367000Y-21155250D01*
X7364387Y-23151624D01*
X5559947Y-21347184D01*
X5556750Y-21331112D01*
X5513104Y-21225740D01*
X5449739Y-21130909D01*
X5369091Y-21050261D01*
X5274260Y-20986896D01*
X5168888Y-20943250D01*
X5057027Y-20921000D01*
X4942973Y-20921000D01*
X4831112Y-20943250D01*
X4725740Y-20986896D01*
X4630909Y-21050261D01*
X4550261Y-21130909D01*
X4486896Y-21225740D01*
X4443250Y-21331112D01*
X4421000Y-21442973D01*
X4421000Y-21557027D01*
X4443250Y-21668888D01*
X4486896Y-21774260D01*
X4550261Y-21869091D01*
X4630909Y-21949739D01*
X4725740Y-22013104D01*
X4831112Y-22056750D01*
X4847184Y-22059947D01*
X6767281Y-23980044D01*
X6750740Y-23986896D01*
X6737115Y-23996000D01*
X6108763Y-23996000D01*
X5659947Y-23547184D01*
X5656750Y-23531112D01*
X5613104Y-23425740D01*
X5549739Y-23330909D01*
X5469091Y-23250261D01*
X5374260Y-23186896D01*
X5268888Y-23143250D01*
X5157027Y-23121000D01*
X5042973Y-23121000D01*
X4931112Y-23143250D01*
X4825740Y-23186896D01*
X4730909Y-23250261D01*
X4650261Y-23330909D01*
X4586896Y-23425740D01*
X4543250Y-23531112D01*
X4521000Y-23642973D01*
X4521000Y-23757027D01*
X4543250Y-23868888D01*
X4586896Y-23974260D01*
X4650261Y-24069091D01*
X4730909Y-24149739D01*
X4825740Y-24213104D01*
X4931112Y-24256750D01*
X4947184Y-24259947D01*
X5526110Y-24838873D01*
X5541894Y-24858106D01*
X5618638Y-24921088D01*
X5706195Y-24967888D01*
X5772379Y-24987965D01*
X5801198Y-24996707D01*
X5900000Y-25006438D01*
X5924754Y-25004000D01*
X6737115Y-25004000D01*
X6750740Y-25013104D01*
X6856112Y-25056750D01*
X6967973Y-25079000D01*
X7082027Y-25079000D01*
X7193888Y-25056750D01*
X7299260Y-25013104D01*
X7394091Y-24949739D01*
X7474739Y-24869091D01*
X7538104Y-24774260D01*
X7544956Y-24757719D01*
X9096003Y-26308766D01*
X9096004Y-26928753D01*
X9057027Y-26921000D01*
X8942973Y-26921000D01*
X8831112Y-26943250D01*
X8725740Y-26986896D01*
X8712115Y-26996000D01*
X7183763Y-26996000D01*
X6534947Y-26347184D01*
X6531750Y-26331112D01*
X6488104Y-26225740D01*
X6424739Y-26130909D01*
X6344091Y-26050261D01*
X6249260Y-25986896D01*
X6143888Y-25943250D01*
X6032027Y-25921000D01*
X5917973Y-25921000D01*
X5806112Y-25943250D01*
X5700740Y-25986896D01*
X5605909Y-26050261D01*
X5525261Y-26130909D01*
X5461896Y-26225740D01*
X5418250Y-26331112D01*
X5396000Y-26442973D01*
X5396000Y-26557027D01*
X5418250Y-26668888D01*
X5461896Y-26774260D01*
X5525261Y-26869091D01*
X5605909Y-26949739D01*
X5700740Y-27013104D01*
X5806112Y-27056750D01*
X5822184Y-27059947D01*
X6601110Y-27838873D01*
X6616894Y-27858106D01*
X6693638Y-27921088D01*
X6781195Y-27967888D01*
X6873868Y-27996000D01*
X6187885Y-27996000D01*
X6174260Y-27986896D01*
X6068888Y-27943250D01*
X5957027Y-27921000D01*
X5842973Y-27921000D01*
X5731112Y-27943250D01*
X5625740Y-27986896D01*
X5530909Y-28050261D01*
X5450261Y-28130909D01*
X5386896Y-28225740D01*
X5343250Y-28331112D01*
X5321000Y-28442973D01*
X5321000Y-28557027D01*
X5343250Y-28668888D01*
X5386896Y-28774260D01*
X5450261Y-28869091D01*
X5530909Y-28949739D01*
X5625740Y-29013104D01*
X5731112Y-29056750D01*
X5842973Y-29079000D01*
X5957027Y-29079000D01*
X6068888Y-29056750D01*
X6174260Y-29013104D01*
X6187885Y-29004000D01*
X7975246Y-29004000D01*
X8000000Y-29006438D01*
X8098801Y-28996707D01*
X8157177Y-28978999D01*
X10450245Y-28978999D01*
X10474999Y-28981437D01*
X10573800Y-28971706D01*
X10586386Y-28967888D01*
X10668804Y-28942887D01*
X10756361Y-28896087D01*
X10833105Y-28833105D01*
X10848889Y-28813872D01*
X12838878Y-26823884D01*
X12858106Y-26808104D01*
X12921088Y-26731360D01*
X12967888Y-26643803D01*
X12996707Y-26548799D01*
X13004000Y-26474752D01*
X13004000Y-26474751D01*
X13006438Y-26449998D01*
X13004000Y-26425244D01*
X13004000Y-25742973D01*
X13121000Y-25742973D01*
X13121000Y-25857027D01*
X13143250Y-25968888D01*
X13186896Y-26074260D01*
X13196000Y-26087885D01*
X13196001Y-27212114D01*
X13186896Y-27225740D01*
X13143250Y-27331112D01*
X13121000Y-27442973D01*
X13121000Y-27557027D01*
X13143250Y-27668888D01*
X13186896Y-27774260D01*
X13250261Y-27869091D01*
X13330909Y-27949739D01*
X13425740Y-28013104D01*
X13531112Y-28056750D01*
X13642973Y-28079000D01*
X13757027Y-28079000D01*
X13868888Y-28056750D01*
X13974260Y-28013104D01*
X14069091Y-27949739D01*
X14149739Y-27869091D01*
X14213104Y-27774260D01*
X14256750Y-27668888D01*
X14279000Y-27557027D01*
X14279000Y-27442973D01*
X14256750Y-27331112D01*
X14213104Y-27225740D01*
X14204000Y-27212115D01*
X14204000Y-26087885D01*
X14213104Y-26074260D01*
X14256750Y-25968888D01*
X14279000Y-25857027D01*
X14279000Y-25742973D01*
X14256750Y-25631112D01*
X14213104Y-25525740D01*
X14149739Y-25430909D01*
X14069091Y-25350261D01*
X13974260Y-25286896D01*
X13868888Y-25243250D01*
X13757027Y-25221000D01*
X13642973Y-25221000D01*
X13531112Y-25243250D01*
X13425740Y-25286896D01*
X13330909Y-25350261D01*
X13250261Y-25430909D01*
X13186896Y-25525740D01*
X13143250Y-25631112D01*
X13121000Y-25742973D01*
X13004000Y-25742973D01*
X13004000Y-25608763D01*
X16152816Y-22459947D01*
X16168888Y-22456750D01*
X16274260Y-22413104D01*
X16369091Y-22349739D01*
X16449739Y-22269091D01*
X16513104Y-22174260D01*
X16524349Y-22147111D01*
X17196000Y-22818762D01*
X17196001Y-23112114D01*
X17186896Y-23125740D01*
X17143250Y-23231112D01*
X17121000Y-23342973D01*
X17121000Y-23457027D01*
X17143250Y-23568888D01*
X17186896Y-23674260D01*
X17250261Y-23769091D01*
X17330909Y-23849739D01*
X17425740Y-23913104D01*
X17531112Y-23956750D01*
X17642973Y-23979000D01*
X17757027Y-23979000D01*
X17868888Y-23956750D01*
X17974260Y-23913104D01*
X18069091Y-23849739D01*
X18149739Y-23769091D01*
X18213104Y-23674260D01*
X18256750Y-23568888D01*
X18279000Y-23457027D01*
X18279000Y-23342973D01*
X18256750Y-23231112D01*
X18213104Y-23125740D01*
X18204000Y-23112115D01*
X18204000Y-22634748D01*
X18206438Y-22609997D01*
X18202389Y-22568888D01*
X18196707Y-22511197D01*
X18167888Y-22416193D01*
X18121088Y-22328636D01*
X18058106Y-22251892D01*
X18038878Y-22236112D01*
X11498892Y-15696127D01*
X11483108Y-15676894D01*
X11406364Y-15613912D01*
X11318807Y-15567112D01*
X11223803Y-15538293D01*
X11149756Y-15531000D01*
X11125002Y-15528562D01*
X11100248Y-15531000D01*
X6531023Y-15531000D01*
X6556750Y-15468888D01*
X6579000Y-15357027D01*
X6579000Y-15242973D01*
X6556750Y-15131112D01*
X6513104Y-15025740D01*
X6449739Y-14930909D01*
X6369091Y-14850261D01*
X6274260Y-14786896D01*
X6168888Y-14743250D01*
X6152817Y-14740053D01*
X5838890Y-14426127D01*
X5823106Y-14406894D01*
X5746362Y-14343912D01*
X5658805Y-14297112D01*
X5563801Y-14268293D01*
X5489754Y-14261000D01*
X5465000Y-14258562D01*
X5440246Y-14261000D01*
X4548846Y-14261000D01*
X4587646Y-14188411D01*
X4623841Y-14069090D01*
X4636063Y-13945000D01*
X4633000Y-13655250D01*
X4474750Y-13497000D01*
X3002000Y-13497000D01*
X3002000Y-13517000D01*
X2998000Y-13517000D01*
X2998000Y-13497000D01*
X1525250Y-13497000D01*
X1367000Y-13655250D01*
X1363937Y-13945000D01*
X1376159Y-14069090D01*
X1412354Y-14188411D01*
X1471133Y-14298378D01*
X1550236Y-14394764D01*
X1619167Y-14451335D01*
X1619167Y-15215000D01*
X1626485Y-15289297D01*
X1648156Y-15360738D01*
X1669142Y-15400000D01*
X1657832Y-15421160D01*
X1657027Y-15421000D01*
X1542973Y-15421000D01*
X1431112Y-15443250D01*
X1325740Y-15486896D01*
X1230909Y-15550261D01*
X1150261Y-15630909D01*
X1086896Y-15725740D01*
X1043250Y-15831112D01*
X1021000Y-15942973D01*
X1021000Y-16057027D01*
X1043250Y-16168888D01*
X1086896Y-16274260D01*
X1150261Y-16369091D01*
X1230909Y-16449739D01*
X1325740Y-16513104D01*
X1431112Y-16556750D01*
X1542973Y-16579000D01*
X1632462Y-16579000D01*
X1648156Y-16630738D01*
X1669142Y-16670000D01*
X1648156Y-16709262D01*
X1626485Y-16780703D01*
X1619167Y-16855000D01*
X1619167Y-17755000D01*
X1626485Y-17829297D01*
X1648156Y-17900738D01*
X1669142Y-17940000D01*
X1648156Y-17979262D01*
X1626485Y-18050703D01*
X1619167Y-18125000D01*
X1619167Y-19025000D01*
X1626485Y-19099297D01*
X1648156Y-19170738D01*
X1669142Y-19210000D01*
X1648156Y-19249262D01*
X1626485Y-19320703D01*
X1619167Y-19395000D01*
X1619167Y-20295000D01*
X1626485Y-20369297D01*
X1648156Y-20440738D01*
X1669142Y-20480000D01*
X1648156Y-20519262D01*
X1626485Y-20590703D01*
X1619167Y-20665000D01*
X1619167Y-21565000D01*
X1626485Y-21639297D01*
X1648156Y-21710738D01*
X1669142Y-21750000D01*
X1648156Y-21789262D01*
X1626485Y-21860703D01*
X1623008Y-21896000D01*
X1087885Y-21896000D01*
X1074260Y-21886896D01*
X968888Y-21843250D01*
X857027Y-21821000D01*
X742973Y-21821000D01*
X631112Y-21843250D01*
X525740Y-21886896D01*
X430909Y-21950261D01*
X404000Y-21977170D01*
X404000Y-13045000D01*
X1363937Y-13045000D01*
X1367000Y-13334750D01*
X1525250Y-13493000D01*
X2998000Y-13493000D01*
X2998000Y-12570250D01*
X3002000Y-12570250D01*
X3002000Y-13493000D01*
X4474750Y-13493000D01*
X4633000Y-13334750D01*
X4636063Y-13045000D01*
X18363937Y-13045000D01*
X18367000Y-13334750D01*
X18525250Y-13493000D01*
X19998000Y-13493000D01*
X19998000Y-12570250D01*
X20002000Y-12570250D01*
X20002000Y-13493000D01*
X21474750Y-13493000D01*
X21633000Y-13334750D01*
X21636063Y-13045000D01*
X21623841Y-12920910D01*
X21587646Y-12801589D01*
X21528867Y-12691622D01*
X21449764Y-12595236D01*
X21353378Y-12516133D01*
X21243411Y-12457354D01*
X21124090Y-12421159D01*
X21000000Y-12408937D01*
X20160250Y-12412000D01*
X20002000Y-12570250D01*
X19998000Y-12570250D01*
X19839750Y-12412000D01*
X19000000Y-12408937D01*
X18875910Y-12421159D01*
X18756589Y-12457354D01*
X18646622Y-12516133D01*
X18550236Y-12595236D01*
X18471133Y-12691622D01*
X18412354Y-12801589D01*
X18376159Y-12920910D01*
X18363937Y-13045000D01*
X4636063Y-13045000D01*
X4623841Y-12920910D01*
X4587646Y-12801589D01*
X4528867Y-12691622D01*
X4449764Y-12595236D01*
X4353378Y-12516133D01*
X4243411Y-12457354D01*
X4124090Y-12421159D01*
X4000000Y-12408937D01*
X3160250Y-12412000D01*
X3002000Y-12570250D01*
X2998000Y-12570250D01*
X2839750Y-12412000D01*
X2000000Y-12408937D01*
X1875910Y-12421159D01*
X1756589Y-12457354D01*
X1646622Y-12516133D01*
X1550236Y-12595236D01*
X1471133Y-12691622D01*
X1412354Y-12801589D01*
X1376159Y-12920910D01*
X1363937Y-13045000D01*
X404000Y-13045000D01*
X404000Y-11875000D01*
X22596000Y-11875000D01*
X22596001Y-39982524D01*
G04 #@! TA.AperFunction,Conductor*
D20*
G36*
X22596001Y-39982524D02*
G01*
X22488267Y-41225217D01*
X22231383Y-42438462D01*
X21828561Y-43611344D01*
X21285800Y-44726398D01*
X20611198Y-45766989D01*
X19814801Y-46717618D01*
X18908495Y-47564098D01*
X17905774Y-48293825D01*
X16821606Y-48895907D01*
X15662617Y-49365231D01*
X15482793Y-49423490D01*
X15251743Y-49479270D01*
X15038399Y-49488108D01*
X14827407Y-49455341D01*
X14626799Y-49382216D01*
X14444207Y-49271514D01*
X14286604Y-49127463D01*
X14159972Y-48955532D01*
X14069153Y-48762290D01*
X14016383Y-48550207D01*
X14004000Y-48381018D01*
X14004000Y-47980160D01*
X14003861Y-47978750D01*
X14003785Y-47967854D01*
X14001867Y-47949606D01*
X14001867Y-47931256D01*
X14001277Y-47925646D01*
X13955592Y-47518352D01*
X13947984Y-47482557D01*
X13940867Y-47446616D01*
X13939199Y-47441227D01*
X13815273Y-47050564D01*
X13800855Y-47016924D01*
X13786896Y-46983056D01*
X13784212Y-46978094D01*
X13784212Y-46978093D01*
X13784209Y-46978089D01*
X13586766Y-46618941D01*
X13566091Y-46588746D01*
X13545816Y-46558229D01*
X13542224Y-46553888D01*
X13542220Y-46553882D01*
X13542215Y-46553877D01*
X13278775Y-46239921D01*
X13252625Y-46214312D01*
X13226813Y-46188320D01*
X13222447Y-46184760D01*
X13222441Y-46184754D01*
X13222434Y-46184750D01*
X12903031Y-45927942D01*
X12872376Y-45907882D01*
X12842035Y-45887417D01*
X12837062Y-45884773D01*
X12837054Y-45884768D01*
X12837046Y-45884765D01*
X12473846Y-45694888D01*
X12439936Y-45681187D01*
X12406140Y-45666981D01*
X12400740Y-45665351D01*
X12007567Y-45549634D01*
X11971600Y-45542773D01*
X11935731Y-45535410D01*
X11930126Y-45534861D01*
X11930116Y-45534859D01*
X11930107Y-45534859D01*
X11521955Y-45497714D01*
X11485377Y-45497969D01*
X11448723Y-45497713D01*
X11443109Y-45498264D01*
X11035506Y-45541105D01*
X10999661Y-45548463D01*
X10963671Y-45555329D01*
X10958270Y-45556959D01*
X10566751Y-45678154D01*
X10533028Y-45692330D01*
X10499045Y-45706060D01*
X10494064Y-45708709D01*
X10133542Y-45903643D01*
X10103200Y-45924109D01*
X10072548Y-45944167D01*
X10068176Y-45947733D01*
X9752382Y-46208980D01*
X9726588Y-46234954D01*
X9700418Y-46260582D01*
X9696828Y-46264923D01*
X9696823Y-46264928D01*
X9696819Y-46264933D01*
X9437787Y-46582538D01*
X9417524Y-46613037D01*
X9396837Y-46643249D01*
X9394154Y-46648211D01*
X9201742Y-47010085D01*
X9187805Y-47043900D01*
X9173363Y-47077595D01*
X9171696Y-47082984D01*
X9053237Y-47475339D01*
X9046131Y-47511229D01*
X9038511Y-47547074D01*
X9037922Y-47552685D01*
X8997928Y-47960577D01*
X8997928Y-47960585D01*
X8996000Y-47980161D01*
X8996000Y-48375297D01*
X8973156Y-48608273D01*
X8911445Y-48812670D01*
X8811208Y-49001188D01*
X8676267Y-49166643D01*
X8511754Y-49302740D01*
X8323941Y-49404290D01*
X8119980Y-49467427D01*
X7907635Y-49489746D01*
X7689850Y-49469926D01*
X7533852Y-49428294D01*
X6371273Y-48985623D01*
X5274727Y-48406375D01*
X4256957Y-47697816D01*
X3333116Y-46870496D01*
X2516991Y-45936760D01*
X1820744Y-44910526D01*
X1254746Y-43807076D01*
X827449Y-42642886D01*
X594694Y-41647000D01*
X1096000Y-41647000D01*
X1096000Y-42552999D01*
X1111613Y-42711520D01*
X1173311Y-42914912D01*
X1273504Y-43102360D01*
X1408341Y-43266659D01*
X1572640Y-43401496D01*
X1760087Y-43501689D01*
X1963479Y-43563387D01*
X2175000Y-43584220D01*
X2386520Y-43563387D01*
X2589912Y-43501689D01*
X2777360Y-43401496D01*
X2941659Y-43266659D01*
X3076496Y-43102360D01*
X3176689Y-42914913D01*
X3238387Y-42711521D01*
X3254000Y-42553000D01*
X3254000Y-42500000D01*
X3315780Y-42500000D01*
X3336613Y-42711521D01*
X3398311Y-42914913D01*
X3498504Y-43102360D01*
X3633341Y-43266659D01*
X3797640Y-43401496D01*
X3985087Y-43501689D01*
X4188479Y-43563387D01*
X4347000Y-43579000D01*
X5053000Y-43579000D01*
X5211521Y-43563387D01*
X5414913Y-43501689D01*
X5602360Y-43401496D01*
X5766659Y-43266659D01*
X5901496Y-43102360D01*
X6001689Y-42914913D01*
X6063387Y-42711521D01*
X6063487Y-42710502D01*
X6683726Y-42710502D01*
X6692222Y-42758093D01*
X6767702Y-43008269D01*
X6890539Y-43238912D01*
X7056012Y-43441159D01*
X7257762Y-43607238D01*
X7488035Y-43730766D01*
X7737983Y-43806997D01*
X7998000Y-43833000D01*
X8298000Y-43833000D01*
X8298000Y-42502000D01*
X6825252Y-42502000D01*
X6683726Y-42710502D01*
X6063487Y-42710502D01*
X6084220Y-42500000D01*
X6063488Y-42289498D01*
X6683726Y-42289498D01*
X6825252Y-42498000D01*
X8298000Y-42498000D01*
X8298000Y-41167000D01*
X8302000Y-41167000D01*
X8302000Y-42498000D01*
X8322000Y-42498000D01*
X8322000Y-42502000D01*
X8302000Y-42502000D01*
X8302000Y-43833000D01*
X8602000Y-43833000D01*
X8862017Y-43806997D01*
X9111965Y-43730766D01*
X9342238Y-43607238D01*
X9543988Y-43441159D01*
X9709461Y-43238912D01*
X9832298Y-43008269D01*
X9847060Y-42959342D01*
X9923504Y-43102360D01*
X10058341Y-43266659D01*
X10222640Y-43401496D01*
X10410087Y-43501689D01*
X10613479Y-43563387D01*
X10825000Y-43584220D01*
X11036520Y-43563387D01*
X11239912Y-43501689D01*
X11427360Y-43401496D01*
X11591659Y-43266659D01*
X11726496Y-43102360D01*
X11826689Y-42914913D01*
X11888387Y-42711521D01*
X11904000Y-42553000D01*
X11904000Y-41647001D01*
X11888387Y-41488480D01*
X11826689Y-41285087D01*
X11726496Y-41097640D01*
X11591659Y-40933341D01*
X11427360Y-40798504D01*
X11239913Y-40698311D01*
X11036521Y-40636613D01*
X10825000Y-40615780D01*
X10613480Y-40636613D01*
X10410088Y-40698311D01*
X10222641Y-40798504D01*
X10058342Y-40933341D01*
X9923505Y-41097640D01*
X9823312Y-41285087D01*
X9761613Y-41488479D01*
X9746000Y-41647000D01*
X9746000Y-41829695D01*
X9709461Y-41761088D01*
X9543988Y-41558841D01*
X9342238Y-41392762D01*
X9111965Y-41269234D01*
X8862017Y-41193003D01*
X8602000Y-41167000D01*
X8302000Y-41167000D01*
X8298000Y-41167000D01*
X7998000Y-41167000D01*
X7737983Y-41193003D01*
X7488035Y-41269234D01*
X7257762Y-41392762D01*
X7056012Y-41558841D01*
X6890539Y-41761088D01*
X6767702Y-41991731D01*
X6692222Y-42241907D01*
X6683726Y-42289498D01*
X6063488Y-42289498D01*
X6063387Y-42288479D01*
X6001689Y-42085087D01*
X5901496Y-41897640D01*
X5766659Y-41733341D01*
X5602360Y-41598504D01*
X5414913Y-41498311D01*
X5211521Y-41436613D01*
X5053000Y-41421000D01*
X4347000Y-41421000D01*
X4188479Y-41436613D01*
X3985087Y-41498311D01*
X3797640Y-41598504D01*
X3633341Y-41733341D01*
X3498504Y-41897640D01*
X3398311Y-42085087D01*
X3336613Y-42288479D01*
X3315780Y-42500000D01*
X3254000Y-42500000D01*
X3254000Y-41647001D01*
X3238387Y-41488480D01*
X3176689Y-41285087D01*
X3076496Y-41097640D01*
X2941659Y-40933341D01*
X2777360Y-40798504D01*
X2589913Y-40698311D01*
X2386521Y-40636613D01*
X2175000Y-40615780D01*
X1963480Y-40636613D01*
X1760088Y-40698311D01*
X1572641Y-40798504D01*
X1408342Y-40933341D01*
X1273505Y-41097640D01*
X1173312Y-41285087D01*
X1111613Y-41488479D01*
X1096000Y-41647000D01*
X594694Y-41647000D01*
X545214Y-41435294D01*
X411154Y-40192120D01*
X404000Y-39992759D01*
X404000Y-37011931D01*
X441895Y-37058106D01*
X461123Y-37073886D01*
X1626114Y-38238878D01*
X1641894Y-38258106D01*
X1718638Y-38321088D01*
X1806195Y-38367888D01*
X1901199Y-38396707D01*
X1975246Y-38404000D01*
X1975248Y-38404000D01*
X1999999Y-38406438D01*
X2024750Y-38404000D01*
X10091237Y-38404000D01*
X11340053Y-39652816D01*
X11343250Y-39668888D01*
X11386896Y-39774260D01*
X11450261Y-39869091D01*
X11530909Y-39949739D01*
X11625740Y-40013104D01*
X11731112Y-40056750D01*
X11842973Y-40079000D01*
X11957027Y-40079000D01*
X12068888Y-40056750D01*
X12174260Y-40013104D01*
X12269091Y-39949739D01*
X12349739Y-39869091D01*
X12382419Y-39820183D01*
X12400387Y-39838151D01*
X12405328Y-39888315D01*
X12438380Y-39997275D01*
X12492055Y-40097694D01*
X12564289Y-40185711D01*
X12652306Y-40257945D01*
X12752725Y-40311620D01*
X12861685Y-40344672D01*
X12975000Y-40355833D01*
X13375000Y-40355833D01*
X13488315Y-40344672D01*
X13597275Y-40311620D01*
X13697694Y-40257945D01*
X13785711Y-40185711D01*
X13857945Y-40097694D01*
X13911620Y-39997275D01*
X13944672Y-39888315D01*
X13955833Y-39775000D01*
X13955833Y-39225000D01*
X13944672Y-39111685D01*
X13912007Y-39004000D01*
X14087993Y-39004000D01*
X14055328Y-39111685D01*
X14044167Y-39225000D01*
X14044167Y-39775000D01*
X14055328Y-39888315D01*
X14088380Y-39997275D01*
X14142055Y-40097694D01*
X14214289Y-40185711D01*
X14302306Y-40257945D01*
X14402725Y-40311620D01*
X14511685Y-40344672D01*
X14625000Y-40355833D01*
X14743070Y-40355833D01*
X15240053Y-40852817D01*
X15243250Y-40868888D01*
X15286896Y-40974260D01*
X15350261Y-41069091D01*
X15430909Y-41149739D01*
X15525740Y-41213104D01*
X15631112Y-41256750D01*
X15742973Y-41279000D01*
X15857027Y-41279000D01*
X15968888Y-41256750D01*
X16074260Y-41213104D01*
X16087885Y-41204000D01*
X17100246Y-41204000D01*
X17125000Y-41206438D01*
X17223801Y-41196707D01*
X17318805Y-41167888D01*
X17406362Y-41121088D01*
X17483106Y-41058106D01*
X17498890Y-41038873D01*
X18181931Y-40355833D01*
X18525000Y-40355833D01*
X18638315Y-40344672D01*
X18747275Y-40311620D01*
X18847694Y-40257945D01*
X18935711Y-40185711D01*
X19007945Y-40097694D01*
X19061620Y-39997275D01*
X19094672Y-39888315D01*
X19105833Y-39775000D01*
X19105833Y-39431930D01*
X20338873Y-38198890D01*
X20358106Y-38183106D01*
X20421088Y-38106362D01*
X20467888Y-38018805D01*
X20496707Y-37923801D01*
X20504000Y-37849754D01*
X20506438Y-37825000D01*
X20504000Y-37800246D01*
X20504000Y-37217797D01*
X20581027Y-37176625D01*
X20674727Y-37099727D01*
X20751625Y-37006027D01*
X20808765Y-36899126D01*
X20843952Y-36783131D01*
X20855833Y-36662500D01*
X20855833Y-36162500D01*
X20843952Y-36041869D01*
X20808765Y-35925874D01*
X20751625Y-35818973D01*
X20674727Y-35725273D01*
X20581027Y-35648375D01*
X20474126Y-35591235D01*
X20358131Y-35556048D01*
X20237500Y-35544167D01*
X20056931Y-35544167D01*
X19968597Y-35455833D01*
X20237500Y-35455833D01*
X20358131Y-35443952D01*
X20474126Y-35408765D01*
X20581027Y-35351625D01*
X20674727Y-35274727D01*
X20751625Y-35181027D01*
X20808765Y-35074126D01*
X20843952Y-34958131D01*
X20855833Y-34837500D01*
X20855833Y-34444430D01*
X21738878Y-33561386D01*
X21758106Y-33545606D01*
X21821088Y-33468862D01*
X21867888Y-33381305D01*
X21896707Y-33286301D01*
X21904000Y-33212254D01*
X21906438Y-33187500D01*
X21904000Y-33162746D01*
X21904000Y-30787885D01*
X21913104Y-30774260D01*
X21956750Y-30668888D01*
X21979000Y-30557027D01*
X21979000Y-30442973D01*
X21956750Y-30331112D01*
X21913104Y-30225740D01*
X21849739Y-30130909D01*
X21769091Y-30050261D01*
X21674260Y-29986896D01*
X21568888Y-29943250D01*
X21552816Y-29940053D01*
X21473890Y-29861127D01*
X21458106Y-29841894D01*
X21381362Y-29778912D01*
X21380833Y-29778629D01*
X21380833Y-29555000D01*
X21373515Y-29480703D01*
X21351844Y-29409262D01*
X21330858Y-29370000D01*
X21351844Y-29330738D01*
X21373515Y-29259297D01*
X21380833Y-29185000D01*
X21380833Y-28285000D01*
X21373515Y-28210703D01*
X21351844Y-28139262D01*
X21330858Y-28100000D01*
X21351844Y-28060738D01*
X21373515Y-27989297D01*
X21380833Y-27915000D01*
X21380833Y-27015000D01*
X21373515Y-26940703D01*
X21351844Y-26869262D01*
X21330858Y-26830000D01*
X21351844Y-26790738D01*
X21373515Y-26719297D01*
X21380833Y-26645000D01*
X21380833Y-25745000D01*
X21373515Y-25670703D01*
X21351844Y-25599262D01*
X21330858Y-25560000D01*
X21351844Y-25520738D01*
X21373515Y-25449297D01*
X21380833Y-25375000D01*
X21380833Y-24475000D01*
X21373515Y-24400703D01*
X21351844Y-24329262D01*
X21330858Y-24290000D01*
X21351844Y-24250738D01*
X21373515Y-24179297D01*
X21380833Y-24105000D01*
X21380833Y-23205000D01*
X21373515Y-23130703D01*
X21351844Y-23059262D01*
X21330858Y-23020000D01*
X21351844Y-22980738D01*
X21373515Y-22909297D01*
X21380833Y-22835000D01*
X21380833Y-21935000D01*
X21373515Y-21860703D01*
X21351844Y-21789262D01*
X21330858Y-21750000D01*
X21351844Y-21710738D01*
X21373515Y-21639297D01*
X21380833Y-21565000D01*
X21380833Y-20665000D01*
X21373515Y-20590703D01*
X21351844Y-20519262D01*
X21330858Y-20480000D01*
X21351844Y-20440738D01*
X21373515Y-20369297D01*
X21380833Y-20295000D01*
X21380833Y-19395000D01*
X21373515Y-19320703D01*
X21351844Y-19249262D01*
X21330858Y-19210000D01*
X21351844Y-19170738D01*
X21373515Y-19099297D01*
X21380833Y-19025000D01*
X21380833Y-18125000D01*
X21373515Y-18050703D01*
X21351844Y-17979262D01*
X21330858Y-17940000D01*
X21351844Y-17900738D01*
X21373515Y-17829297D01*
X21380833Y-17755000D01*
X21380833Y-16855000D01*
X21373515Y-16780703D01*
X21351844Y-16709262D01*
X21330858Y-16670000D01*
X21351844Y-16630738D01*
X21373515Y-16559297D01*
X21380833Y-16485000D01*
X21380833Y-15585000D01*
X21373515Y-15510703D01*
X21351844Y-15439262D01*
X21330858Y-15400000D01*
X21351844Y-15360738D01*
X21373515Y-15289297D01*
X21380833Y-15215000D01*
X21380833Y-14451335D01*
X21449764Y-14394764D01*
X21528867Y-14298378D01*
X21587646Y-14188411D01*
X21623841Y-14069090D01*
X21636063Y-13945000D01*
X21633000Y-13655250D01*
X21474750Y-13497000D01*
X20002000Y-13497000D01*
X20002000Y-13517000D01*
X19998000Y-13517000D01*
X19998000Y-13497000D01*
X18525250Y-13497000D01*
X18367000Y-13655250D01*
X18363937Y-13945000D01*
X18376159Y-14069090D01*
X18412354Y-14188411D01*
X18471133Y-14298378D01*
X18550236Y-14394764D01*
X18619167Y-14451335D01*
X18619167Y-15215000D01*
X18626485Y-15289297D01*
X18648156Y-15360738D01*
X18669142Y-15400000D01*
X18648156Y-15439262D01*
X18626485Y-15510703D01*
X18619167Y-15585000D01*
X18619167Y-16485000D01*
X18626485Y-16559297D01*
X18648156Y-16630738D01*
X18669142Y-16670000D01*
X18648156Y-16709262D01*
X18626485Y-16780703D01*
X18619167Y-16855000D01*
X18619167Y-16896000D01*
X17487885Y-16896000D01*
X17474260Y-16886896D01*
X17368888Y-16843250D01*
X17257027Y-16821000D01*
X17142973Y-16821000D01*
X17031112Y-16843250D01*
X16925740Y-16886896D01*
X16830909Y-16950261D01*
X16750261Y-17030909D01*
X16686896Y-17125740D01*
X16643250Y-17231112D01*
X16621000Y-17342973D01*
X16621000Y-17457027D01*
X16643250Y-17568888D01*
X16686896Y-17674260D01*
X16750261Y-17769091D01*
X16830909Y-17849739D01*
X16925740Y-17913104D01*
X17014816Y-17950000D01*
X16925740Y-17986896D01*
X16830909Y-18050261D01*
X16750261Y-18130909D01*
X16686896Y-18225740D01*
X16643250Y-18331112D01*
X16621000Y-18442973D01*
X16621000Y-18557027D01*
X16643250Y-18668888D01*
X16686896Y-18774260D01*
X16750261Y-18869091D01*
X16830909Y-18949739D01*
X16925740Y-19013104D01*
X17031112Y-19056750D01*
X17142973Y-19079000D01*
X17257027Y-19079000D01*
X17368888Y-19056750D01*
X17474260Y-19013104D01*
X17487885Y-19004000D01*
X18619167Y-19004000D01*
X18619167Y-19025000D01*
X18626485Y-19099297D01*
X18648156Y-19170738D01*
X18669142Y-19210000D01*
X18648156Y-19249262D01*
X18626485Y-19320703D01*
X18619167Y-19395000D01*
X18619167Y-20295000D01*
X18626485Y-20369297D01*
X18648156Y-20440738D01*
X18669142Y-20480000D01*
X18648156Y-20519262D01*
X18626485Y-20590703D01*
X18619167Y-20665000D01*
X18619167Y-21565000D01*
X18626485Y-21639297D01*
X18648156Y-21710738D01*
X18669142Y-21750000D01*
X18648156Y-21789262D01*
X18626485Y-21860703D01*
X18619167Y-21935000D01*
X18619167Y-22835000D01*
X18626485Y-22909297D01*
X18648156Y-22980738D01*
X18669142Y-23020000D01*
X18648156Y-23059262D01*
X18626485Y-23130703D01*
X18619167Y-23205000D01*
X18619167Y-24105000D01*
X18626485Y-24179297D01*
X18648156Y-24250738D01*
X18669142Y-24290000D01*
X18648156Y-24329262D01*
X18626485Y-24400703D01*
X18619167Y-24475000D01*
X18619167Y-25375000D01*
X18626485Y-25449297D01*
X18648156Y-25520738D01*
X18669142Y-25560000D01*
X18648156Y-25599262D01*
X18626485Y-25670703D01*
X18619167Y-25745000D01*
X18619167Y-26645000D01*
X18626485Y-26719297D01*
X18648156Y-26790738D01*
X18669142Y-26830000D01*
X18648156Y-26869262D01*
X18626485Y-26940703D01*
X18619167Y-27015000D01*
X18619167Y-27915000D01*
X18626485Y-27989297D01*
X18648156Y-28060738D01*
X18669142Y-28100000D01*
X18648156Y-28139262D01*
X18626485Y-28210703D01*
X18619167Y-28285000D01*
X18619167Y-29185000D01*
X18626485Y-29259297D01*
X18648156Y-29330738D01*
X18669142Y-29370000D01*
X18648156Y-29409262D01*
X18626485Y-29480703D01*
X18619167Y-29555000D01*
X18619167Y-30455000D01*
X18626485Y-30529297D01*
X18648156Y-30600738D01*
X18683349Y-30666579D01*
X18730710Y-30724290D01*
X18788421Y-30771651D01*
X18854262Y-30806844D01*
X18925703Y-30828515D01*
X19000000Y-30835833D01*
X20896000Y-30835833D01*
X20896001Y-32978735D01*
X20155570Y-33719167D01*
X19762500Y-33719167D01*
X19641869Y-33731048D01*
X19525874Y-33766235D01*
X19418973Y-33823375D01*
X19325273Y-33900273D01*
X19248375Y-33993973D01*
X19191235Y-34100874D01*
X19156048Y-34216869D01*
X19144167Y-34337500D01*
X19144167Y-34631404D01*
X18898890Y-34386127D01*
X18883106Y-34366894D01*
X18806362Y-34303912D01*
X18718805Y-34257112D01*
X18623801Y-34228293D01*
X18549754Y-34221000D01*
X18525000Y-34218562D01*
X18500246Y-34221000D01*
X17784511Y-34221000D01*
X17753732Y-34163417D01*
X17678389Y-34071611D01*
X17586583Y-33996268D01*
X17554277Y-33979000D01*
X18057027Y-33979000D01*
X18085066Y-33973423D01*
X18113504Y-33970622D01*
X18140847Y-33962328D01*
X18168888Y-33956750D01*
X18195305Y-33945808D01*
X18222646Y-33937514D01*
X18247841Y-33924047D01*
X18274260Y-33913104D01*
X18298037Y-33897217D01*
X18323231Y-33883750D01*
X18345316Y-33865625D01*
X18369091Y-33849739D01*
X18389311Y-33829519D01*
X18411395Y-33811395D01*
X18429519Y-33789311D01*
X18449739Y-33769091D01*
X18465625Y-33745316D01*
X18483750Y-33723231D01*
X18497217Y-33698037D01*
X18513104Y-33674260D01*
X18524047Y-33647841D01*
X18537514Y-33622646D01*
X18545808Y-33595305D01*
X18556750Y-33568888D01*
X18562328Y-33540847D01*
X18570622Y-33513504D01*
X18573423Y-33485066D01*
X18579000Y-33457027D01*
X18579000Y-33428439D01*
X18581801Y-33400000D01*
X18579000Y-33371561D01*
X18579000Y-33342973D01*
X18573423Y-33314934D01*
X18570622Y-33286496D01*
X18562328Y-33259153D01*
X18556750Y-33231112D01*
X18545808Y-33204695D01*
X18537514Y-33177354D01*
X18524047Y-33152159D01*
X18513104Y-33125740D01*
X18497217Y-33101963D01*
X18483750Y-33076769D01*
X18465625Y-33054684D01*
X18449739Y-33030909D01*
X18429519Y-33010689D01*
X18411395Y-32988605D01*
X18389311Y-32970481D01*
X18369091Y-32950261D01*
X18345316Y-32934375D01*
X18323231Y-32916250D01*
X18298037Y-32902783D01*
X18274260Y-32886896D01*
X18247841Y-32875953D01*
X18222646Y-32862486D01*
X18195305Y-32854192D01*
X18168888Y-32843250D01*
X18140847Y-32837672D01*
X18113504Y-32829378D01*
X18085066Y-32826577D01*
X18057027Y-32821000D01*
X14128432Y-32821000D01*
X14100000Y-32818200D01*
X14071568Y-32821000D01*
X14071561Y-32821000D01*
X13986496Y-32829378D01*
X13877354Y-32862486D01*
X13776769Y-32916250D01*
X13710694Y-32970476D01*
X13710689Y-32970481D01*
X13688605Y-32988605D01*
X13670481Y-33010689D01*
X12837004Y-33844167D01*
X12370000Y-33844167D01*
X12295703Y-33851485D01*
X12224262Y-33873156D01*
X12158421Y-33908349D01*
X12100710Y-33955710D01*
X12088162Y-33971000D01*
X11539310Y-33971000D01*
X11481842Y-33940283D01*
X11368192Y-33905808D01*
X11250000Y-33894167D01*
X10750000Y-33894167D01*
X10631808Y-33905808D01*
X10581726Y-33921000D01*
X3528432Y-33921000D01*
X3500000Y-33918200D01*
X3471568Y-33921000D01*
X3471561Y-33921000D01*
X3386496Y-33929378D01*
X3296263Y-33956750D01*
X3277354Y-33962486D01*
X3176768Y-34016250D01*
X3110694Y-34070476D01*
X3110689Y-34070481D01*
X3088605Y-34088605D01*
X3070481Y-34110689D01*
X2227363Y-34953808D01*
X2100000Y-34941264D01*
X1908084Y-34960166D01*
X1723542Y-35016146D01*
X1553467Y-35107053D01*
X1404395Y-35229394D01*
X1304000Y-35351725D01*
X1304000Y-32005000D01*
X4698937Y-32005000D01*
X4711159Y-32129090D01*
X4747354Y-32248411D01*
X4806133Y-32358378D01*
X4885236Y-32454764D01*
X4981622Y-32533867D01*
X5091589Y-32592646D01*
X5210910Y-32628841D01*
X5335000Y-32641063D01*
X5624750Y-32638000D01*
X5783000Y-32479750D01*
X5783000Y-31007000D01*
X4860250Y-31007000D01*
X4702000Y-31165250D01*
X4698937Y-32005000D01*
X1304000Y-32005000D01*
X1304000Y-28608763D01*
X1619167Y-28293596D01*
X1619167Y-29185000D01*
X1626485Y-29259297D01*
X1648156Y-29330738D01*
X1669142Y-29370000D01*
X1648156Y-29409262D01*
X1626485Y-29480703D01*
X1619167Y-29555000D01*
X1619167Y-30455000D01*
X1626485Y-30529297D01*
X1648156Y-30600738D01*
X1683349Y-30666579D01*
X1730710Y-30724290D01*
X1788421Y-30771651D01*
X1854262Y-30806844D01*
X1925703Y-30828515D01*
X2000000Y-30835833D01*
X4000000Y-30835833D01*
X4074297Y-30828515D01*
X4145738Y-30806844D01*
X4211579Y-30771651D01*
X4269290Y-30724290D01*
X4316651Y-30666579D01*
X4351844Y-30600738D01*
X4373515Y-30529297D01*
X4380833Y-30455000D01*
X4380833Y-30005000D01*
X4698937Y-30005000D01*
X4702000Y-30844750D01*
X4860250Y-31003000D01*
X5783000Y-31003000D01*
X5783000Y-29530250D01*
X5787000Y-29530250D01*
X5787000Y-31003000D01*
X5807000Y-31003000D01*
X5807000Y-31007000D01*
X5787000Y-31007000D01*
X5787000Y-32479750D01*
X5945250Y-32638000D01*
X6235000Y-32641063D01*
X6359090Y-32628841D01*
X6478411Y-32592646D01*
X6588378Y-32533867D01*
X6684764Y-32454764D01*
X6741335Y-32385833D01*
X7505000Y-32385833D01*
X7579297Y-32378515D01*
X7650738Y-32356844D01*
X7690000Y-32335858D01*
X7729262Y-32356844D01*
X7800703Y-32378515D01*
X7875000Y-32385833D01*
X8775000Y-32385833D01*
X8849297Y-32378515D01*
X8920738Y-32356844D01*
X8960000Y-32335858D01*
X8999262Y-32356844D01*
X9070703Y-32378515D01*
X9145000Y-32385833D01*
X10045000Y-32385833D01*
X10119297Y-32378515D01*
X10190738Y-32356844D01*
X10230000Y-32335858D01*
X10269262Y-32356844D01*
X10340703Y-32378515D01*
X10415000Y-32385833D01*
X11315000Y-32385833D01*
X11389297Y-32378515D01*
X11460738Y-32356844D01*
X11500000Y-32335858D01*
X11539262Y-32356844D01*
X11610703Y-32378515D01*
X11685000Y-32385833D01*
X12585000Y-32385833D01*
X12659297Y-32378515D01*
X12730738Y-32356844D01*
X12770000Y-32335858D01*
X12809262Y-32356844D01*
X12880703Y-32378515D01*
X12955000Y-32385833D01*
X13855000Y-32385833D01*
X13929297Y-32378515D01*
X14000738Y-32356844D01*
X14040000Y-32335858D01*
X14079262Y-32356844D01*
X14150703Y-32378515D01*
X14225000Y-32385833D01*
X15125000Y-32385833D01*
X15199297Y-32378515D01*
X15270738Y-32356844D01*
X15310000Y-32335858D01*
X15349262Y-32356844D01*
X15420703Y-32378515D01*
X15495000Y-32385833D01*
X16395000Y-32385833D01*
X16469297Y-32378515D01*
X16540738Y-32356844D01*
X16580000Y-32335858D01*
X16619262Y-32356844D01*
X16690703Y-32378515D01*
X16765000Y-32385833D01*
X17665000Y-32385833D01*
X17739297Y-32378515D01*
X17810738Y-32356844D01*
X17876579Y-32321651D01*
X17934290Y-32274290D01*
X17981651Y-32216579D01*
X18016844Y-32150738D01*
X18038515Y-32079297D01*
X18045833Y-32005000D01*
X18045833Y-30005000D01*
X18038515Y-29930703D01*
X18016844Y-29859262D01*
X17981651Y-29793421D01*
X17934290Y-29735710D01*
X17876579Y-29688349D01*
X17810738Y-29653156D01*
X17739297Y-29631485D01*
X17665000Y-29624167D01*
X16765000Y-29624167D01*
X16690703Y-29631485D01*
X16619262Y-29653156D01*
X16580000Y-29674142D01*
X16540738Y-29653156D01*
X16469297Y-29631485D01*
X16395000Y-29624167D01*
X15495000Y-29624167D01*
X15420703Y-29631485D01*
X15349262Y-29653156D01*
X15310000Y-29674142D01*
X15270738Y-29653156D01*
X15199297Y-29631485D01*
X15125000Y-29624167D01*
X14225000Y-29624167D01*
X14150703Y-29631485D01*
X14079262Y-29653156D01*
X14040000Y-29674142D01*
X14000738Y-29653156D01*
X13929297Y-29631485D01*
X13855000Y-29624167D01*
X12955000Y-29624167D01*
X12880703Y-29631485D01*
X12809262Y-29653156D01*
X12770000Y-29674142D01*
X12730738Y-29653156D01*
X12659297Y-29631485D01*
X12585000Y-29624167D01*
X11685000Y-29624167D01*
X11610703Y-29631485D01*
X11539262Y-29653156D01*
X11500000Y-29674142D01*
X11460738Y-29653156D01*
X11389297Y-29631485D01*
X11315000Y-29624167D01*
X10415000Y-29624167D01*
X10340703Y-29631485D01*
X10269262Y-29653156D01*
X10230000Y-29674142D01*
X10190738Y-29653156D01*
X10119297Y-29631485D01*
X10045000Y-29624167D01*
X9145000Y-29624167D01*
X9070703Y-29631485D01*
X8999262Y-29653156D01*
X8960000Y-29674142D01*
X8920738Y-29653156D01*
X8849297Y-29631485D01*
X8775000Y-29624167D01*
X7875000Y-29624167D01*
X7800703Y-29631485D01*
X7729262Y-29653156D01*
X7690000Y-29674142D01*
X7650738Y-29653156D01*
X7579297Y-29631485D01*
X7505000Y-29624167D01*
X6741335Y-29624167D01*
X6684764Y-29555236D01*
X6588378Y-29476133D01*
X6478411Y-29417354D01*
X6359090Y-29381159D01*
X6235000Y-29368937D01*
X5945250Y-29372000D01*
X5787000Y-29530250D01*
X5783000Y-29530250D01*
X5624750Y-29372000D01*
X5335000Y-29368937D01*
X5210910Y-29381159D01*
X5091589Y-29417354D01*
X4981622Y-29476133D01*
X4885236Y-29555236D01*
X4806133Y-29651622D01*
X4747354Y-29761589D01*
X4711159Y-29880910D01*
X4698937Y-30005000D01*
X4380833Y-30005000D01*
X4380833Y-29555000D01*
X4373515Y-29480703D01*
X4351844Y-29409262D01*
X4330858Y-29370000D01*
X4351844Y-29330738D01*
X4373515Y-29259297D01*
X4380833Y-29185000D01*
X4380833Y-28285000D01*
X4373515Y-28210703D01*
X4351844Y-28139262D01*
X4330858Y-28100000D01*
X4351844Y-28060738D01*
X4373515Y-27989297D01*
X4380833Y-27915000D01*
X4380833Y-27015000D01*
X4373515Y-26940703D01*
X4351844Y-26869262D01*
X4330858Y-26830000D01*
X4351844Y-26790738D01*
X4373515Y-26719297D01*
X4380833Y-26645000D01*
X4380833Y-25745000D01*
X4373515Y-25670703D01*
X4351844Y-25599262D01*
X4330858Y-25560000D01*
X4351844Y-25520738D01*
X4373515Y-25449297D01*
X4380833Y-25375000D01*
X4380833Y-24475000D01*
X4373515Y-24400703D01*
X4351844Y-24329262D01*
X4330858Y-24290000D01*
X4351844Y-24250738D01*
X4373515Y-24179297D01*
X4380833Y-24105000D01*
X4380833Y-23205000D01*
X4373515Y-23130703D01*
X4351844Y-23059262D01*
X4330858Y-23020000D01*
X4351844Y-22980738D01*
X4373515Y-22909297D01*
X4380833Y-22835000D01*
X4380833Y-21935000D01*
X4373515Y-21860703D01*
X4351844Y-21789262D01*
X4330858Y-21750000D01*
X4351844Y-21710738D01*
X4373515Y-21639297D01*
X4380833Y-21565000D01*
X4380833Y-20665000D01*
X4373515Y-20590703D01*
X4351844Y-20519262D01*
X4343686Y-20504000D01*
X6237115Y-20504000D01*
X6250740Y-20513104D01*
X6356112Y-20556750D01*
X6467973Y-20579000D01*
X6582027Y-20579000D01*
X6693888Y-20556750D01*
X6799260Y-20513104D01*
X6894091Y-20449739D01*
X6974739Y-20369091D01*
X7038104Y-20274260D01*
X7081750Y-20168888D01*
X7104000Y-20057027D01*
X7104000Y-19942973D01*
X7081750Y-19831112D01*
X7038104Y-19725740D01*
X6974739Y-19630909D01*
X6894091Y-19550261D01*
X6799260Y-19486896D01*
X6693888Y-19443250D01*
X6582027Y-19421000D01*
X6467973Y-19421000D01*
X6356112Y-19443250D01*
X6250740Y-19486896D01*
X6237115Y-19496000D01*
X5545520Y-19496000D01*
X5556750Y-19468888D01*
X5579000Y-19357027D01*
X5579000Y-19242973D01*
X5556750Y-19131112D01*
X5513104Y-19025740D01*
X5504000Y-19012115D01*
X5504000Y-18495000D01*
X7363937Y-18495000D01*
X7367000Y-20834750D01*
X7525250Y-20993000D01*
X10498000Y-20993000D01*
X10498000Y-18020250D01*
X10339750Y-17862000D01*
X8000000Y-17858937D01*
X7875910Y-17871159D01*
X7756589Y-17907354D01*
X7646622Y-17966133D01*
X7550236Y-18045236D01*
X7471133Y-18141622D01*
X7412354Y-18251589D01*
X7376159Y-18370910D01*
X7363937Y-18495000D01*
X5504000Y-18495000D01*
X5504000Y-17808763D01*
X6215193Y-17097570D01*
X6274260Y-17073104D01*
X6369091Y-17009739D01*
X6449739Y-16929091D01*
X6513104Y-16834260D01*
X6556750Y-16728888D01*
X6579000Y-16617027D01*
X6579000Y-16539000D01*
X10916239Y-16539000D01*
X12237174Y-17859936D01*
X10660250Y-17862000D01*
X10502000Y-18020250D01*
X10502000Y-20993000D01*
X13474750Y-20993000D01*
X13633000Y-20834750D01*
X13635064Y-19257826D01*
X15752889Y-21375651D01*
X15725740Y-21386896D01*
X15630909Y-21450261D01*
X15550261Y-21530909D01*
X15486896Y-21625740D01*
X15443250Y-21731112D01*
X15440053Y-21747184D01*
X13629926Y-23557311D01*
X13636063Y-23495000D01*
X13633000Y-21155250D01*
X13474750Y-20997000D01*
X10502000Y-20997000D01*
X10502000Y-23969750D01*
X10660250Y-24128000D01*
X13000000Y-24131063D01*
X13062311Y-24124926D01*
X12161123Y-25026114D01*
X12141895Y-25041894D01*
X12126115Y-25061122D01*
X12078913Y-25118638D01*
X12032113Y-25206195D01*
X12003293Y-25301199D01*
X11993562Y-25400000D01*
X11996001Y-25424763D01*
X11996000Y-26241234D01*
X10266236Y-27970999D01*
X9937277Y-27970999D01*
X9969094Y-27949739D01*
X10049742Y-27869091D01*
X10113107Y-27774260D01*
X10156753Y-27668888D01*
X10179003Y-27557027D01*
X10179003Y-27442973D01*
X10156753Y-27331112D01*
X10113107Y-27225740D01*
X10104003Y-27212115D01*
X10104003Y-26124757D01*
X10106441Y-26100003D01*
X10096710Y-26001202D01*
X10090919Y-25982111D01*
X10067891Y-25906198D01*
X10021091Y-25818641D01*
X9958109Y-25741897D01*
X9938876Y-25726113D01*
X8343376Y-24130613D01*
X10339750Y-24128000D01*
X10498000Y-23969750D01*
X10498000Y-20997000D01*
X7525250Y-20997000D01*
X7367000Y-21155250D01*
X7364387Y-23151624D01*
X5559947Y-21347184D01*
X5556750Y-21331112D01*
X5513104Y-21225740D01*
X5449739Y-21130909D01*
X5369091Y-21050261D01*
X5274260Y-20986896D01*
X5168888Y-20943250D01*
X5057027Y-20921000D01*
X4942973Y-20921000D01*
X4831112Y-20943250D01*
X4725740Y-20986896D01*
X4630909Y-21050261D01*
X4550261Y-21130909D01*
X4486896Y-21225740D01*
X4443250Y-21331112D01*
X4421000Y-21442973D01*
X4421000Y-21557027D01*
X4443250Y-21668888D01*
X4486896Y-21774260D01*
X4550261Y-21869091D01*
X4630909Y-21949739D01*
X4725740Y-22013104D01*
X4831112Y-22056750D01*
X4847184Y-22059947D01*
X6767281Y-23980044D01*
X6750740Y-23986896D01*
X6737115Y-23996000D01*
X6108763Y-23996000D01*
X5659947Y-23547184D01*
X5656750Y-23531112D01*
X5613104Y-23425740D01*
X5549739Y-23330909D01*
X5469091Y-23250261D01*
X5374260Y-23186896D01*
X5268888Y-23143250D01*
X5157027Y-23121000D01*
X5042973Y-23121000D01*
X4931112Y-23143250D01*
X4825740Y-23186896D01*
X4730909Y-23250261D01*
X4650261Y-23330909D01*
X4586896Y-23425740D01*
X4543250Y-23531112D01*
X4521000Y-23642973D01*
X4521000Y-23757027D01*
X4543250Y-23868888D01*
X4586896Y-23974260D01*
X4650261Y-24069091D01*
X4730909Y-24149739D01*
X4825740Y-24213104D01*
X4931112Y-24256750D01*
X4947184Y-24259947D01*
X5526110Y-24838873D01*
X5541894Y-24858106D01*
X5618638Y-24921088D01*
X5706195Y-24967888D01*
X5772379Y-24987965D01*
X5801198Y-24996707D01*
X5900000Y-25006438D01*
X5924754Y-25004000D01*
X6737115Y-25004000D01*
X6750740Y-25013104D01*
X6856112Y-25056750D01*
X6967973Y-25079000D01*
X7082027Y-25079000D01*
X7193888Y-25056750D01*
X7299260Y-25013104D01*
X7394091Y-24949739D01*
X7474739Y-24869091D01*
X7538104Y-24774260D01*
X7544956Y-24757719D01*
X9096003Y-26308766D01*
X9096004Y-26928753D01*
X9057027Y-26921000D01*
X8942973Y-26921000D01*
X8831112Y-26943250D01*
X8725740Y-26986896D01*
X8712115Y-26996000D01*
X7183763Y-26996000D01*
X6534947Y-26347184D01*
X6531750Y-26331112D01*
X6488104Y-26225740D01*
X6424739Y-26130909D01*
X6344091Y-26050261D01*
X6249260Y-25986896D01*
X6143888Y-25943250D01*
X6032027Y-25921000D01*
X5917973Y-25921000D01*
X5806112Y-25943250D01*
X5700740Y-25986896D01*
X5605909Y-26050261D01*
X5525261Y-26130909D01*
X5461896Y-26225740D01*
X5418250Y-26331112D01*
X5396000Y-26442973D01*
X5396000Y-26557027D01*
X5418250Y-26668888D01*
X5461896Y-26774260D01*
X5525261Y-26869091D01*
X5605909Y-26949739D01*
X5700740Y-27013104D01*
X5806112Y-27056750D01*
X5822184Y-27059947D01*
X6601110Y-27838873D01*
X6616894Y-27858106D01*
X6693638Y-27921088D01*
X6781195Y-27967888D01*
X6873868Y-27996000D01*
X6187885Y-27996000D01*
X6174260Y-27986896D01*
X6068888Y-27943250D01*
X5957027Y-27921000D01*
X5842973Y-27921000D01*
X5731112Y-27943250D01*
X5625740Y-27986896D01*
X5530909Y-28050261D01*
X5450261Y-28130909D01*
X5386896Y-28225740D01*
X5343250Y-28331112D01*
X5321000Y-28442973D01*
X5321000Y-28557027D01*
X5343250Y-28668888D01*
X5386896Y-28774260D01*
X5450261Y-28869091D01*
X5530909Y-28949739D01*
X5625740Y-29013104D01*
X5731112Y-29056750D01*
X5842973Y-29079000D01*
X5957027Y-29079000D01*
X6068888Y-29056750D01*
X6174260Y-29013104D01*
X6187885Y-29004000D01*
X7975246Y-29004000D01*
X8000000Y-29006438D01*
X8098801Y-28996707D01*
X8157177Y-28978999D01*
X10450245Y-28978999D01*
X10474999Y-28981437D01*
X10573800Y-28971706D01*
X10586386Y-28967888D01*
X10668804Y-28942887D01*
X10756361Y-28896087D01*
X10833105Y-28833105D01*
X10848889Y-28813872D01*
X12838878Y-26823884D01*
X12858106Y-26808104D01*
X12921088Y-26731360D01*
X12967888Y-26643803D01*
X12996707Y-26548799D01*
X13004000Y-26474752D01*
X13004000Y-26474751D01*
X13006438Y-26449998D01*
X13004000Y-26425244D01*
X13004000Y-25742973D01*
X13121000Y-25742973D01*
X13121000Y-25857027D01*
X13143250Y-25968888D01*
X13186896Y-26074260D01*
X13196000Y-26087885D01*
X13196001Y-27212114D01*
X13186896Y-27225740D01*
X13143250Y-27331112D01*
X13121000Y-27442973D01*
X13121000Y-27557027D01*
X13143250Y-27668888D01*
X13186896Y-27774260D01*
X13250261Y-27869091D01*
X13330909Y-27949739D01*
X13425740Y-28013104D01*
X13531112Y-28056750D01*
X13642973Y-28079000D01*
X13757027Y-28079000D01*
X13868888Y-28056750D01*
X13974260Y-28013104D01*
X14069091Y-27949739D01*
X14149739Y-27869091D01*
X14213104Y-27774260D01*
X14256750Y-27668888D01*
X14279000Y-27557027D01*
X14279000Y-27442973D01*
X14256750Y-27331112D01*
X14213104Y-27225740D01*
X14204000Y-27212115D01*
X14204000Y-26087885D01*
X14213104Y-26074260D01*
X14256750Y-25968888D01*
X14279000Y-25857027D01*
X14279000Y-25742973D01*
X14256750Y-25631112D01*
X14213104Y-25525740D01*
X14149739Y-25430909D01*
X14069091Y-25350261D01*
X13974260Y-25286896D01*
X13868888Y-25243250D01*
X13757027Y-25221000D01*
X13642973Y-25221000D01*
X13531112Y-25243250D01*
X13425740Y-25286896D01*
X13330909Y-25350261D01*
X13250261Y-25430909D01*
X13186896Y-25525740D01*
X13143250Y-25631112D01*
X13121000Y-25742973D01*
X13004000Y-25742973D01*
X13004000Y-25608763D01*
X16152816Y-22459947D01*
X16168888Y-22456750D01*
X16274260Y-22413104D01*
X16369091Y-22349739D01*
X16449739Y-22269091D01*
X16513104Y-22174260D01*
X16524349Y-22147111D01*
X17196000Y-22818762D01*
X17196001Y-23112114D01*
X17186896Y-23125740D01*
X17143250Y-23231112D01*
X17121000Y-23342973D01*
X17121000Y-23457027D01*
X17143250Y-23568888D01*
X17186896Y-23674260D01*
X17250261Y-23769091D01*
X17330909Y-23849739D01*
X17425740Y-23913104D01*
X17531112Y-23956750D01*
X17642973Y-23979000D01*
X17757027Y-23979000D01*
X17868888Y-23956750D01*
X17974260Y-23913104D01*
X18069091Y-23849739D01*
X18149739Y-23769091D01*
X18213104Y-23674260D01*
X18256750Y-23568888D01*
X18279000Y-23457027D01*
X18279000Y-23342973D01*
X18256750Y-23231112D01*
X18213104Y-23125740D01*
X18204000Y-23112115D01*
X18204000Y-22634748D01*
X18206438Y-22609997D01*
X18202389Y-22568888D01*
X18196707Y-22511197D01*
X18167888Y-22416193D01*
X18121088Y-22328636D01*
X18058106Y-22251892D01*
X18038878Y-22236112D01*
X11498892Y-15696127D01*
X11483108Y-15676894D01*
X11406364Y-15613912D01*
X11318807Y-15567112D01*
X11223803Y-15538293D01*
X11149756Y-15531000D01*
X11125002Y-15528562D01*
X11100248Y-15531000D01*
X6531023Y-15531000D01*
X6556750Y-15468888D01*
X6579000Y-15357027D01*
X6579000Y-15242973D01*
X6556750Y-15131112D01*
X6513104Y-15025740D01*
X6449739Y-14930909D01*
X6369091Y-14850261D01*
X6274260Y-14786896D01*
X6168888Y-14743250D01*
X6152817Y-14740053D01*
X5838890Y-14426127D01*
X5823106Y-14406894D01*
X5746362Y-14343912D01*
X5658805Y-14297112D01*
X5563801Y-14268293D01*
X5489754Y-14261000D01*
X5465000Y-14258562D01*
X5440246Y-14261000D01*
X4548846Y-14261000D01*
X4587646Y-14188411D01*
X4623841Y-14069090D01*
X4636063Y-13945000D01*
X4633000Y-13655250D01*
X4474750Y-13497000D01*
X3002000Y-13497000D01*
X3002000Y-13517000D01*
X2998000Y-13517000D01*
X2998000Y-13497000D01*
X1525250Y-13497000D01*
X1367000Y-13655250D01*
X1363937Y-13945000D01*
X1376159Y-14069090D01*
X1412354Y-14188411D01*
X1471133Y-14298378D01*
X1550236Y-14394764D01*
X1619167Y-14451335D01*
X1619167Y-15215000D01*
X1626485Y-15289297D01*
X1648156Y-15360738D01*
X1669142Y-15400000D01*
X1657832Y-15421160D01*
X1657027Y-15421000D01*
X1542973Y-15421000D01*
X1431112Y-15443250D01*
X1325740Y-15486896D01*
X1230909Y-15550261D01*
X1150261Y-15630909D01*
X1086896Y-15725740D01*
X1043250Y-15831112D01*
X1021000Y-15942973D01*
X1021000Y-16057027D01*
X1043250Y-16168888D01*
X1086896Y-16274260D01*
X1150261Y-16369091D01*
X1230909Y-16449739D01*
X1325740Y-16513104D01*
X1431112Y-16556750D01*
X1542973Y-16579000D01*
X1632462Y-16579000D01*
X1648156Y-16630738D01*
X1669142Y-16670000D01*
X1648156Y-16709262D01*
X1626485Y-16780703D01*
X1619167Y-16855000D01*
X1619167Y-17755000D01*
X1626485Y-17829297D01*
X1648156Y-17900738D01*
X1669142Y-17940000D01*
X1648156Y-17979262D01*
X1626485Y-18050703D01*
X1619167Y-18125000D01*
X1619167Y-19025000D01*
X1626485Y-19099297D01*
X1648156Y-19170738D01*
X1669142Y-19210000D01*
X1648156Y-19249262D01*
X1626485Y-19320703D01*
X1619167Y-19395000D01*
X1619167Y-20295000D01*
X1626485Y-20369297D01*
X1648156Y-20440738D01*
X1669142Y-20480000D01*
X1648156Y-20519262D01*
X1626485Y-20590703D01*
X1619167Y-20665000D01*
X1619167Y-21565000D01*
X1626485Y-21639297D01*
X1648156Y-21710738D01*
X1669142Y-21750000D01*
X1648156Y-21789262D01*
X1626485Y-21860703D01*
X1623008Y-21896000D01*
X1087885Y-21896000D01*
X1074260Y-21886896D01*
X968888Y-21843250D01*
X857027Y-21821000D01*
X742973Y-21821000D01*
X631112Y-21843250D01*
X525740Y-21886896D01*
X430909Y-21950261D01*
X404000Y-21977170D01*
X404000Y-13045000D01*
X1363937Y-13045000D01*
X1367000Y-13334750D01*
X1525250Y-13493000D01*
X2998000Y-13493000D01*
X2998000Y-12570250D01*
X3002000Y-12570250D01*
X3002000Y-13493000D01*
X4474750Y-13493000D01*
X4633000Y-13334750D01*
X4636063Y-13045000D01*
X18363937Y-13045000D01*
X18367000Y-13334750D01*
X18525250Y-13493000D01*
X19998000Y-13493000D01*
X19998000Y-12570250D01*
X20002000Y-12570250D01*
X20002000Y-13493000D01*
X21474750Y-13493000D01*
X21633000Y-13334750D01*
X21636063Y-13045000D01*
X21623841Y-12920910D01*
X21587646Y-12801589D01*
X21528867Y-12691622D01*
X21449764Y-12595236D01*
X21353378Y-12516133D01*
X21243411Y-12457354D01*
X21124090Y-12421159D01*
X21000000Y-12408937D01*
X20160250Y-12412000D01*
X20002000Y-12570250D01*
X19998000Y-12570250D01*
X19839750Y-12412000D01*
X19000000Y-12408937D01*
X18875910Y-12421159D01*
X18756589Y-12457354D01*
X18646622Y-12516133D01*
X18550236Y-12595236D01*
X18471133Y-12691622D01*
X18412354Y-12801589D01*
X18376159Y-12920910D01*
X18363937Y-13045000D01*
X4636063Y-13045000D01*
X4623841Y-12920910D01*
X4587646Y-12801589D01*
X4528867Y-12691622D01*
X4449764Y-12595236D01*
X4353378Y-12516133D01*
X4243411Y-12457354D01*
X4124090Y-12421159D01*
X4000000Y-12408937D01*
X3160250Y-12412000D01*
X3002000Y-12570250D01*
X2998000Y-12570250D01*
X2839750Y-12412000D01*
X2000000Y-12408937D01*
X1875910Y-12421159D01*
X1756589Y-12457354D01*
X1646622Y-12516133D01*
X1550236Y-12595236D01*
X1471133Y-12691622D01*
X1412354Y-12801589D01*
X1376159Y-12920910D01*
X1363937Y-13045000D01*
X404000Y-13045000D01*
X404000Y-11875000D01*
X22596000Y-11875000D01*
X22596001Y-39982524D01*
G37*
G04 #@! TD.AperFunction*
D18*
X19153632Y-36066396D02*
X19144167Y-36162500D01*
X19144167Y-36662500D01*
X19156048Y-36783131D01*
X19191235Y-36899126D01*
X19248375Y-37006027D01*
X19325273Y-37099727D01*
X19418973Y-37176625D01*
X19496001Y-37217797D01*
X19496001Y-37616236D01*
X18468070Y-38644167D01*
X18125000Y-38644167D01*
X18011685Y-38655328D01*
X17902725Y-38688380D01*
X17802306Y-38742055D01*
X17714289Y-38814289D01*
X17642055Y-38902306D01*
X17588380Y-39002725D01*
X17555328Y-39111685D01*
X17544167Y-39225000D01*
X17544167Y-39568069D01*
X17455833Y-39656403D01*
X17455833Y-39225000D01*
X17444672Y-39111685D01*
X17411620Y-39002725D01*
X17357945Y-38902306D01*
X17285711Y-38814289D01*
X17197694Y-38742055D01*
X17097275Y-38688380D01*
X16988315Y-38655328D01*
X16875000Y-38644167D01*
X16531930Y-38644167D01*
X16048890Y-38161127D01*
X16033106Y-38141894D01*
X15956362Y-38078912D01*
X15868805Y-38032112D01*
X15773801Y-38003293D01*
X15699754Y-37996000D01*
X15675000Y-37993562D01*
X15650246Y-37996000D01*
X12708763Y-37996000D01*
X12073015Y-37360252D01*
X12065482Y-37322380D01*
X12021836Y-37217008D01*
X11962712Y-37128524D01*
X12003867Y-37078378D01*
X12053142Y-36986192D01*
X12053349Y-36986579D01*
X12100710Y-37044290D01*
X12158421Y-37091651D01*
X12224262Y-37126844D01*
X12295703Y-37148515D01*
X12370000Y-37155833D01*
X13430000Y-37155833D01*
X13504297Y-37148515D01*
X13575738Y-37126844D01*
X13641579Y-37091651D01*
X13699290Y-37044290D01*
X13746651Y-36986579D01*
X13771671Y-36939769D01*
X13843805Y-36917888D01*
X13931362Y-36871088D01*
X14008106Y-36808106D01*
X14023890Y-36788873D01*
X14189167Y-36623596D01*
X14189167Y-36775000D01*
X14196485Y-36849297D01*
X14218156Y-36920738D01*
X14253349Y-36986579D01*
X14300710Y-37044290D01*
X14358421Y-37091651D01*
X14424262Y-37126844D01*
X14495703Y-37148515D01*
X14570000Y-37155833D01*
X15630000Y-37155833D01*
X15704297Y-37148515D01*
X15775738Y-37126844D01*
X15841579Y-37091651D01*
X15899290Y-37044290D01*
X15946651Y-36986579D01*
X15946858Y-36986192D01*
X15996133Y-37078378D01*
X16075236Y-37174764D01*
X16171622Y-37253867D01*
X16281589Y-37312646D01*
X16400910Y-37348841D01*
X16525000Y-37361063D01*
X16839750Y-37358000D01*
X16998000Y-37199750D01*
X16998000Y-36277000D01*
X17002000Y-36277000D01*
X17002000Y-37199750D01*
X17160250Y-37358000D01*
X17475000Y-37361063D01*
X17599090Y-37348841D01*
X17718411Y-37312646D01*
X17828378Y-37253867D01*
X17924764Y-37174764D01*
X18003867Y-37078378D01*
X18062646Y-36968411D01*
X18098841Y-36849090D01*
X18111063Y-36725000D01*
X18108000Y-36435250D01*
X17949750Y-36277000D01*
X17002000Y-36277000D01*
X16998000Y-36277000D01*
X16978000Y-36277000D01*
X16978000Y-36273000D01*
X16998000Y-36273000D01*
X16998000Y-36253000D01*
X17002000Y-36253000D01*
X17002000Y-36273000D01*
X17949750Y-36273000D01*
X18108000Y-36114750D01*
X18108486Y-36068764D01*
X18168888Y-36056750D01*
X18274260Y-36013104D01*
X18369091Y-35949739D01*
X18449739Y-35869091D01*
X18513104Y-35774260D01*
X18556750Y-35668888D01*
X18579000Y-35557027D01*
X18579000Y-35491763D01*
X19153632Y-36066396D01*
G04 #@! TA.AperFunction,Conductor*
D20*
G36*
X19153632Y-36066396D02*
G01*
X19144167Y-36162500D01*
X19144167Y-36662500D01*
X19156048Y-36783131D01*
X19191235Y-36899126D01*
X19248375Y-37006027D01*
X19325273Y-37099727D01*
X19418973Y-37176625D01*
X19496001Y-37217797D01*
X19496001Y-37616236D01*
X18468070Y-38644167D01*
X18125000Y-38644167D01*
X18011685Y-38655328D01*
X17902725Y-38688380D01*
X17802306Y-38742055D01*
X17714289Y-38814289D01*
X17642055Y-38902306D01*
X17588380Y-39002725D01*
X17555328Y-39111685D01*
X17544167Y-39225000D01*
X17544167Y-39568069D01*
X17455833Y-39656403D01*
X17455833Y-39225000D01*
X17444672Y-39111685D01*
X17411620Y-39002725D01*
X17357945Y-38902306D01*
X17285711Y-38814289D01*
X17197694Y-38742055D01*
X17097275Y-38688380D01*
X16988315Y-38655328D01*
X16875000Y-38644167D01*
X16531930Y-38644167D01*
X16048890Y-38161127D01*
X16033106Y-38141894D01*
X15956362Y-38078912D01*
X15868805Y-38032112D01*
X15773801Y-38003293D01*
X15699754Y-37996000D01*
X15675000Y-37993562D01*
X15650246Y-37996000D01*
X12708763Y-37996000D01*
X12073015Y-37360252D01*
X12065482Y-37322380D01*
X12021836Y-37217008D01*
X11962712Y-37128524D01*
X12003867Y-37078378D01*
X12053142Y-36986192D01*
X12053349Y-36986579D01*
X12100710Y-37044290D01*
X12158421Y-37091651D01*
X12224262Y-37126844D01*
X12295703Y-37148515D01*
X12370000Y-37155833D01*
X13430000Y-37155833D01*
X13504297Y-37148515D01*
X13575738Y-37126844D01*
X13641579Y-37091651D01*
X13699290Y-37044290D01*
X13746651Y-36986579D01*
X13771671Y-36939769D01*
X13843805Y-36917888D01*
X13931362Y-36871088D01*
X14008106Y-36808106D01*
X14023890Y-36788873D01*
X14189167Y-36623596D01*
X14189167Y-36775000D01*
X14196485Y-36849297D01*
X14218156Y-36920738D01*
X14253349Y-36986579D01*
X14300710Y-37044290D01*
X14358421Y-37091651D01*
X14424262Y-37126844D01*
X14495703Y-37148515D01*
X14570000Y-37155833D01*
X15630000Y-37155833D01*
X15704297Y-37148515D01*
X15775738Y-37126844D01*
X15841579Y-37091651D01*
X15899290Y-37044290D01*
X15946651Y-36986579D01*
X15946858Y-36986192D01*
X15996133Y-37078378D01*
X16075236Y-37174764D01*
X16171622Y-37253867D01*
X16281589Y-37312646D01*
X16400910Y-37348841D01*
X16525000Y-37361063D01*
X16839750Y-37358000D01*
X16998000Y-37199750D01*
X16998000Y-36277000D01*
X17002000Y-36277000D01*
X17002000Y-37199750D01*
X17160250Y-37358000D01*
X17475000Y-37361063D01*
X17599090Y-37348841D01*
X17718411Y-37312646D01*
X17828378Y-37253867D01*
X17924764Y-37174764D01*
X18003867Y-37078378D01*
X18062646Y-36968411D01*
X18098841Y-36849090D01*
X18111063Y-36725000D01*
X18108000Y-36435250D01*
X17949750Y-36277000D01*
X17002000Y-36277000D01*
X16998000Y-36277000D01*
X16978000Y-36277000D01*
X16978000Y-36273000D01*
X16998000Y-36273000D01*
X16998000Y-36253000D01*
X17002000Y-36253000D01*
X17002000Y-36273000D01*
X17949750Y-36273000D01*
X18108000Y-36114750D01*
X18108486Y-36068764D01*
X18168888Y-36056750D01*
X18274260Y-36013104D01*
X18369091Y-35949739D01*
X18449739Y-35869091D01*
X18513104Y-35774260D01*
X18556750Y-35668888D01*
X18579000Y-35557027D01*
X18579000Y-35491763D01*
X19153632Y-36066396D01*
G37*
G04 #@! TD.AperFunction*
D18*
X11002000Y-36273000D02*
X11022000Y-36273000D01*
X11022000Y-36277000D01*
X11002000Y-36277000D01*
X11002000Y-36297000D01*
X10998000Y-36297000D01*
X10998000Y-36277000D01*
X10978000Y-36277000D01*
X10978000Y-36273000D01*
X10998000Y-36273000D01*
X10998000Y-36253000D01*
X11002000Y-36253000D01*
X11002000Y-36273000D01*
G04 #@! TA.AperFunction,Conductor*
D20*
G36*
X11002000Y-36273000D02*
G01*
X11022000Y-36273000D01*
X11022000Y-36277000D01*
X11002000Y-36277000D01*
X11002000Y-36297000D01*
X10998000Y-36297000D01*
X10998000Y-36277000D01*
X10978000Y-36277000D01*
X10978000Y-36273000D01*
X10998000Y-36273000D01*
X10998000Y-36253000D01*
X11002000Y-36253000D01*
X11002000Y-36273000D01*
G37*
G04 #@! TD.AperFunction*
D18*
X12902000Y-35498000D02*
X12922000Y-35498000D01*
X12922000Y-35502000D01*
X12902000Y-35502000D01*
X12902000Y-35522000D01*
X12898000Y-35522000D01*
X12898000Y-35502000D01*
X12878000Y-35502000D01*
X12878000Y-35498000D01*
X12898000Y-35498000D01*
X12898000Y-35478000D01*
X12902000Y-35478000D01*
X12902000Y-35498000D01*
G04 #@! TA.AperFunction,Conductor*
D20*
G36*
X12902000Y-35498000D02*
G01*
X12922000Y-35498000D01*
X12922000Y-35502000D01*
X12902000Y-35502000D01*
X12902000Y-35522000D01*
X12898000Y-35522000D01*
X12898000Y-35502000D01*
X12878000Y-35502000D01*
X12878000Y-35498000D01*
X12898000Y-35498000D01*
X12898000Y-35478000D01*
X12902000Y-35478000D01*
X12902000Y-35498000D01*
G37*
G04 #@! TD.AperFunction*
M02*
