M48
; DRILL file {KiCad (5.1.10)-1} date 12/13/21 18:57:18
; FORMAT={-:-/ absolute / metric / decimal}
; #@! TF.CreationDate,2021-12-13T18:57:18+09:00
; #@! TF.GenerationSoftware,Kicad,Pcbnew,(5.1.10)-1
; #@! TF.FileFunction,Plated,1,2,PTH
FMAT,2
METRIC
T1C0.300
T2C0.400
T3C0.750
%
G90
G05
T1
X0.8Y-21.3
X0.8Y-22.4
X1.5Y-26.2
X1.6Y-16.0
X5.0Y-19.3
X5.0Y-21.5
X5.1Y-23.7
X5.8Y-25.3
X5.9Y-28.5
X5.975Y-26.5
X6.0Y-15.3
X6.0Y-16.56
X6.525Y-20.0
X6.7Y-2.2
X7.025Y-24.5
X8.3Y-2.2
X8.6Y-15.2
X8.6Y-16.7
X9.0Y-27.5
X9.0Y-35.5
X9.6Y-27.5
X10.8Y-25.6
X11.509Y-37.491
X11.9Y-39.5
X13.7Y-25.8
X13.7Y-27.5
X13.8Y-21.0
X14.1Y-34.6
X14.7Y-2.2
X15.2Y-24.4
X15.8Y-40.7
X16.0Y-17.5
X16.0Y-21.9
X16.3Y-2.2
X17.0Y-38.0
X17.2Y-17.4
X17.2Y-18.5
X17.7Y-23.4
X18.0Y-33.4
X18.0Y-35.5
X21.4Y-30.5
T3
X2.1Y-36.2
X4.1Y-36.2
X6.1Y-36.2
T2
G00X2.175Y-42.5
M15
G01X2.175Y-41.7
M16
G05
G00X5.0Y-42.5
M15
G01X4.4Y-42.5
M16
G05
G00X8.6Y-42.5
M15
G01X8.0Y-42.5
M16
G05
G00X10.825Y-42.5
M15
G01X10.825Y-41.7
M16
G05
T0
M30
