G04 #@! TF.GenerationSoftware,KiCad,Pcbnew,(5.1.10)-1*
G04 #@! TF.CreationDate,2021-10-28T00:27:21+09:00*
G04 #@! TF.ProjectId,cat_toilet,6361745f-746f-4696-9c65-742e6b696361,rev?*
G04 #@! TF.SameCoordinates,Original*
G04 #@! TF.FileFunction,Soldermask,Top*
G04 #@! TF.FilePolarity,Negative*
%FSLAX46Y46*%
G04 Gerber Fmt 4.6, Leading zero omitted, Abs format (unit mm)*
G04 Created by KiCad (PCBNEW (5.1.10)-1) date 2021-10-28 00:27:21*
%MOMM*%
%LPD*%
G01*
G04 APERTURE LIST*
%ADD10O,1.200000X1.750000*%
%ADD11R,1.060000X0.650000*%
%ADD12R,2.000000X0.900000*%
%ADD13R,0.900000X2.000000*%
%ADD14R,5.000000X5.000000*%
%ADD15O,2.000000X1.400000*%
%ADD16O,1.400000X2.200000*%
G04 APERTURE END LIST*
D10*
X2100000Y-36200000D03*
X4100000Y-36200000D03*
G36*
G01*
X6700000Y-35574999D02*
X6700000Y-36825001D01*
G75*
G02*
X6450001Y-37075000I-249999J0D01*
G01*
X5749999Y-37075000D01*
G75*
G02*
X5500000Y-36825001I0J249999D01*
G01*
X5500000Y-35574999D01*
G75*
G02*
X5749999Y-35325000I249999J0D01*
G01*
X6450001Y-35325000D01*
G75*
G02*
X6700000Y-35574999I0J-249999D01*
G01*
G37*
G36*
G01*
X7150000Y-1243750D02*
X7150000Y-1756250D01*
G75*
G02*
X6931250Y-1975000I-218750J0D01*
G01*
X6493750Y-1975000D01*
G75*
G02*
X6275000Y-1756250I0J218750D01*
G01*
X6275000Y-1243750D01*
G75*
G02*
X6493750Y-1025000I218750J0D01*
G01*
X6931250Y-1025000D01*
G75*
G02*
X7150000Y-1243750I0J-218750D01*
G01*
G37*
G36*
G01*
X8725000Y-1243750D02*
X8725000Y-1756250D01*
G75*
G02*
X8506250Y-1975000I-218750J0D01*
G01*
X8068750Y-1975000D01*
G75*
G02*
X7850000Y-1756250I0J218750D01*
G01*
X7850000Y-1243750D01*
G75*
G02*
X8068750Y-1025000I218750J0D01*
G01*
X8506250Y-1025000D01*
G75*
G02*
X8725000Y-1243750I0J-218750D01*
G01*
G37*
D11*
X15100000Y-34550000D03*
X15100000Y-36450000D03*
X12900000Y-36450000D03*
X12900000Y-35500000D03*
X12900000Y-34550000D03*
D12*
X20000000Y-13495000D03*
X20000000Y-14765000D03*
X20000000Y-16035000D03*
X20000000Y-17305000D03*
X20000000Y-18575000D03*
X20000000Y-19845000D03*
X20000000Y-21115000D03*
X20000000Y-22385000D03*
X20000000Y-23655000D03*
X20000000Y-24925000D03*
X20000000Y-26195000D03*
X20000000Y-27465000D03*
X20000000Y-28735000D03*
X20000000Y-30005000D03*
D13*
X17215000Y-31005000D03*
X15945000Y-31005000D03*
X14675000Y-31005000D03*
X13405000Y-31005000D03*
X12135000Y-31005000D03*
X10865000Y-31005000D03*
X9595000Y-31005000D03*
X8325000Y-31005000D03*
X7055000Y-31005000D03*
X5785000Y-31005000D03*
D12*
X3000000Y-30005000D03*
X3000000Y-28735000D03*
X3000000Y-27465000D03*
X3000000Y-26195000D03*
X3000000Y-24925000D03*
X3000000Y-23655000D03*
X3000000Y-22385000D03*
X3000000Y-21115000D03*
X3000000Y-19845000D03*
X3000000Y-18575000D03*
X3000000Y-17305000D03*
X3000000Y-16035000D03*
X3000000Y-14765000D03*
X3000000Y-13495000D03*
D14*
X10500000Y-20995000D03*
D15*
X4700000Y-42500000D03*
X8300000Y-42500000D03*
D16*
X2175000Y-42100000D03*
X10825000Y-42100000D03*
G36*
G01*
X19762500Y-35925000D02*
X20237500Y-35925000D01*
G75*
G02*
X20475000Y-36162500I0J-237500D01*
G01*
X20475000Y-36662500D01*
G75*
G02*
X20237500Y-36900000I-237500J0D01*
G01*
X19762500Y-36900000D01*
G75*
G02*
X19525000Y-36662500I0J237500D01*
G01*
X19525000Y-36162500D01*
G75*
G02*
X19762500Y-35925000I237500J0D01*
G01*
G37*
G36*
G01*
X19762500Y-34100000D02*
X20237500Y-34100000D01*
G75*
G02*
X20475000Y-34337500I0J-237500D01*
G01*
X20475000Y-34837500D01*
G75*
G02*
X20237500Y-35075000I-237500J0D01*
G01*
X19762500Y-35075000D01*
G75*
G02*
X19525000Y-34837500I0J237500D01*
G01*
X19525000Y-34337500D01*
G75*
G02*
X19762500Y-34100000I237500J0D01*
G01*
G37*
G36*
G01*
X15850000Y-1756250D02*
X15850000Y-1243750D01*
G75*
G02*
X16068750Y-1025000I218750J0D01*
G01*
X16506250Y-1025000D01*
G75*
G02*
X16725000Y-1243750I0J-218750D01*
G01*
X16725000Y-1756250D01*
G75*
G02*
X16506250Y-1975000I-218750J0D01*
G01*
X16068750Y-1975000D01*
G75*
G02*
X15850000Y-1756250I0J218750D01*
G01*
G37*
G36*
G01*
X14275000Y-1756250D02*
X14275000Y-1243750D01*
G75*
G02*
X14493750Y-1025000I218750J0D01*
G01*
X14931250Y-1025000D01*
G75*
G02*
X15150000Y-1243750I0J-218750D01*
G01*
X15150000Y-1756250D01*
G75*
G02*
X14931250Y-1975000I-218750J0D01*
G01*
X14493750Y-1975000D01*
G75*
G02*
X14275000Y-1756250I0J218750D01*
G01*
G37*
G36*
G01*
X16750000Y-35825000D02*
X17250000Y-35825000D01*
G75*
G02*
X17475000Y-36050000I0J-225000D01*
G01*
X17475000Y-36500000D01*
G75*
G02*
X17250000Y-36725000I-225000J0D01*
G01*
X16750000Y-36725000D01*
G75*
G02*
X16525000Y-36500000I0J225000D01*
G01*
X16525000Y-36050000D01*
G75*
G02*
X16750000Y-35825000I225000J0D01*
G01*
G37*
G36*
G01*
X16750000Y-34275000D02*
X17250000Y-34275000D01*
G75*
G02*
X17475000Y-34500000I0J-225000D01*
G01*
X17475000Y-34950000D01*
G75*
G02*
X17250000Y-35175000I-225000J0D01*
G01*
X16750000Y-35175000D01*
G75*
G02*
X16525000Y-34950000I0J225000D01*
G01*
X16525000Y-34500000D01*
G75*
G02*
X16750000Y-34275000I225000J0D01*
G01*
G37*
G36*
G01*
X13675000Y-38250000D02*
X13675000Y-38750000D01*
G75*
G02*
X13450000Y-38975000I-225000J0D01*
G01*
X13000000Y-38975000D01*
G75*
G02*
X12775000Y-38750000I0J225000D01*
G01*
X12775000Y-38250000D01*
G75*
G02*
X13000000Y-38025000I225000J0D01*
G01*
X13450000Y-38025000D01*
G75*
G02*
X13675000Y-38250000I0J-225000D01*
G01*
G37*
G36*
G01*
X15225000Y-38250000D02*
X15225000Y-38750000D01*
G75*
G02*
X15000000Y-38975000I-225000J0D01*
G01*
X14550000Y-38975000D01*
G75*
G02*
X14325000Y-38750000I0J225000D01*
G01*
X14325000Y-38250000D01*
G75*
G02*
X14550000Y-38025000I225000J0D01*
G01*
X15000000Y-38025000D01*
G75*
G02*
X15225000Y-38250000I0J-225000D01*
G01*
G37*
G36*
G01*
X10750000Y-35825000D02*
X11250000Y-35825000D01*
G75*
G02*
X11475000Y-36050000I0J-225000D01*
G01*
X11475000Y-36500000D01*
G75*
G02*
X11250000Y-36725000I-225000J0D01*
G01*
X10750000Y-36725000D01*
G75*
G02*
X10525000Y-36500000I0J225000D01*
G01*
X10525000Y-36050000D01*
G75*
G02*
X10750000Y-35825000I225000J0D01*
G01*
G37*
G36*
G01*
X10750000Y-34275000D02*
X11250000Y-34275000D01*
G75*
G02*
X11475000Y-34500000I0J-225000D01*
G01*
X11475000Y-34950000D01*
G75*
G02*
X11250000Y-35175000I-225000J0D01*
G01*
X10750000Y-35175000D01*
G75*
G02*
X10525000Y-34950000I0J225000D01*
G01*
X10525000Y-34500000D01*
G75*
G02*
X10750000Y-34275000I225000J0D01*
G01*
G37*
M02*
