M48
; DRILL file {KiCad (5.1.10)-1} date 08/19/21 16:09:09
; FORMAT={-:-/ absolute / inch / decimal}
; #@! TF.CreationDate,2021-08-19T16:09:09+09:00
; #@! TF.GenerationSoftware,Kicad,Pcbnew,(5.1.10)-1
; #@! TF.FileFunction,Plated,1,2,PTH
FMAT,2
INCH
T1C0.0118
T2C0.0236
T3C0.0295
T4C0.0394
%
G90
G05
T1
X0.4055Y-0.7205
X0.6496Y-0.1732
X0.6496Y-0.2598
X0.6496Y-0.3228
X0.7795Y-1.2598
X0.7874Y-0.5079
X0.8071Y-0.2165
X0.8937Y-0.7087
X0.8937Y-0.8346
X1.0197Y-0.3543
X1.0433Y-0.9528
X1.0433Y-1.2323
X1.0787Y-0.9134
X1.2559Y-0.3543
X1.315Y-0.3543
X1.315Y-0.5276
X1.3937Y-0.5276
T3
X1.2008Y-0.2677
X1.2795Y-0.2677
X1.3583Y-0.2677
T4
X0.1299Y-0.8858
X0.1299Y-0.9858
X0.1299Y-1.0858
X0.1299Y-1.1858
T2
G00X0.0583Y-0.1142
M15
G01X0.0583Y-0.0906
M16
G05
G00X0.0583Y-0.2638
M15
G01X0.0583Y-0.2402
M16
G05
G00X0.3984Y-0.1142
M15
G01X0.3984Y-0.0906
M16
G05
G00X0.3984Y-0.2638
M15
G01X0.3984Y-0.2402
M16
G05
T0
M30
