G04 #@! TF.GenerationSoftware,KiCad,Pcbnew,(5.1.10)-1*
G04 #@! TF.CreationDate,2021-08-19T16:08:58+09:00*
G04 #@! TF.ProjectId,cat_toilet,6361745f-746f-4696-9c65-742e6b696361,rev?*
G04 #@! TF.SameCoordinates,Original*
G04 #@! TF.FileFunction,Legend,Top*
G04 #@! TF.FilePolarity,Positive*
%FSLAX46Y46*%
G04 Gerber Fmt 4.6, Leading zero omitted, Abs format (unit mm)*
G04 Created by KiCad (PCBNEW (5.1.10)-1) date 2021-08-19 16:08:58*
%MOMM*%
%LPD*%
G01*
G04 APERTURE LIST*
%ADD10C,0.120000*%
%ADD11C,0.150000*%
G04 APERTURE END LIST*
D10*
X2546267Y-10210000D02*
X2253733Y-10210000D01*
X2546267Y-9190000D02*
X2253733Y-9190000D01*
X2546267Y-12210000D02*
X2253733Y-12210000D01*
X2546267Y-11190000D02*
X2253733Y-11190000D01*
X28910000Y-11253733D02*
X28910000Y-11546267D01*
X27890000Y-11253733D02*
X27890000Y-11546267D01*
X35153733Y-10810000D02*
X35446267Y-10810000D01*
X35153733Y-9790000D02*
X35446267Y-9790000D01*
X16753733Y-10310000D02*
X17046267Y-10310000D01*
X16753733Y-9290000D02*
X17046267Y-9290000D01*
X30710000Y-25353733D02*
X30710000Y-25646267D01*
X29690000Y-25353733D02*
X29690000Y-25646267D01*
X29590000Y-21053733D02*
X29590000Y-21346267D01*
X30610000Y-21053733D02*
X30610000Y-21346267D01*
X29790000Y-16453733D02*
X29790000Y-16746267D01*
X30810000Y-16453733D02*
X30810000Y-16746267D01*
X13900000Y-12350000D02*
X7000000Y-12350000D01*
X13900000Y-9050000D02*
X7000000Y-9050000D01*
X13900000Y-12350000D02*
X13900000Y-9050000D01*
X12900000Y-2660000D02*
X15760000Y-2660000D01*
X15760000Y-2660000D02*
X15760000Y-740000D01*
X15760000Y-740000D02*
X12900000Y-740000D01*
X31185000Y-30740000D02*
X28325000Y-30740000D01*
X31185000Y-32660000D02*
X31185000Y-30740000D01*
X28325000Y-32660000D02*
X31185000Y-32660000D01*
X19965000Y-390000D02*
X19965000Y-840000D01*
X24435000Y-390000D02*
X19965000Y-390000D01*
X24435000Y-840000D02*
X24435000Y-390000D01*
X19965000Y-4810000D02*
X20915000Y-4810000D01*
X19965000Y-4360000D02*
X19965000Y-4810000D01*
X23485000Y-4810000D02*
X23485000Y-6300000D01*
X24435000Y-4810000D02*
X23485000Y-4810000D01*
X24435000Y-4360000D02*
X24435000Y-4810000D01*
X1970000Y-21170000D02*
X3300000Y-21170000D01*
X1970000Y-22500000D02*
X1970000Y-21170000D01*
X1970000Y-23770000D02*
X4630000Y-23770000D01*
X4630000Y-23770000D02*
X4630000Y-31450000D01*
X1970000Y-23770000D02*
X1970000Y-31450000D01*
X1970000Y-31450000D02*
X4630000Y-31450000D01*
X35360000Y-6660000D02*
X35360000Y-7875000D01*
X35300000Y-2700000D02*
X35300000Y-440000D01*
X34800000Y-2700000D02*
X34800000Y-440000D01*
X30200000Y-4300000D02*
X29200000Y-4300000D01*
X30200000Y-2700000D02*
X30200000Y-4300000D01*
X29200000Y-2700000D02*
X30200000Y-2700000D01*
X29200000Y-4300000D02*
X29200000Y-2700000D01*
X34800000Y-4300000D02*
X35800000Y-4300000D01*
X34800000Y-2700000D02*
X34800000Y-4300000D01*
X35800000Y-2700000D02*
X34800000Y-2700000D01*
X35800000Y-4300000D02*
X35800000Y-2700000D01*
X28440000Y-6660000D02*
X29360000Y-6660000D01*
X36560000Y-6660000D02*
X35640000Y-6660000D01*
X31000000Y-4800000D02*
X31000000Y-440000D01*
X34000000Y-4800000D02*
X31000000Y-4800000D01*
X34000000Y-440000D02*
X34000000Y-4800000D01*
X29360000Y-6660000D02*
X29640000Y-6660000D01*
X29360000Y-8260000D02*
X29360000Y-6660000D01*
X28440000Y-8260000D02*
X29360000Y-8260000D01*
X28440000Y-440000D02*
X28440000Y-8260000D01*
X36560000Y-440000D02*
X28440000Y-440000D01*
X36560000Y-8260000D02*
X36560000Y-440000D01*
X35640000Y-8260000D02*
X36560000Y-8260000D01*
X35640000Y-6660000D02*
X35640000Y-8260000D01*
X35360000Y-6660000D02*
X35640000Y-6660000D01*
X23660000Y-12380000D02*
X22200000Y-12380000D01*
X23660000Y-9220000D02*
X21500000Y-9220000D01*
X23660000Y-9220000D02*
X23660000Y-10150000D01*
X23660000Y-12380000D02*
X23660000Y-11450000D01*
X13645276Y-3177500D02*
X14154724Y-3177500D01*
X13645276Y-4222500D02*
X14154724Y-4222500D01*
X35045276Y-12822500D02*
X35554724Y-12822500D01*
X35045276Y-11777500D02*
X35554724Y-11777500D01*
X16645276Y-12122500D02*
X17154724Y-12122500D01*
X16645276Y-11077500D02*
X17154724Y-11077500D01*
X27777500Y-25754724D02*
X27777500Y-25245276D01*
X28822500Y-25754724D02*
X28822500Y-25245276D01*
X28822500Y-21454724D02*
X28822500Y-20945276D01*
X27777500Y-21454724D02*
X27777500Y-20945276D01*
X20522500Y-10445276D02*
X20522500Y-10954724D01*
X19477500Y-10445276D02*
X19477500Y-10954724D01*
X29145276Y-30122500D02*
X29654724Y-30122500D01*
X29145276Y-29077500D02*
X29654724Y-29077500D01*
X27877500Y-16854724D02*
X27877500Y-16345276D01*
X28922500Y-16854724D02*
X28922500Y-16345276D01*
X34850000Y-25700000D02*
G75*
G03*
X34850000Y-25700000I-450000J0D01*
G01*
X32450000Y-24250000D02*
X32450000Y-27150000D01*
X36350000Y-24250000D02*
X32450000Y-24250000D01*
X36350000Y-27150000D02*
X36350000Y-24250000D01*
X32450000Y-27150000D02*
X36350000Y-27150000D01*
X32450000Y-22350000D02*
X36350000Y-22350000D01*
X36350000Y-22350000D02*
X36350000Y-19450000D01*
X36350000Y-19450000D02*
X32450000Y-19450000D01*
X32450000Y-19450000D02*
X32450000Y-22350000D01*
X34850000Y-20900000D02*
G75*
G03*
X34850000Y-20900000I-450000J0D01*
G01*
X34825000Y-16500000D02*
G75*
G03*
X34825000Y-16500000I-450000J0D01*
G01*
X32425000Y-15050000D02*
X32425000Y-17950000D01*
X36325000Y-15050000D02*
X32425000Y-15050000D01*
X36325000Y-17950000D02*
X36325000Y-15050000D01*
X32425000Y-17950000D02*
X36325000Y-17950000D01*
D11*
X31500000Y-10200000D02*
X32500000Y-10200000D01*
X30500000Y-12400000D02*
X32500000Y-12400000D01*
D10*
X10100000Y-5400000D02*
X10100000Y-3600000D01*
X1500000Y-5400000D02*
X1500000Y-3600000D01*
X10100000Y-1600000D02*
X10100000Y-200000D01*
X1500000Y-1600000D02*
X1500000Y-200000D01*
X7800000Y-1000000D02*
X3800000Y-1000000D01*
X3800000Y-1000000D02*
X3800000Y-1500000D01*
X3800000Y-1500000D02*
X7800000Y-1500000D01*
X7800000Y-1500000D02*
X7800000Y-1000000D01*
X9300000Y-3600000D02*
X9300000Y-1700000D01*
X9300000Y-1700000D02*
X9300000Y-1600000D01*
X2300000Y-3600000D02*
X2300000Y-1600000D01*
X13000000Y-8210000D02*
X15450000Y-8210000D01*
X14800000Y-4990000D02*
X13000000Y-4990000D01*
X25120000Y-34445000D02*
X25500000Y-34445000D01*
X25120000Y-40865000D02*
X25120000Y-34445000D01*
X6880000Y-40865000D02*
X6880000Y-34445000D01*
X25120000Y-40865000D02*
X6880000Y-40865000D01*
X6880000Y-15120000D02*
X7880000Y-15120000D01*
X6880000Y-15900000D02*
X6880000Y-15120000D01*
X25120000Y-15120000D02*
X24120000Y-15120000D01*
X25120000Y-15900000D02*
X25120000Y-15120000D01*
D11*
X933333Y-8657142D02*
X885714Y-8704761D01*
X742857Y-8752380D01*
X647619Y-8752380D01*
X504761Y-8704761D01*
X409523Y-8609523D01*
X361904Y-8514285D01*
X314285Y-8323809D01*
X314285Y-8180952D01*
X361904Y-7990476D01*
X409523Y-7895238D01*
X504761Y-7800000D01*
X647619Y-7752380D01*
X742857Y-7752380D01*
X885714Y-7800000D01*
X933333Y-7847619D01*
X1885714Y-8752380D02*
X1314285Y-8752380D01*
X1600000Y-8752380D02*
X1600000Y-7752380D01*
X1504761Y-7895238D01*
X1409523Y-7990476D01*
X1314285Y-8038095D01*
X2233333Y-13487142D02*
X2185714Y-13534761D01*
X2042857Y-13582380D01*
X1947619Y-13582380D01*
X1804761Y-13534761D01*
X1709523Y-13439523D01*
X1661904Y-13344285D01*
X1614285Y-13153809D01*
X1614285Y-13010952D01*
X1661904Y-12820476D01*
X1709523Y-12725238D01*
X1804761Y-12630000D01*
X1947619Y-12582380D01*
X2042857Y-12582380D01*
X2185714Y-12630000D01*
X2233333Y-12677619D01*
X2614285Y-12677619D02*
X2661904Y-12630000D01*
X2757142Y-12582380D01*
X2995238Y-12582380D01*
X3090476Y-12630000D01*
X3138095Y-12677619D01*
X3185714Y-12772857D01*
X3185714Y-12868095D01*
X3138095Y-13010952D01*
X2566666Y-13582380D01*
X3185714Y-13582380D01*
X27357142Y-11566666D02*
X27404761Y-11614285D01*
X27452380Y-11757142D01*
X27452380Y-11852380D01*
X27404761Y-11995238D01*
X27309523Y-12090476D01*
X27214285Y-12138095D01*
X27023809Y-12185714D01*
X26880952Y-12185714D01*
X26690476Y-12138095D01*
X26595238Y-12090476D01*
X26500000Y-11995238D01*
X26452380Y-11852380D01*
X26452380Y-11757142D01*
X26500000Y-11614285D01*
X26547619Y-11566666D01*
X26452380Y-11233333D02*
X26452380Y-10614285D01*
X26833333Y-10947619D01*
X26833333Y-10804761D01*
X26880952Y-10709523D01*
X26928571Y-10661904D01*
X27023809Y-10614285D01*
X27261904Y-10614285D01*
X27357142Y-10661904D01*
X27404761Y-10709523D01*
X27452380Y-10804761D01*
X27452380Y-11090476D01*
X27404761Y-11185714D01*
X27357142Y-11233333D01*
X36633333Y-9257142D02*
X36585714Y-9304761D01*
X36442857Y-9352380D01*
X36347619Y-9352380D01*
X36204761Y-9304761D01*
X36109523Y-9209523D01*
X36061904Y-9114285D01*
X36014285Y-8923809D01*
X36014285Y-8780952D01*
X36061904Y-8590476D01*
X36109523Y-8495238D01*
X36204761Y-8400000D01*
X36347619Y-8352380D01*
X36442857Y-8352380D01*
X36585714Y-8400000D01*
X36633333Y-8447619D01*
X37490476Y-8685714D02*
X37490476Y-9352380D01*
X37252380Y-8304761D02*
X37014285Y-9019047D01*
X37633333Y-9019047D01*
X16733333Y-8727142D02*
X16685714Y-8774761D01*
X16542857Y-8822380D01*
X16447619Y-8822380D01*
X16304761Y-8774761D01*
X16209523Y-8679523D01*
X16161904Y-8584285D01*
X16114285Y-8393809D01*
X16114285Y-8250952D01*
X16161904Y-8060476D01*
X16209523Y-7965238D01*
X16304761Y-7870000D01*
X16447619Y-7822380D01*
X16542857Y-7822380D01*
X16685714Y-7870000D01*
X16733333Y-7917619D01*
X17638095Y-7822380D02*
X17161904Y-7822380D01*
X17114285Y-8298571D01*
X17161904Y-8250952D01*
X17257142Y-8203333D01*
X17495238Y-8203333D01*
X17590476Y-8250952D01*
X17638095Y-8298571D01*
X17685714Y-8393809D01*
X17685714Y-8631904D01*
X17638095Y-8727142D01*
X17590476Y-8774761D01*
X17495238Y-8822380D01*
X17257142Y-8822380D01*
X17161904Y-8774761D01*
X17114285Y-8727142D01*
X31957142Y-27666666D02*
X32004761Y-27714285D01*
X32052380Y-27857142D01*
X32052380Y-27952380D01*
X32004761Y-28095238D01*
X31909523Y-28190476D01*
X31814285Y-28238095D01*
X31623809Y-28285714D01*
X31480952Y-28285714D01*
X31290476Y-28238095D01*
X31195238Y-28190476D01*
X31100000Y-28095238D01*
X31052380Y-27952380D01*
X31052380Y-27857142D01*
X31100000Y-27714285D01*
X31147619Y-27666666D01*
X31052380Y-26809523D02*
X31052380Y-27000000D01*
X31100000Y-27095238D01*
X31147619Y-27142857D01*
X31290476Y-27238095D01*
X31480952Y-27285714D01*
X31861904Y-27285714D01*
X31957142Y-27238095D01*
X32004761Y-27190476D01*
X32052380Y-27095238D01*
X32052380Y-26904761D01*
X32004761Y-26809523D01*
X31957142Y-26761904D01*
X31861904Y-26714285D01*
X31623809Y-26714285D01*
X31528571Y-26761904D01*
X31480952Y-26809523D01*
X31433333Y-26904761D01*
X31433333Y-27095238D01*
X31480952Y-27190476D01*
X31528571Y-27238095D01*
X31623809Y-27285714D01*
X31887142Y-22766666D02*
X31934761Y-22814285D01*
X31982380Y-22957142D01*
X31982380Y-23052380D01*
X31934761Y-23195238D01*
X31839523Y-23290476D01*
X31744285Y-23338095D01*
X31553809Y-23385714D01*
X31410952Y-23385714D01*
X31220476Y-23338095D01*
X31125238Y-23290476D01*
X31030000Y-23195238D01*
X30982380Y-23052380D01*
X30982380Y-22957142D01*
X31030000Y-22814285D01*
X31077619Y-22766666D01*
X30982380Y-22433333D02*
X30982380Y-21766666D01*
X31982380Y-22195238D01*
X32087142Y-18666666D02*
X32134761Y-18714285D01*
X32182380Y-18857142D01*
X32182380Y-18952380D01*
X32134761Y-19095238D01*
X32039523Y-19190476D01*
X31944285Y-19238095D01*
X31753809Y-19285714D01*
X31610952Y-19285714D01*
X31420476Y-19238095D01*
X31325238Y-19190476D01*
X31230000Y-19095238D01*
X31182380Y-18952380D01*
X31182380Y-18857142D01*
X31230000Y-18714285D01*
X31277619Y-18666666D01*
X31610952Y-18095238D02*
X31563333Y-18190476D01*
X31515714Y-18238095D01*
X31420476Y-18285714D01*
X31372857Y-18285714D01*
X31277619Y-18238095D01*
X31230000Y-18190476D01*
X31182380Y-18095238D01*
X31182380Y-17904761D01*
X31230000Y-17809523D01*
X31277619Y-17761904D01*
X31372857Y-17714285D01*
X31420476Y-17714285D01*
X31515714Y-17761904D01*
X31563333Y-17809523D01*
X31610952Y-17904761D01*
X31610952Y-18095238D01*
X31658571Y-18190476D01*
X31706190Y-18238095D01*
X31801428Y-18285714D01*
X31991904Y-18285714D01*
X32087142Y-18238095D01*
X32134761Y-18190476D01*
X32182380Y-18095238D01*
X32182380Y-17904761D01*
X32134761Y-17809523D01*
X32087142Y-17761904D01*
X31991904Y-17714285D01*
X31801428Y-17714285D01*
X31706190Y-17761904D01*
X31658571Y-17809523D01*
X31610952Y-17904761D01*
X8761904Y-13652380D02*
X8761904Y-12652380D01*
X9000000Y-12652380D01*
X9142857Y-12700000D01*
X9238095Y-12795238D01*
X9285714Y-12890476D01*
X9333333Y-13080952D01*
X9333333Y-13223809D01*
X9285714Y-13414285D01*
X9238095Y-13509523D01*
X9142857Y-13604761D01*
X9000000Y-13652380D01*
X8761904Y-13652380D01*
X10285714Y-13652380D02*
X9714285Y-13652380D01*
X10000000Y-13652380D02*
X10000000Y-12652380D01*
X9904761Y-12795238D01*
X9809523Y-12890476D01*
X9714285Y-12938095D01*
X16061904Y-1552380D02*
X16061904Y-552380D01*
X16300000Y-552380D01*
X16442857Y-600000D01*
X16538095Y-695238D01*
X16585714Y-790476D01*
X16633333Y-980952D01*
X16633333Y-1123809D01*
X16585714Y-1314285D01*
X16538095Y-1409523D01*
X16442857Y-1504761D01*
X16300000Y-1552380D01*
X16061904Y-1552380D01*
X17014285Y-647619D02*
X17061904Y-600000D01*
X17157142Y-552380D01*
X17395238Y-552380D01*
X17490476Y-600000D01*
X17538095Y-647619D01*
X17585714Y-742857D01*
X17585714Y-838095D01*
X17538095Y-980952D01*
X16966666Y-1552380D01*
X17585714Y-1552380D01*
X28586904Y-33802380D02*
X28586904Y-32802380D01*
X28825000Y-32802380D01*
X28967857Y-32850000D01*
X29063095Y-32945238D01*
X29110714Y-33040476D01*
X29158333Y-33230952D01*
X29158333Y-33373809D01*
X29110714Y-33564285D01*
X29063095Y-33659523D01*
X28967857Y-33754761D01*
X28825000Y-33802380D01*
X28586904Y-33802380D01*
X29491666Y-32802380D02*
X30110714Y-32802380D01*
X29777380Y-33183333D01*
X29920238Y-33183333D01*
X30015476Y-33230952D01*
X30063095Y-33278571D01*
X30110714Y-33373809D01*
X30110714Y-33611904D01*
X30063095Y-33707142D01*
X30015476Y-33754761D01*
X29920238Y-33802380D01*
X29634523Y-33802380D01*
X29539285Y-33754761D01*
X29491666Y-33707142D01*
X24266666Y-5052380D02*
X24266666Y-5766666D01*
X24219047Y-5909523D01*
X24123809Y-6004761D01*
X23980952Y-6052380D01*
X23885714Y-6052380D01*
X25266666Y-6052380D02*
X24695238Y-6052380D01*
X24980952Y-6052380D02*
X24980952Y-5052380D01*
X24885714Y-5195238D01*
X24790476Y-5290476D01*
X24695238Y-5338095D01*
X2966666Y-19622380D02*
X2966666Y-20336666D01*
X2919047Y-20479523D01*
X2823809Y-20574761D01*
X2680952Y-20622380D01*
X2585714Y-20622380D01*
X3395238Y-19717619D02*
X3442857Y-19670000D01*
X3538095Y-19622380D01*
X3776190Y-19622380D01*
X3871428Y-19670000D01*
X3919047Y-19717619D01*
X3966666Y-19812857D01*
X3966666Y-19908095D01*
X3919047Y-20050952D01*
X3347619Y-20622380D01*
X3966666Y-20622380D01*
X26966666Y-7452380D02*
X26966666Y-8166666D01*
X26919047Y-8309523D01*
X26823809Y-8404761D01*
X26680952Y-8452380D01*
X26585714Y-8452380D01*
X27347619Y-7452380D02*
X27966666Y-7452380D01*
X27633333Y-7833333D01*
X27776190Y-7833333D01*
X27871428Y-7880952D01*
X27919047Y-7928571D01*
X27966666Y-8023809D01*
X27966666Y-8261904D01*
X27919047Y-8357142D01*
X27871428Y-8404761D01*
X27776190Y-8452380D01*
X27490476Y-8452380D01*
X27395238Y-8404761D01*
X27347619Y-8357142D01*
X22804761Y-8847619D02*
X22709523Y-8800000D01*
X22614285Y-8704761D01*
X22471428Y-8561904D01*
X22376190Y-8514285D01*
X22280952Y-8514285D01*
X22328571Y-8752380D02*
X22233333Y-8704761D01*
X22138095Y-8609523D01*
X22090476Y-8419047D01*
X22090476Y-8085714D01*
X22138095Y-7895238D01*
X22233333Y-7800000D01*
X22328571Y-7752380D01*
X22519047Y-7752380D01*
X22614285Y-7800000D01*
X22709523Y-7895238D01*
X22757142Y-8085714D01*
X22757142Y-8419047D01*
X22709523Y-8609523D01*
X22614285Y-8704761D01*
X22519047Y-8752380D01*
X22328571Y-8752380D01*
X23709523Y-8752380D02*
X23138095Y-8752380D01*
X23423809Y-8752380D02*
X23423809Y-7752380D01*
X23328571Y-7895238D01*
X23233333Y-7990476D01*
X23138095Y-8038095D01*
X16633333Y-3652380D02*
X16300000Y-3176190D01*
X16061904Y-3652380D02*
X16061904Y-2652380D01*
X16442857Y-2652380D01*
X16538095Y-2700000D01*
X16585714Y-2747619D01*
X16633333Y-2842857D01*
X16633333Y-2985714D01*
X16585714Y-3080952D01*
X16538095Y-3128571D01*
X16442857Y-3176190D01*
X16061904Y-3176190D01*
X17585714Y-3652380D02*
X17014285Y-3652380D01*
X17300000Y-3652380D02*
X17300000Y-2652380D01*
X17204761Y-2795238D01*
X17109523Y-2890476D01*
X17014285Y-2938095D01*
X36633333Y-14252380D02*
X36300000Y-13776190D01*
X36061904Y-14252380D02*
X36061904Y-13252380D01*
X36442857Y-13252380D01*
X36538095Y-13300000D01*
X36585714Y-13347619D01*
X36633333Y-13442857D01*
X36633333Y-13585714D01*
X36585714Y-13680952D01*
X36538095Y-13728571D01*
X36442857Y-13776190D01*
X36061904Y-13776190D01*
X37014285Y-13347619D02*
X37061904Y-13300000D01*
X37157142Y-13252380D01*
X37395238Y-13252380D01*
X37490476Y-13300000D01*
X37538095Y-13347619D01*
X37585714Y-13442857D01*
X37585714Y-13538095D01*
X37538095Y-13680952D01*
X36966666Y-14252380D01*
X37585714Y-14252380D01*
X16733333Y-13652380D02*
X16400000Y-13176190D01*
X16161904Y-13652380D02*
X16161904Y-12652380D01*
X16542857Y-12652380D01*
X16638095Y-12700000D01*
X16685714Y-12747619D01*
X16733333Y-12842857D01*
X16733333Y-12985714D01*
X16685714Y-13080952D01*
X16638095Y-13128571D01*
X16542857Y-13176190D01*
X16161904Y-13176190D01*
X17066666Y-12652380D02*
X17685714Y-12652380D01*
X17352380Y-13033333D01*
X17495238Y-13033333D01*
X17590476Y-13080952D01*
X17638095Y-13128571D01*
X17685714Y-13223809D01*
X17685714Y-13461904D01*
X17638095Y-13557142D01*
X17590476Y-13604761D01*
X17495238Y-13652380D01*
X17209523Y-13652380D01*
X17114285Y-13604761D01*
X17066666Y-13557142D01*
X27322380Y-25666666D02*
X26846190Y-26000000D01*
X27322380Y-26238095D02*
X26322380Y-26238095D01*
X26322380Y-25857142D01*
X26370000Y-25761904D01*
X26417619Y-25714285D01*
X26512857Y-25666666D01*
X26655714Y-25666666D01*
X26750952Y-25714285D01*
X26798571Y-25761904D01*
X26846190Y-25857142D01*
X26846190Y-26238095D01*
X26655714Y-24809523D02*
X27322380Y-24809523D01*
X26274761Y-25047619D02*
X26989047Y-25285714D01*
X26989047Y-24666666D01*
X27322380Y-21366666D02*
X26846190Y-21700000D01*
X27322380Y-21938095D02*
X26322380Y-21938095D01*
X26322380Y-21557142D01*
X26370000Y-21461904D01*
X26417619Y-21414285D01*
X26512857Y-21366666D01*
X26655714Y-21366666D01*
X26750952Y-21414285D01*
X26798571Y-21461904D01*
X26846190Y-21557142D01*
X26846190Y-21938095D01*
X26322380Y-20461904D02*
X26322380Y-20938095D01*
X26798571Y-20985714D01*
X26750952Y-20938095D01*
X26703333Y-20842857D01*
X26703333Y-20604761D01*
X26750952Y-20509523D01*
X26798571Y-20461904D01*
X26893809Y-20414285D01*
X27131904Y-20414285D01*
X27227142Y-20461904D01*
X27274761Y-20509523D01*
X27322380Y-20604761D01*
X27322380Y-20842857D01*
X27274761Y-20938095D01*
X27227142Y-20985714D01*
X20452380Y-8266666D02*
X19976190Y-8600000D01*
X20452380Y-8838095D02*
X19452380Y-8838095D01*
X19452380Y-8457142D01*
X19500000Y-8361904D01*
X19547619Y-8314285D01*
X19642857Y-8266666D01*
X19785714Y-8266666D01*
X19880952Y-8314285D01*
X19928571Y-8361904D01*
X19976190Y-8457142D01*
X19976190Y-8838095D01*
X19452380Y-7409523D02*
X19452380Y-7600000D01*
X19500000Y-7695238D01*
X19547619Y-7742857D01*
X19690476Y-7838095D01*
X19880952Y-7885714D01*
X20261904Y-7885714D01*
X20357142Y-7838095D01*
X20404761Y-7790476D01*
X20452380Y-7695238D01*
X20452380Y-7504761D01*
X20404761Y-7409523D01*
X20357142Y-7361904D01*
X20261904Y-7314285D01*
X20023809Y-7314285D01*
X19928571Y-7361904D01*
X19880952Y-7409523D01*
X19833333Y-7504761D01*
X19833333Y-7695238D01*
X19880952Y-7790476D01*
X19928571Y-7838095D01*
X20023809Y-7885714D01*
X29233333Y-28622380D02*
X28900000Y-28146190D01*
X28661904Y-28622380D02*
X28661904Y-27622380D01*
X29042857Y-27622380D01*
X29138095Y-27670000D01*
X29185714Y-27717619D01*
X29233333Y-27812857D01*
X29233333Y-27955714D01*
X29185714Y-28050952D01*
X29138095Y-28098571D01*
X29042857Y-28146190D01*
X28661904Y-28146190D01*
X29566666Y-27622380D02*
X30233333Y-27622380D01*
X29804761Y-28622380D01*
X27422380Y-16766666D02*
X26946190Y-17100000D01*
X27422380Y-17338095D02*
X26422380Y-17338095D01*
X26422380Y-16957142D01*
X26470000Y-16861904D01*
X26517619Y-16814285D01*
X26612857Y-16766666D01*
X26755714Y-16766666D01*
X26850952Y-16814285D01*
X26898571Y-16861904D01*
X26946190Y-16957142D01*
X26946190Y-17338095D01*
X26850952Y-16195238D02*
X26803333Y-16290476D01*
X26755714Y-16338095D01*
X26660476Y-16385714D01*
X26612857Y-16385714D01*
X26517619Y-16338095D01*
X26470000Y-16290476D01*
X26422380Y-16195238D01*
X26422380Y-16004761D01*
X26470000Y-15909523D01*
X26517619Y-15861904D01*
X26612857Y-15814285D01*
X26660476Y-15814285D01*
X26755714Y-15861904D01*
X26803333Y-15909523D01*
X26850952Y-16004761D01*
X26850952Y-16195238D01*
X26898571Y-16290476D01*
X26946190Y-16338095D01*
X27041428Y-16385714D01*
X27231904Y-16385714D01*
X27327142Y-16338095D01*
X27374761Y-16290476D01*
X27422380Y-16195238D01*
X27422380Y-16004761D01*
X27374761Y-15909523D01*
X27327142Y-15861904D01*
X27231904Y-15814285D01*
X27041428Y-15814285D01*
X26946190Y-15861904D01*
X26898571Y-15909523D01*
X26850952Y-16004761D01*
X33066666Y-28504761D02*
X33209523Y-28552380D01*
X33447619Y-28552380D01*
X33542857Y-28504761D01*
X33590476Y-28457142D01*
X33638095Y-28361904D01*
X33638095Y-28266666D01*
X33590476Y-28171428D01*
X33542857Y-28123809D01*
X33447619Y-28076190D01*
X33257142Y-28028571D01*
X33161904Y-27980952D01*
X33114285Y-27933333D01*
X33066666Y-27838095D01*
X33066666Y-27742857D01*
X33114285Y-27647619D01*
X33161904Y-27600000D01*
X33257142Y-27552380D01*
X33495238Y-27552380D01*
X33638095Y-27600000D01*
X33971428Y-27552380D02*
X34209523Y-28552380D01*
X34400000Y-27838095D01*
X34590476Y-28552380D01*
X34828571Y-27552380D01*
X35733333Y-28552380D02*
X35161904Y-28552380D01*
X35447619Y-28552380D02*
X35447619Y-27552380D01*
X35352380Y-27695238D01*
X35257142Y-27790476D01*
X35161904Y-27838095D01*
X33066666Y-23704761D02*
X33209523Y-23752380D01*
X33447619Y-23752380D01*
X33542857Y-23704761D01*
X33590476Y-23657142D01*
X33638095Y-23561904D01*
X33638095Y-23466666D01*
X33590476Y-23371428D01*
X33542857Y-23323809D01*
X33447619Y-23276190D01*
X33257142Y-23228571D01*
X33161904Y-23180952D01*
X33114285Y-23133333D01*
X33066666Y-23038095D01*
X33066666Y-22942857D01*
X33114285Y-22847619D01*
X33161904Y-22800000D01*
X33257142Y-22752380D01*
X33495238Y-22752380D01*
X33638095Y-22800000D01*
X33971428Y-22752380D02*
X34209523Y-23752380D01*
X34400000Y-23038095D01*
X34590476Y-23752380D01*
X34828571Y-22752380D01*
X35161904Y-22847619D02*
X35209523Y-22800000D01*
X35304761Y-22752380D01*
X35542857Y-22752380D01*
X35638095Y-22800000D01*
X35685714Y-22847619D01*
X35733333Y-22942857D01*
X35733333Y-23038095D01*
X35685714Y-23180952D01*
X35114285Y-23752380D01*
X35733333Y-23752380D01*
X33041666Y-19304761D02*
X33184523Y-19352380D01*
X33422619Y-19352380D01*
X33517857Y-19304761D01*
X33565476Y-19257142D01*
X33613095Y-19161904D01*
X33613095Y-19066666D01*
X33565476Y-18971428D01*
X33517857Y-18923809D01*
X33422619Y-18876190D01*
X33232142Y-18828571D01*
X33136904Y-18780952D01*
X33089285Y-18733333D01*
X33041666Y-18638095D01*
X33041666Y-18542857D01*
X33089285Y-18447619D01*
X33136904Y-18400000D01*
X33232142Y-18352380D01*
X33470238Y-18352380D01*
X33613095Y-18400000D01*
X33946428Y-18352380D02*
X34184523Y-19352380D01*
X34375000Y-18638095D01*
X34565476Y-19352380D01*
X34803571Y-18352380D01*
X35089285Y-18352380D02*
X35708333Y-18352380D01*
X35375000Y-18733333D01*
X35517857Y-18733333D01*
X35613095Y-18780952D01*
X35660714Y-18828571D01*
X35708333Y-18923809D01*
X35708333Y-19161904D01*
X35660714Y-19257142D01*
X35613095Y-19304761D01*
X35517857Y-19352380D01*
X35232142Y-19352380D01*
X35136904Y-19304761D01*
X35089285Y-19257142D01*
X30738095Y-12752380D02*
X30738095Y-13561904D01*
X30785714Y-13657142D01*
X30833333Y-13704761D01*
X30928571Y-13752380D01*
X31119047Y-13752380D01*
X31214285Y-13704761D01*
X31261904Y-13657142D01*
X31309523Y-13561904D01*
X31309523Y-12752380D01*
X32309523Y-13752380D02*
X31738095Y-13752380D01*
X32023809Y-13752380D02*
X32023809Y-12752380D01*
X31928571Y-12895238D01*
X31833333Y-12990476D01*
X31738095Y-13038095D01*
X5038095Y-7852380D02*
X5038095Y-8661904D01*
X5085714Y-8757142D01*
X5133333Y-8804761D01*
X5228571Y-8852380D01*
X5419047Y-8852380D01*
X5514285Y-8804761D01*
X5561904Y-8757142D01*
X5609523Y-8661904D01*
X5609523Y-7852380D01*
X6038095Y-7947619D02*
X6085714Y-7900000D01*
X6180952Y-7852380D01*
X6419047Y-7852380D01*
X6514285Y-7900000D01*
X6561904Y-7947619D01*
X6609523Y-8042857D01*
X6609523Y-8138095D01*
X6561904Y-8280952D01*
X5990476Y-8852380D01*
X6609523Y-8852380D01*
X13138095Y-8652380D02*
X13138095Y-9461904D01*
X13185714Y-9557142D01*
X13233333Y-9604761D01*
X13328571Y-9652380D01*
X13519047Y-9652380D01*
X13614285Y-9604761D01*
X13661904Y-9557142D01*
X13709523Y-9461904D01*
X13709523Y-8652380D01*
X14090476Y-8652380D02*
X14709523Y-8652380D01*
X14376190Y-9033333D01*
X14519047Y-9033333D01*
X14614285Y-9080952D01*
X14661904Y-9128571D01*
X14709523Y-9223809D01*
X14709523Y-9461904D01*
X14661904Y-9557142D01*
X14614285Y-9604761D01*
X14519047Y-9652380D01*
X14233333Y-9652380D01*
X14138095Y-9604761D01*
X14090476Y-9557142D01*
X4438095Y-33252380D02*
X4438095Y-34061904D01*
X4485714Y-34157142D01*
X4533333Y-34204761D01*
X4628571Y-34252380D01*
X4819047Y-34252380D01*
X4914285Y-34204761D01*
X4961904Y-34157142D01*
X5009523Y-34061904D01*
X5009523Y-33252380D01*
X5914285Y-33585714D02*
X5914285Y-34252380D01*
X5676190Y-33204761D02*
X5438095Y-33919047D01*
X6057142Y-33919047D01*
M02*
