G04 #@! TF.GenerationSoftware,KiCad,Pcbnew,(5.1.10)-1*
G04 #@! TF.CreationDate,2021-10-28T00:27:21+09:00*
G04 #@! TF.ProjectId,cat_toilet,6361745f-746f-4696-9c65-742e6b696361,rev?*
G04 #@! TF.SameCoordinates,Original*
G04 #@! TF.FileFunction,Soldermask,Bot*
G04 #@! TF.FilePolarity,Negative*
%FSLAX46Y46*%
G04 Gerber Fmt 4.6, Leading zero omitted, Abs format (unit mm)*
G04 Created by KiCad (PCBNEW (5.1.10)-1) date 2021-10-28 00:27:21*
%MOMM*%
%LPD*%
G01*
G04 APERTURE LIST*
%ADD10O,1.200000X1.750000*%
%ADD11R,1.500000X1.500000*%
%ADD12R,0.650000X1.060000*%
%ADD13O,2.000000X1.400000*%
%ADD14O,1.400000X2.200000*%
%ADD15R,0.900000X0.800000*%
%ADD16R,0.900000X1.700000*%
%ADD17R,0.800000X0.900000*%
%ADD18O,1.350000X1.350000*%
%ADD19R,1.350000X1.350000*%
G04 APERTURE END LIST*
D10*
X2100000Y-36200000D03*
X4100000Y-36200000D03*
G36*
G01*
X6700000Y-35574999D02*
X6700000Y-36825001D01*
G75*
G02*
X6450001Y-37075000I-249999J0D01*
G01*
X5749999Y-37075000D01*
G75*
G02*
X5500000Y-36825001I0J249999D01*
G01*
X5500000Y-35574999D01*
G75*
G02*
X5749999Y-35325000I249999J0D01*
G01*
X6450001Y-35325000D01*
G75*
G02*
X6700000Y-35574999I0J-249999D01*
G01*
G37*
D11*
X18500000Y-13500000D03*
X20500000Y-13500000D03*
D12*
X19050000Y-19600000D03*
X20950000Y-19600000D03*
X20950000Y-17400000D03*
X20000000Y-17400000D03*
X19050000Y-17400000D03*
D13*
X4700000Y-42500000D03*
X8300000Y-42500000D03*
D14*
X2175000Y-42100000D03*
X10825000Y-42100000D03*
D15*
X20000000Y-35500000D03*
X18000000Y-34550000D03*
X18000000Y-36450000D03*
D11*
X21000000Y-32000000D03*
X19000000Y-32000000D03*
D16*
X18700000Y-42500000D03*
X15300000Y-42500000D03*
X21200000Y-28500000D03*
X17800000Y-28500000D03*
G36*
G01*
X4425000Y-22775000D02*
X4425000Y-22225000D01*
G75*
G02*
X4625000Y-22025000I200000J0D01*
G01*
X5025000Y-22025000D01*
G75*
G02*
X5225000Y-22225000I0J-200000D01*
G01*
X5225000Y-22775000D01*
G75*
G02*
X5025000Y-22975000I-200000J0D01*
G01*
X4625000Y-22975000D01*
G75*
G02*
X4425000Y-22775000I0J200000D01*
G01*
G37*
G36*
G01*
X2775000Y-22775000D02*
X2775000Y-22225000D01*
G75*
G02*
X2975000Y-22025000I200000J0D01*
G01*
X3375000Y-22025000D01*
G75*
G02*
X3575000Y-22225000I0J-200000D01*
G01*
X3575000Y-22775000D01*
G75*
G02*
X3375000Y-22975000I-200000J0D01*
G01*
X2975000Y-22975000D01*
G75*
G02*
X2775000Y-22775000I0J200000D01*
G01*
G37*
G36*
G01*
X14425000Y-39775000D02*
X14425000Y-39225000D01*
G75*
G02*
X14625000Y-39025000I200000J0D01*
G01*
X15025000Y-39025000D01*
G75*
G02*
X15225000Y-39225000I0J-200000D01*
G01*
X15225000Y-39775000D01*
G75*
G02*
X15025000Y-39975000I-200000J0D01*
G01*
X14625000Y-39975000D01*
G75*
G02*
X14425000Y-39775000I0J200000D01*
G01*
G37*
G36*
G01*
X12775000Y-39775000D02*
X12775000Y-39225000D01*
G75*
G02*
X12975000Y-39025000I200000J0D01*
G01*
X13375000Y-39025000D01*
G75*
G02*
X13575000Y-39225000I0J-200000D01*
G01*
X13575000Y-39775000D01*
G75*
G02*
X13375000Y-39975000I-200000J0D01*
G01*
X12975000Y-39975000D01*
G75*
G02*
X12775000Y-39775000I0J200000D01*
G01*
G37*
G36*
G01*
X3575000Y-12225000D02*
X3575000Y-12775000D01*
G75*
G02*
X3375000Y-12975000I-200000J0D01*
G01*
X2975000Y-12975000D01*
G75*
G02*
X2775000Y-12775000I0J200000D01*
G01*
X2775000Y-12225000D01*
G75*
G02*
X2975000Y-12025000I200000J0D01*
G01*
X3375000Y-12025000D01*
G75*
G02*
X3575000Y-12225000I0J-200000D01*
G01*
G37*
G36*
G01*
X5225000Y-12225000D02*
X5225000Y-12775000D01*
G75*
G02*
X5025000Y-12975000I-200000J0D01*
G01*
X4625000Y-12975000D01*
G75*
G02*
X4425000Y-12775000I0J200000D01*
G01*
X4425000Y-12225000D01*
G75*
G02*
X4625000Y-12025000I200000J0D01*
G01*
X5025000Y-12025000D01*
G75*
G02*
X5225000Y-12225000I0J-200000D01*
G01*
G37*
G36*
G01*
X3575000Y-30225000D02*
X3575000Y-30775000D01*
G75*
G02*
X3375000Y-30975000I-200000J0D01*
G01*
X2975000Y-30975000D01*
G75*
G02*
X2775000Y-30775000I0J200000D01*
G01*
X2775000Y-30225000D01*
G75*
G02*
X2975000Y-30025000I200000J0D01*
G01*
X3375000Y-30025000D01*
G75*
G02*
X3575000Y-30225000I0J-200000D01*
G01*
G37*
G36*
G01*
X5225000Y-30225000D02*
X5225000Y-30775000D01*
G75*
G02*
X5025000Y-30975000I-200000J0D01*
G01*
X4625000Y-30975000D01*
G75*
G02*
X4425000Y-30775000I0J200000D01*
G01*
X4425000Y-30225000D01*
G75*
G02*
X4625000Y-30025000I200000J0D01*
G01*
X5025000Y-30025000D01*
G75*
G02*
X5225000Y-30225000I0J-200000D01*
G01*
G37*
G36*
G01*
X20425000Y-23775000D02*
X20425000Y-23225000D01*
G75*
G02*
X20625000Y-23025000I200000J0D01*
G01*
X21025000Y-23025000D01*
G75*
G02*
X21225000Y-23225000I0J-200000D01*
G01*
X21225000Y-23775000D01*
G75*
G02*
X21025000Y-23975000I-200000J0D01*
G01*
X20625000Y-23975000D01*
G75*
G02*
X20425000Y-23775000I0J200000D01*
G01*
G37*
G36*
G01*
X18775000Y-23775000D02*
X18775000Y-23225000D01*
G75*
G02*
X18975000Y-23025000I200000J0D01*
G01*
X19375000Y-23025000D01*
G75*
G02*
X19575000Y-23225000I0J-200000D01*
G01*
X19575000Y-23775000D01*
G75*
G02*
X19375000Y-23975000I-200000J0D01*
G01*
X18975000Y-23975000D01*
G75*
G02*
X18775000Y-23775000I0J200000D01*
G01*
G37*
G36*
G01*
X20425000Y-21775000D02*
X20425000Y-21225000D01*
G75*
G02*
X20625000Y-21025000I200000J0D01*
G01*
X21025000Y-21025000D01*
G75*
G02*
X21225000Y-21225000I0J-200000D01*
G01*
X21225000Y-21775000D01*
G75*
G02*
X21025000Y-21975000I-200000J0D01*
G01*
X20625000Y-21975000D01*
G75*
G02*
X20425000Y-21775000I0J200000D01*
G01*
G37*
G36*
G01*
X18775000Y-21775000D02*
X18775000Y-21225000D01*
G75*
G02*
X18975000Y-21025000I200000J0D01*
G01*
X19375000Y-21025000D01*
G75*
G02*
X19575000Y-21225000I0J-200000D01*
G01*
X19575000Y-21775000D01*
G75*
G02*
X19375000Y-21975000I-200000J0D01*
G01*
X18975000Y-21975000D01*
G75*
G02*
X18775000Y-21775000I0J200000D01*
G01*
G37*
G36*
G01*
X3575000Y-28225000D02*
X3575000Y-28775000D01*
G75*
G02*
X3375000Y-28975000I-200000J0D01*
G01*
X2975000Y-28975000D01*
G75*
G02*
X2775000Y-28775000I0J200000D01*
G01*
X2775000Y-28225000D01*
G75*
G02*
X2975000Y-28025000I200000J0D01*
G01*
X3375000Y-28025000D01*
G75*
G02*
X3575000Y-28225000I0J-200000D01*
G01*
G37*
G36*
G01*
X5225000Y-28225000D02*
X5225000Y-28775000D01*
G75*
G02*
X5025000Y-28975000I-200000J0D01*
G01*
X4625000Y-28975000D01*
G75*
G02*
X4425000Y-28775000I0J200000D01*
G01*
X4425000Y-28225000D01*
G75*
G02*
X4625000Y-28025000I200000J0D01*
G01*
X5025000Y-28025000D01*
G75*
G02*
X5225000Y-28225000I0J-200000D01*
G01*
G37*
G36*
G01*
X4425000Y-16775000D02*
X4425000Y-16225000D01*
G75*
G02*
X4625000Y-16025000I200000J0D01*
G01*
X5025000Y-16025000D01*
G75*
G02*
X5225000Y-16225000I0J-200000D01*
G01*
X5225000Y-16775000D01*
G75*
G02*
X5025000Y-16975000I-200000J0D01*
G01*
X4625000Y-16975000D01*
G75*
G02*
X4425000Y-16775000I0J200000D01*
G01*
G37*
G36*
G01*
X2775000Y-16775000D02*
X2775000Y-16225000D01*
G75*
G02*
X2975000Y-16025000I200000J0D01*
G01*
X3375000Y-16025000D01*
G75*
G02*
X3575000Y-16225000I0J-200000D01*
G01*
X3575000Y-16775000D01*
G75*
G02*
X3375000Y-16975000I-200000J0D01*
G01*
X2975000Y-16975000D01*
G75*
G02*
X2775000Y-16775000I0J200000D01*
G01*
G37*
D17*
X4000000Y-18500000D03*
X3050000Y-20500000D03*
X4950000Y-20500000D03*
X4000000Y-24500000D03*
X3050000Y-26500000D03*
X4950000Y-26500000D03*
X4000000Y-34500000D03*
X4950000Y-32500000D03*
X3050000Y-32500000D03*
D18*
X14500000Y-16500000D03*
X14500000Y-18500000D03*
X14500000Y-20500000D03*
D19*
X14500000Y-22500000D03*
G36*
G01*
X4325000Y-14750000D02*
X4325000Y-14250000D01*
G75*
G02*
X4550000Y-14025000I225000J0D01*
G01*
X5000000Y-14025000D01*
G75*
G02*
X5225000Y-14250000I0J-225000D01*
G01*
X5225000Y-14750000D01*
G75*
G02*
X5000000Y-14975000I-225000J0D01*
G01*
X4550000Y-14975000D01*
G75*
G02*
X4325000Y-14750000I0J225000D01*
G01*
G37*
G36*
G01*
X2775000Y-14750000D02*
X2775000Y-14250000D01*
G75*
G02*
X3000000Y-14025000I225000J0D01*
G01*
X3450000Y-14025000D01*
G75*
G02*
X3675000Y-14250000I0J-225000D01*
G01*
X3675000Y-14750000D01*
G75*
G02*
X3450000Y-14975000I-225000J0D01*
G01*
X3000000Y-14975000D01*
G75*
G02*
X2775000Y-14750000I0J225000D01*
G01*
G37*
G36*
G01*
X17825000Y-39750000D02*
X17825000Y-39250000D01*
G75*
G02*
X18050000Y-39025000I225000J0D01*
G01*
X18500000Y-39025000D01*
G75*
G02*
X18725000Y-39250000I0J-225000D01*
G01*
X18725000Y-39750000D01*
G75*
G02*
X18500000Y-39975000I-225000J0D01*
G01*
X18050000Y-39975000D01*
G75*
G02*
X17825000Y-39750000I0J225000D01*
G01*
G37*
G36*
G01*
X16275000Y-39750000D02*
X16275000Y-39250000D01*
G75*
G02*
X16500000Y-39025000I225000J0D01*
G01*
X16950000Y-39025000D01*
G75*
G02*
X17175000Y-39250000I0J-225000D01*
G01*
X17175000Y-39750000D01*
G75*
G02*
X16950000Y-39975000I-225000J0D01*
G01*
X16500000Y-39975000D01*
G75*
G02*
X16275000Y-39750000I0J225000D01*
G01*
G37*
G36*
G01*
X19675000Y-25250000D02*
X19675000Y-25750000D01*
G75*
G02*
X19450000Y-25975000I-225000J0D01*
G01*
X19000000Y-25975000D01*
G75*
G02*
X18775000Y-25750000I0J225000D01*
G01*
X18775000Y-25250000D01*
G75*
G02*
X19000000Y-25025000I225000J0D01*
G01*
X19450000Y-25025000D01*
G75*
G02*
X19675000Y-25250000I0J-225000D01*
G01*
G37*
G36*
G01*
X21225000Y-25250000D02*
X21225000Y-25750000D01*
G75*
G02*
X21000000Y-25975000I-225000J0D01*
G01*
X20550000Y-25975000D01*
G75*
G02*
X20325000Y-25750000I0J225000D01*
G01*
X20325000Y-25250000D01*
G75*
G02*
X20550000Y-25025000I225000J0D01*
G01*
X21000000Y-25025000D01*
G75*
G02*
X21225000Y-25250000I0J-225000D01*
G01*
G37*
G36*
G01*
X19675000Y-15250000D02*
X19675000Y-15750000D01*
G75*
G02*
X19450000Y-15975000I-225000J0D01*
G01*
X19000000Y-15975000D01*
G75*
G02*
X18775000Y-15750000I0J225000D01*
G01*
X18775000Y-15250000D01*
G75*
G02*
X19000000Y-15025000I225000J0D01*
G01*
X19450000Y-15025000D01*
G75*
G02*
X19675000Y-15250000I0J-225000D01*
G01*
G37*
G36*
G01*
X21225000Y-15250000D02*
X21225000Y-15750000D01*
G75*
G02*
X21000000Y-15975000I-225000J0D01*
G01*
X20550000Y-15975000D01*
G75*
G02*
X20325000Y-15750000I0J225000D01*
G01*
X20325000Y-15250000D01*
G75*
G02*
X20550000Y-15025000I225000J0D01*
G01*
X21000000Y-15025000D01*
G75*
G02*
X21225000Y-15250000I0J-225000D01*
G01*
G37*
G36*
G01*
X7325000Y-39750000D02*
X7325000Y-39250000D01*
G75*
G02*
X7550000Y-39025000I225000J0D01*
G01*
X8000000Y-39025000D01*
G75*
G02*
X8225000Y-39250000I0J-225000D01*
G01*
X8225000Y-39750000D01*
G75*
G02*
X8000000Y-39975000I-225000J0D01*
G01*
X7550000Y-39975000D01*
G75*
G02*
X7325000Y-39750000I0J225000D01*
G01*
G37*
G36*
G01*
X5775000Y-39750000D02*
X5775000Y-39250000D01*
G75*
G02*
X6000000Y-39025000I225000J0D01*
G01*
X6450000Y-39025000D01*
G75*
G02*
X6675000Y-39250000I0J-225000D01*
G01*
X6675000Y-39750000D01*
G75*
G02*
X6450000Y-39975000I-225000J0D01*
G01*
X6000000Y-39975000D01*
G75*
G02*
X5775000Y-39750000I0J225000D01*
G01*
G37*
G36*
G01*
X6325000Y-45750000D02*
X6325000Y-45250000D01*
G75*
G02*
X6550000Y-45025000I225000J0D01*
G01*
X7000000Y-45025000D01*
G75*
G02*
X7225000Y-45250000I0J-225000D01*
G01*
X7225000Y-45750000D01*
G75*
G02*
X7000000Y-45975000I-225000J0D01*
G01*
X6550000Y-45975000D01*
G75*
G02*
X6325000Y-45750000I0J225000D01*
G01*
G37*
G36*
G01*
X4775000Y-45750000D02*
X4775000Y-45250000D01*
G75*
G02*
X5000000Y-45025000I225000J0D01*
G01*
X5450000Y-45025000D01*
G75*
G02*
X5675000Y-45250000I0J-225000D01*
G01*
X5675000Y-45750000D01*
G75*
G02*
X5450000Y-45975000I-225000J0D01*
G01*
X5000000Y-45975000D01*
G75*
G02*
X4775000Y-45750000I0J225000D01*
G01*
G37*
M02*
