G04 #@! TF.GenerationSoftware,KiCad,Pcbnew,(5.1.10)-1*
G04 #@! TF.CreationDate,2021-08-19T16:08:58+09:00*
G04 #@! TF.ProjectId,cat_toilet,6361745f-746f-4696-9c65-742e6b696361,rev?*
G04 #@! TF.SameCoordinates,Original*
G04 #@! TF.FileFunction,Copper,L2,Bot*
G04 #@! TF.FilePolarity,Positive*
%FSLAX46Y46*%
G04 Gerber Fmt 4.6, Leading zero omitted, Abs format (unit mm)*
G04 Created by KiCad (PCBNEW (5.1.10)-1) date 2021-08-19 16:08:58*
%MOMM*%
%LPD*%
G01*
G04 APERTURE LIST*
G04 #@! TA.AperFunction,ComponentPad*
%ADD10R,1.700000X1.700000*%
G04 #@! TD*
G04 #@! TA.AperFunction,ComponentPad*
%ADD11O,1.700000X1.700000*%
G04 #@! TD*
G04 #@! TA.AperFunction,ComponentPad*
%ADD12O,1.200000X1.750000*%
G04 #@! TD*
G04 #@! TA.AperFunction,ComponentPad*
%ADD13O,1.100000X1.700000*%
G04 #@! TD*
G04 #@! TA.AperFunction,ViaPad*
%ADD14C,0.800000*%
G04 #@! TD*
G04 #@! TA.AperFunction,Conductor*
%ADD15C,0.250000*%
G04 #@! TD*
G04 #@! TA.AperFunction,Conductor*
%ADD16C,0.254000*%
G04 #@! TD*
G04 #@! TA.AperFunction,Conductor*
%ADD17C,0.100000*%
G04 #@! TD*
G04 APERTURE END LIST*
D10*
X3300000Y-22500000D03*
D11*
X3300000Y-25040000D03*
X3300000Y-27580000D03*
X3300000Y-30120000D03*
G04 #@! TA.AperFunction,ComponentPad*
G36*
G01*
X35100000Y-6174999D02*
X35100000Y-7425001D01*
G75*
G02*
X34850001Y-7675000I-249999J0D01*
G01*
X34149999Y-7675000D01*
G75*
G02*
X33900000Y-7425001I0J249999D01*
G01*
X33900000Y-6174999D01*
G75*
G02*
X34149999Y-5925000I249999J0D01*
G01*
X34850001Y-5925000D01*
G75*
G02*
X35100000Y-6174999I0J-249999D01*
G01*
G37*
G04 #@! TD.AperFunction*
D12*
X32500000Y-6800000D03*
X30500000Y-6800000D03*
D13*
X1480000Y-6400000D03*
X10120000Y-6400000D03*
X1480000Y-2600000D03*
X10120000Y-2600000D03*
D14*
X16500000Y-6600000D03*
X20500000Y-5500000D03*
X19800000Y-32000000D03*
X26500000Y-24200000D03*
X26500000Y-31300000D03*
X33400000Y-9000000D03*
X22700000Y-18000000D03*
X25900000Y-9000000D03*
X31900000Y-9000000D03*
X16500000Y-8200000D03*
X16500000Y-4400000D03*
X35400000Y-13400000D03*
X33400000Y-13400000D03*
X27400000Y-23200000D03*
X10300000Y-18300000D03*
X22700000Y-21200000D03*
X20000000Y-12900000D03*
D15*
X16500000Y-6600000D02*
X16900000Y-6600000D01*
X20500000Y-5500000D02*
X20000000Y-5500000D01*
X10300000Y-22500000D02*
X19800000Y-32000000D01*
X10300000Y-22500000D02*
X3300000Y-22500000D01*
X26500000Y-24200000D02*
X26500000Y-31300000D01*
X22700000Y-18000000D02*
X25300000Y-15400000D01*
X27000000Y-15400000D02*
X33400000Y-9000000D01*
X25300000Y-15400000D02*
X27000000Y-15400000D01*
X25900000Y-9000000D02*
X31900000Y-9000000D01*
X17700000Y-7000000D02*
X16500000Y-8200000D01*
X17700000Y-5600000D02*
X17700000Y-7000000D01*
X16500000Y-4400000D02*
X17700000Y-5600000D01*
X33400000Y-13400000D02*
X35400000Y-13400000D01*
X15200000Y-23200000D02*
X27400000Y-23200000D01*
X10300000Y-18300000D02*
X15200000Y-23200000D01*
X20000000Y-18500000D02*
X22700000Y-21200000D01*
X20000000Y-12900000D02*
X20000000Y-18500000D01*
D16*
X37065424Y-669580D02*
X37128356Y-688580D01*
X37186405Y-719445D01*
X37237343Y-760989D01*
X37279248Y-811644D01*
X37310515Y-869471D01*
X37329956Y-932272D01*
X37340000Y-1027835D01*
X37340001Y-33967711D01*
X37330420Y-34065424D01*
X37311420Y-34128357D01*
X37280554Y-34186406D01*
X37239011Y-34237343D01*
X37188356Y-34279248D01*
X37130529Y-34310515D01*
X37067728Y-34329956D01*
X36972165Y-34340000D01*
X1032279Y-34340000D01*
X934576Y-34330420D01*
X871643Y-34311420D01*
X813594Y-34280554D01*
X762657Y-34239011D01*
X720752Y-34188356D01*
X689485Y-34130529D01*
X670044Y-34067728D01*
X660000Y-33972165D01*
X660000Y-27433740D01*
X1815000Y-27433740D01*
X1815000Y-27726260D01*
X1872068Y-28013158D01*
X1984010Y-28283411D01*
X2146525Y-28526632D01*
X2353368Y-28733475D01*
X2527760Y-28850000D01*
X2353368Y-28966525D01*
X2146525Y-29173368D01*
X1984010Y-29416589D01*
X1872068Y-29686842D01*
X1815000Y-29973740D01*
X1815000Y-30266260D01*
X1872068Y-30553158D01*
X1984010Y-30823411D01*
X2146525Y-31066632D01*
X2353368Y-31273475D01*
X2596589Y-31435990D01*
X2866842Y-31547932D01*
X3153740Y-31605000D01*
X3446260Y-31605000D01*
X3733158Y-31547932D01*
X4003411Y-31435990D01*
X4246632Y-31273475D01*
X4453475Y-31066632D01*
X4615990Y-30823411D01*
X4727932Y-30553158D01*
X4785000Y-30266260D01*
X4785000Y-29973740D01*
X4727932Y-29686842D01*
X4615990Y-29416589D01*
X4453475Y-29173368D01*
X4246632Y-28966525D01*
X4072240Y-28850000D01*
X4246632Y-28733475D01*
X4453475Y-28526632D01*
X4615990Y-28283411D01*
X4727932Y-28013158D01*
X4785000Y-27726260D01*
X4785000Y-27433740D01*
X4727932Y-27146842D01*
X4615990Y-26876589D01*
X4453475Y-26633368D01*
X4246632Y-26426525D01*
X4064466Y-26304805D01*
X4181355Y-26235178D01*
X4397588Y-26040269D01*
X4571641Y-25806920D01*
X4696825Y-25544099D01*
X4741476Y-25396890D01*
X4620155Y-25167000D01*
X3427000Y-25167000D01*
X3427000Y-25187000D01*
X3173000Y-25187000D01*
X3173000Y-25167000D01*
X1979845Y-25167000D01*
X1858524Y-25396890D01*
X1903175Y-25544099D01*
X2028359Y-25806920D01*
X2202412Y-26040269D01*
X2418645Y-26235178D01*
X2535534Y-26304805D01*
X2353368Y-26426525D01*
X2146525Y-26633368D01*
X1984010Y-26876589D01*
X1872068Y-27146842D01*
X1815000Y-27433740D01*
X660000Y-27433740D01*
X660000Y-21650000D01*
X1811928Y-21650000D01*
X1811928Y-23350000D01*
X1824188Y-23474482D01*
X1860498Y-23594180D01*
X1919463Y-23704494D01*
X1998815Y-23801185D01*
X2095506Y-23880537D01*
X2205820Y-23939502D01*
X2286466Y-23963966D01*
X2202412Y-24039731D01*
X2028359Y-24273080D01*
X1903175Y-24535901D01*
X1858524Y-24683110D01*
X1979845Y-24913000D01*
X3173000Y-24913000D01*
X3173000Y-24893000D01*
X3427000Y-24893000D01*
X3427000Y-24913000D01*
X4620155Y-24913000D01*
X4741476Y-24683110D01*
X4696825Y-24535901D01*
X4571641Y-24273080D01*
X4397588Y-24039731D01*
X4313534Y-23963966D01*
X4394180Y-23939502D01*
X4504494Y-23880537D01*
X4601185Y-23801185D01*
X4680537Y-23704494D01*
X4739502Y-23594180D01*
X4775812Y-23474482D01*
X4788072Y-23350000D01*
X4788072Y-23260000D01*
X9985199Y-23260000D01*
X18765000Y-32039802D01*
X18765000Y-32101939D01*
X18804774Y-32301898D01*
X18882795Y-32490256D01*
X18996063Y-32659774D01*
X19140226Y-32803937D01*
X19309744Y-32917205D01*
X19498102Y-32995226D01*
X19698061Y-33035000D01*
X19901939Y-33035000D01*
X20101898Y-32995226D01*
X20290256Y-32917205D01*
X20459774Y-32803937D01*
X20603937Y-32659774D01*
X20717205Y-32490256D01*
X20795226Y-32301898D01*
X20835000Y-32101939D01*
X20835000Y-31898061D01*
X20795226Y-31698102D01*
X20717205Y-31509744D01*
X20603937Y-31340226D01*
X20459774Y-31196063D01*
X20290256Y-31082795D01*
X20101898Y-31004774D01*
X19901939Y-30965000D01*
X19839802Y-30965000D01*
X10863804Y-21989003D01*
X10840001Y-21959999D01*
X10724276Y-21865026D01*
X10592247Y-21794454D01*
X10448986Y-21750997D01*
X10337333Y-21740000D01*
X10337322Y-21740000D01*
X10300000Y-21736324D01*
X10262678Y-21740000D01*
X4788072Y-21740000D01*
X4788072Y-21650000D01*
X4775812Y-21525518D01*
X4739502Y-21405820D01*
X4680537Y-21295506D01*
X4601185Y-21198815D01*
X4504494Y-21119463D01*
X4394180Y-21060498D01*
X4274482Y-21024188D01*
X4150000Y-21011928D01*
X2450000Y-21011928D01*
X2325518Y-21024188D01*
X2205820Y-21060498D01*
X2095506Y-21119463D01*
X1998815Y-21198815D01*
X1919463Y-21295506D01*
X1860498Y-21405820D01*
X1824188Y-21525518D01*
X1811928Y-21650000D01*
X660000Y-21650000D01*
X660000Y-18198061D01*
X9265000Y-18198061D01*
X9265000Y-18401939D01*
X9304774Y-18601898D01*
X9382795Y-18790256D01*
X9496063Y-18959774D01*
X9640226Y-19103937D01*
X9809744Y-19217205D01*
X9998102Y-19295226D01*
X10198061Y-19335000D01*
X10260199Y-19335000D01*
X14636205Y-23711008D01*
X14659999Y-23740001D01*
X14688992Y-23763795D01*
X14688996Y-23763799D01*
X14734552Y-23801185D01*
X14775724Y-23834974D01*
X14907753Y-23905546D01*
X15051014Y-23949003D01*
X15162667Y-23960000D01*
X15162676Y-23960000D01*
X15199999Y-23963676D01*
X15237322Y-23960000D01*
X25492462Y-23960000D01*
X25465000Y-24098061D01*
X25465000Y-24301939D01*
X25504774Y-24501898D01*
X25582795Y-24690256D01*
X25696063Y-24859774D01*
X25740000Y-24903711D01*
X25740001Y-30596288D01*
X25696063Y-30640226D01*
X25582795Y-30809744D01*
X25504774Y-30998102D01*
X25465000Y-31198061D01*
X25465000Y-31401939D01*
X25504774Y-31601898D01*
X25582795Y-31790256D01*
X25696063Y-31959774D01*
X25840226Y-32103937D01*
X26009744Y-32217205D01*
X26198102Y-32295226D01*
X26398061Y-32335000D01*
X26601939Y-32335000D01*
X26801898Y-32295226D01*
X26990256Y-32217205D01*
X27159774Y-32103937D01*
X27303937Y-31959774D01*
X27417205Y-31790256D01*
X27495226Y-31601898D01*
X27535000Y-31401939D01*
X27535000Y-31198061D01*
X27495226Y-30998102D01*
X27417205Y-30809744D01*
X27303937Y-30640226D01*
X27260000Y-30596289D01*
X27260000Y-24903711D01*
X27303937Y-24859774D01*
X27405408Y-24707911D01*
X33465000Y-24707911D01*
X33465000Y-24892089D01*
X33500932Y-25072729D01*
X33571414Y-25242889D01*
X33673738Y-25396028D01*
X33803972Y-25526262D01*
X33957111Y-25628586D01*
X34127271Y-25699068D01*
X34131956Y-25700000D01*
X34127271Y-25700932D01*
X33957111Y-25771414D01*
X33803972Y-25873738D01*
X33673738Y-26003972D01*
X33571414Y-26157111D01*
X33500932Y-26327271D01*
X33465000Y-26507911D01*
X33465000Y-26692089D01*
X33500932Y-26872729D01*
X33571414Y-27042889D01*
X33673738Y-27196028D01*
X33803972Y-27326262D01*
X33957111Y-27428586D01*
X34127271Y-27499068D01*
X34307911Y-27535000D01*
X34492089Y-27535000D01*
X34672729Y-27499068D01*
X34842889Y-27428586D01*
X34996028Y-27326262D01*
X35126262Y-27196028D01*
X35228586Y-27042889D01*
X35299068Y-26872729D01*
X35335000Y-26692089D01*
X35335000Y-26507911D01*
X35299068Y-26327271D01*
X35228586Y-26157111D01*
X35126262Y-26003972D01*
X34996028Y-25873738D01*
X34842889Y-25771414D01*
X34672729Y-25700932D01*
X34668044Y-25700000D01*
X34672729Y-25699068D01*
X34842889Y-25628586D01*
X34996028Y-25526262D01*
X35126262Y-25396028D01*
X35228586Y-25242889D01*
X35299068Y-25072729D01*
X35335000Y-24892089D01*
X35335000Y-24707911D01*
X35299068Y-24527271D01*
X35228586Y-24357111D01*
X35126262Y-24203972D01*
X34996028Y-24073738D01*
X34842889Y-23971414D01*
X34672729Y-23900932D01*
X34492089Y-23865000D01*
X34307911Y-23865000D01*
X34127271Y-23900932D01*
X33957111Y-23971414D01*
X33803972Y-24073738D01*
X33673738Y-24203972D01*
X33571414Y-24357111D01*
X33500932Y-24527271D01*
X33465000Y-24707911D01*
X27405408Y-24707911D01*
X27417205Y-24690256D01*
X27495226Y-24501898D01*
X27535000Y-24301939D01*
X27535000Y-24228424D01*
X27701898Y-24195226D01*
X27890256Y-24117205D01*
X28059774Y-24003937D01*
X28203937Y-23859774D01*
X28317205Y-23690256D01*
X28395226Y-23501898D01*
X28435000Y-23301939D01*
X28435000Y-23098061D01*
X28395226Y-22898102D01*
X28317205Y-22709744D01*
X28203937Y-22540226D01*
X28059774Y-22396063D01*
X27890256Y-22282795D01*
X27701898Y-22204774D01*
X27501939Y-22165000D01*
X27298061Y-22165000D01*
X27098102Y-22204774D01*
X26909744Y-22282795D01*
X26740226Y-22396063D01*
X26696289Y-22440000D01*
X15514803Y-22440000D01*
X11335000Y-18260199D01*
X11335000Y-18198061D01*
X11295226Y-17998102D01*
X11217205Y-17809744D01*
X11103937Y-17640226D01*
X10959774Y-17496063D01*
X10790256Y-17382795D01*
X10601898Y-17304774D01*
X10401939Y-17265000D01*
X10198061Y-17265000D01*
X9998102Y-17304774D01*
X9809744Y-17382795D01*
X9640226Y-17496063D01*
X9496063Y-17640226D01*
X9382795Y-17809744D01*
X9304774Y-17998102D01*
X9265000Y-18198061D01*
X660000Y-18198061D01*
X660000Y-12798061D01*
X18965000Y-12798061D01*
X18965000Y-13001939D01*
X19004774Y-13201898D01*
X19082795Y-13390256D01*
X19196063Y-13559774D01*
X19240000Y-13603711D01*
X19240001Y-18462668D01*
X19236324Y-18500000D01*
X19240001Y-18537333D01*
X19250998Y-18648986D01*
X19264180Y-18692442D01*
X19294454Y-18792246D01*
X19365026Y-18924276D01*
X19394159Y-18959774D01*
X19460000Y-19040001D01*
X19488998Y-19063799D01*
X21665000Y-21239802D01*
X21665000Y-21301939D01*
X21704774Y-21501898D01*
X21782795Y-21690256D01*
X21896063Y-21859774D01*
X22040226Y-22003937D01*
X22209744Y-22117205D01*
X22398102Y-22195226D01*
X22598061Y-22235000D01*
X22801939Y-22235000D01*
X23001898Y-22195226D01*
X23190256Y-22117205D01*
X23359774Y-22003937D01*
X23503937Y-21859774D01*
X23617205Y-21690256D01*
X23695226Y-21501898D01*
X23735000Y-21301939D01*
X23735000Y-21098061D01*
X23695226Y-20898102D01*
X23617205Y-20709744D01*
X23503937Y-20540226D01*
X23359774Y-20396063D01*
X23190256Y-20282795D01*
X23001898Y-20204774D01*
X22801939Y-20165000D01*
X22739802Y-20165000D01*
X22482713Y-19907911D01*
X33465000Y-19907911D01*
X33465000Y-20092089D01*
X33500932Y-20272729D01*
X33571414Y-20442889D01*
X33673738Y-20596028D01*
X33803972Y-20726262D01*
X33957111Y-20828586D01*
X34127271Y-20899068D01*
X34131956Y-20900000D01*
X34127271Y-20900932D01*
X33957111Y-20971414D01*
X33803972Y-21073738D01*
X33673738Y-21203972D01*
X33571414Y-21357111D01*
X33500932Y-21527271D01*
X33465000Y-21707911D01*
X33465000Y-21892089D01*
X33500932Y-22072729D01*
X33571414Y-22242889D01*
X33673738Y-22396028D01*
X33803972Y-22526262D01*
X33957111Y-22628586D01*
X34127271Y-22699068D01*
X34307911Y-22735000D01*
X34492089Y-22735000D01*
X34672729Y-22699068D01*
X34842889Y-22628586D01*
X34996028Y-22526262D01*
X35126262Y-22396028D01*
X35228586Y-22242889D01*
X35299068Y-22072729D01*
X35335000Y-21892089D01*
X35335000Y-21707911D01*
X35299068Y-21527271D01*
X35228586Y-21357111D01*
X35126262Y-21203972D01*
X34996028Y-21073738D01*
X34842889Y-20971414D01*
X34672729Y-20900932D01*
X34668044Y-20900000D01*
X34672729Y-20899068D01*
X34842889Y-20828586D01*
X34996028Y-20726262D01*
X35126262Y-20596028D01*
X35228586Y-20442889D01*
X35299068Y-20272729D01*
X35335000Y-20092089D01*
X35335000Y-19907911D01*
X35299068Y-19727271D01*
X35228586Y-19557111D01*
X35126262Y-19403972D01*
X34996028Y-19273738D01*
X34842889Y-19171414D01*
X34672729Y-19100932D01*
X34492089Y-19065000D01*
X34307911Y-19065000D01*
X34127271Y-19100932D01*
X33957111Y-19171414D01*
X33803972Y-19273738D01*
X33673738Y-19403972D01*
X33571414Y-19557111D01*
X33500932Y-19727271D01*
X33465000Y-19907911D01*
X22482713Y-19907911D01*
X20760000Y-18185199D01*
X20760000Y-17898061D01*
X21665000Y-17898061D01*
X21665000Y-18101939D01*
X21704774Y-18301898D01*
X21782795Y-18490256D01*
X21896063Y-18659774D01*
X22040226Y-18803937D01*
X22209744Y-18917205D01*
X22398102Y-18995226D01*
X22598061Y-19035000D01*
X22801939Y-19035000D01*
X23001898Y-18995226D01*
X23190256Y-18917205D01*
X23359774Y-18803937D01*
X23503937Y-18659774D01*
X23617205Y-18490256D01*
X23695226Y-18301898D01*
X23735000Y-18101939D01*
X23735000Y-18039801D01*
X25614802Y-16160000D01*
X26962678Y-16160000D01*
X27000000Y-16163676D01*
X27037322Y-16160000D01*
X27037333Y-16160000D01*
X27148986Y-16149003D01*
X27292247Y-16105546D01*
X27424276Y-16034974D01*
X27540001Y-15940001D01*
X27563804Y-15910997D01*
X27966890Y-15507911D01*
X33440000Y-15507911D01*
X33440000Y-15692089D01*
X33475932Y-15872729D01*
X33546414Y-16042889D01*
X33648738Y-16196028D01*
X33778972Y-16326262D01*
X33932111Y-16428586D01*
X34102271Y-16499068D01*
X34106956Y-16500000D01*
X34102271Y-16500932D01*
X33932111Y-16571414D01*
X33778972Y-16673738D01*
X33648738Y-16803972D01*
X33546414Y-16957111D01*
X33475932Y-17127271D01*
X33440000Y-17307911D01*
X33440000Y-17492089D01*
X33475932Y-17672729D01*
X33546414Y-17842889D01*
X33648738Y-17996028D01*
X33778972Y-18126262D01*
X33932111Y-18228586D01*
X34102271Y-18299068D01*
X34282911Y-18335000D01*
X34467089Y-18335000D01*
X34647729Y-18299068D01*
X34817889Y-18228586D01*
X34971028Y-18126262D01*
X35101262Y-17996028D01*
X35203586Y-17842889D01*
X35274068Y-17672729D01*
X35310000Y-17492089D01*
X35310000Y-17307911D01*
X35274068Y-17127271D01*
X35203586Y-16957111D01*
X35101262Y-16803972D01*
X34971028Y-16673738D01*
X34817889Y-16571414D01*
X34647729Y-16500932D01*
X34643044Y-16500000D01*
X34647729Y-16499068D01*
X34817889Y-16428586D01*
X34971028Y-16326262D01*
X35101262Y-16196028D01*
X35203586Y-16042889D01*
X35274068Y-15872729D01*
X35310000Y-15692089D01*
X35310000Y-15507911D01*
X35274068Y-15327271D01*
X35203586Y-15157111D01*
X35101262Y-15003972D01*
X34971028Y-14873738D01*
X34817889Y-14771414D01*
X34647729Y-14700932D01*
X34467089Y-14665000D01*
X34282911Y-14665000D01*
X34102271Y-14700932D01*
X33932111Y-14771414D01*
X33778972Y-14873738D01*
X33648738Y-15003972D01*
X33546414Y-15157111D01*
X33475932Y-15327271D01*
X33440000Y-15507911D01*
X27966890Y-15507911D01*
X30176740Y-13298061D01*
X32365000Y-13298061D01*
X32365000Y-13501939D01*
X32404774Y-13701898D01*
X32482795Y-13890256D01*
X32596063Y-14059774D01*
X32740226Y-14203937D01*
X32909744Y-14317205D01*
X33098102Y-14395226D01*
X33298061Y-14435000D01*
X33501939Y-14435000D01*
X33701898Y-14395226D01*
X33890256Y-14317205D01*
X34059774Y-14203937D01*
X34103711Y-14160000D01*
X34696289Y-14160000D01*
X34740226Y-14203937D01*
X34909744Y-14317205D01*
X35098102Y-14395226D01*
X35298061Y-14435000D01*
X35501939Y-14435000D01*
X35701898Y-14395226D01*
X35890256Y-14317205D01*
X36059774Y-14203937D01*
X36203937Y-14059774D01*
X36317205Y-13890256D01*
X36395226Y-13701898D01*
X36435000Y-13501939D01*
X36435000Y-13298061D01*
X36395226Y-13098102D01*
X36317205Y-12909744D01*
X36203937Y-12740226D01*
X36059774Y-12596063D01*
X35890256Y-12482795D01*
X35701898Y-12404774D01*
X35501939Y-12365000D01*
X35298061Y-12365000D01*
X35098102Y-12404774D01*
X34909744Y-12482795D01*
X34740226Y-12596063D01*
X34696289Y-12640000D01*
X34103711Y-12640000D01*
X34059774Y-12596063D01*
X33890256Y-12482795D01*
X33701898Y-12404774D01*
X33501939Y-12365000D01*
X33298061Y-12365000D01*
X33098102Y-12404774D01*
X32909744Y-12482795D01*
X32740226Y-12596063D01*
X32596063Y-12740226D01*
X32482795Y-12909744D01*
X32404774Y-13098102D01*
X32365000Y-13298061D01*
X30176740Y-13298061D01*
X33439802Y-10035000D01*
X33501939Y-10035000D01*
X33701898Y-9995226D01*
X33890256Y-9917205D01*
X34059774Y-9803937D01*
X34203937Y-9659774D01*
X34317205Y-9490256D01*
X34395226Y-9301898D01*
X34435000Y-9101939D01*
X34435000Y-8898061D01*
X34395226Y-8698102D01*
X34317205Y-8509744D01*
X34203937Y-8340226D01*
X34176783Y-8313072D01*
X34850001Y-8313072D01*
X35023255Y-8296008D01*
X35189851Y-8245472D01*
X35343387Y-8163405D01*
X35477962Y-8052962D01*
X35588405Y-7918387D01*
X35670472Y-7764851D01*
X35721008Y-7598255D01*
X35738072Y-7425001D01*
X35738072Y-6174999D01*
X35721008Y-6001745D01*
X35670472Y-5835149D01*
X35588405Y-5681613D01*
X35477962Y-5547038D01*
X35343387Y-5436595D01*
X35189851Y-5354528D01*
X35023255Y-5303992D01*
X34850001Y-5286928D01*
X34149999Y-5286928D01*
X33976745Y-5303992D01*
X33810149Y-5354528D01*
X33656613Y-5436595D01*
X33522038Y-5547038D01*
X33411595Y-5681613D01*
X33409191Y-5686111D01*
X33377502Y-5647498D01*
X33189449Y-5493167D01*
X32974901Y-5378489D01*
X32742102Y-5307870D01*
X32500000Y-5284025D01*
X32257899Y-5307870D01*
X32025100Y-5378489D01*
X31810552Y-5493167D01*
X31622499Y-5647498D01*
X31500001Y-5796763D01*
X31377502Y-5647498D01*
X31189449Y-5493167D01*
X30974901Y-5378489D01*
X30742102Y-5307870D01*
X30500000Y-5284025D01*
X30257899Y-5307870D01*
X30025100Y-5378489D01*
X29810552Y-5493167D01*
X29622499Y-5647498D01*
X29468168Y-5835551D01*
X29353489Y-6050099D01*
X29282870Y-6282898D01*
X29265000Y-6464335D01*
X29265000Y-7135664D01*
X29282870Y-7317101D01*
X29353489Y-7549900D01*
X29468167Y-7764448D01*
X29622498Y-7952502D01*
X29810551Y-8106833D01*
X30025099Y-8221511D01*
X30086049Y-8240000D01*
X26603711Y-8240000D01*
X26559774Y-8196063D01*
X26390256Y-8082795D01*
X26201898Y-8004774D01*
X26001939Y-7965000D01*
X25798061Y-7965000D01*
X25598102Y-8004774D01*
X25409744Y-8082795D01*
X25240226Y-8196063D01*
X25096063Y-8340226D01*
X24982795Y-8509744D01*
X24904774Y-8698102D01*
X24865000Y-8898061D01*
X24865000Y-9101939D01*
X24904774Y-9301898D01*
X24982795Y-9490256D01*
X25096063Y-9659774D01*
X25240226Y-9803937D01*
X25409744Y-9917205D01*
X25598102Y-9995226D01*
X25798061Y-10035000D01*
X26001939Y-10035000D01*
X26201898Y-9995226D01*
X26390256Y-9917205D01*
X26559774Y-9803937D01*
X26603711Y-9760000D01*
X31196289Y-9760000D01*
X31240226Y-9803937D01*
X31408694Y-9916504D01*
X26685199Y-14640000D01*
X25337322Y-14640000D01*
X25299999Y-14636324D01*
X25262676Y-14640000D01*
X25262667Y-14640000D01*
X25151014Y-14650997D01*
X25007753Y-14694454D01*
X24875724Y-14765026D01*
X24759999Y-14859999D01*
X24736201Y-14888997D01*
X22660199Y-16965000D01*
X22598061Y-16965000D01*
X22398102Y-17004774D01*
X22209744Y-17082795D01*
X22040226Y-17196063D01*
X21896063Y-17340226D01*
X21782795Y-17509744D01*
X21704774Y-17698102D01*
X21665000Y-17898061D01*
X20760000Y-17898061D01*
X20760000Y-13603711D01*
X20803937Y-13559774D01*
X20917205Y-13390256D01*
X20995226Y-13201898D01*
X21035000Y-13001939D01*
X21035000Y-12798061D01*
X20995226Y-12598102D01*
X20917205Y-12409744D01*
X20803937Y-12240226D01*
X20659774Y-12096063D01*
X20490256Y-11982795D01*
X20301898Y-11904774D01*
X20101939Y-11865000D01*
X19898061Y-11865000D01*
X19698102Y-11904774D01*
X19509744Y-11982795D01*
X19340226Y-12096063D01*
X19196063Y-12240226D01*
X19082795Y-12409744D01*
X19004774Y-12598102D01*
X18965000Y-12798061D01*
X660000Y-12798061D01*
X660000Y-7557068D01*
X731881Y-7627725D01*
X927246Y-7755850D01*
X1143853Y-7843399D01*
X1170256Y-7843803D01*
X1353000Y-7718361D01*
X1353000Y-6527000D01*
X1607000Y-6527000D01*
X1607000Y-7718361D01*
X1789744Y-7843803D01*
X1816147Y-7843399D01*
X2032754Y-7755850D01*
X2228119Y-7627725D01*
X2394734Y-7463948D01*
X2526196Y-7270813D01*
X2617454Y-7055742D01*
X2665000Y-6827000D01*
X2665000Y-6527000D01*
X8935000Y-6527000D01*
X8935000Y-6827000D01*
X8982546Y-7055742D01*
X9073804Y-7270813D01*
X9205266Y-7463948D01*
X9371881Y-7627725D01*
X9567246Y-7755850D01*
X9783853Y-7843399D01*
X9810256Y-7843803D01*
X9993000Y-7718361D01*
X9993000Y-6527000D01*
X10247000Y-6527000D01*
X10247000Y-7718361D01*
X10429744Y-7843803D01*
X10456147Y-7843399D01*
X10672754Y-7755850D01*
X10868119Y-7627725D01*
X11034734Y-7463948D01*
X11166196Y-7270813D01*
X11257454Y-7055742D01*
X11305000Y-6827000D01*
X11305000Y-6527000D01*
X10247000Y-6527000D01*
X9993000Y-6527000D01*
X8935000Y-6527000D01*
X2665000Y-6527000D01*
X1607000Y-6527000D01*
X1353000Y-6527000D01*
X1333000Y-6527000D01*
X1333000Y-6273000D01*
X1353000Y-6273000D01*
X1353000Y-5081639D01*
X1607000Y-5081639D01*
X1607000Y-6273000D01*
X2665000Y-6273000D01*
X2665000Y-5973000D01*
X8935000Y-5973000D01*
X8935000Y-6273000D01*
X9993000Y-6273000D01*
X9993000Y-5081639D01*
X10247000Y-5081639D01*
X10247000Y-6273000D01*
X11305000Y-6273000D01*
X11305000Y-5973000D01*
X11257454Y-5744258D01*
X11166196Y-5529187D01*
X11034734Y-5336052D01*
X10868119Y-5172275D01*
X10672754Y-5044150D01*
X10456147Y-4956601D01*
X10429744Y-4956197D01*
X10247000Y-5081639D01*
X9993000Y-5081639D01*
X9810256Y-4956197D01*
X9783853Y-4956601D01*
X9567246Y-5044150D01*
X9371881Y-5172275D01*
X9205266Y-5336052D01*
X9073804Y-5529187D01*
X8982546Y-5744258D01*
X8935000Y-5973000D01*
X2665000Y-5973000D01*
X2617454Y-5744258D01*
X2526196Y-5529187D01*
X2394734Y-5336052D01*
X2228119Y-5172275D01*
X2032754Y-5044150D01*
X1816147Y-4956601D01*
X1789744Y-4956197D01*
X1607000Y-5081639D01*
X1353000Y-5081639D01*
X1170256Y-4956197D01*
X1143853Y-4956601D01*
X927246Y-5044150D01*
X731881Y-5172275D01*
X660000Y-5242932D01*
X660000Y-4298061D01*
X15465000Y-4298061D01*
X15465000Y-4501939D01*
X15504774Y-4701898D01*
X15582795Y-4890256D01*
X15696063Y-5059774D01*
X15840226Y-5203937D01*
X16009744Y-5317205D01*
X16198102Y-5395226D01*
X16398061Y-5435000D01*
X16460199Y-5435000D01*
X16940000Y-5914802D01*
X16940001Y-6685197D01*
X16460199Y-7165000D01*
X16398061Y-7165000D01*
X16198102Y-7204774D01*
X16009744Y-7282795D01*
X15840226Y-7396063D01*
X15696063Y-7540226D01*
X15582795Y-7709744D01*
X15504774Y-7898102D01*
X15465000Y-8098061D01*
X15465000Y-8301939D01*
X15504774Y-8501898D01*
X15582795Y-8690256D01*
X15696063Y-8859774D01*
X15840226Y-9003937D01*
X16009744Y-9117205D01*
X16198102Y-9195226D01*
X16398061Y-9235000D01*
X16601939Y-9235000D01*
X16801898Y-9195226D01*
X16990256Y-9117205D01*
X17159774Y-9003937D01*
X17303937Y-8859774D01*
X17417205Y-8690256D01*
X17495226Y-8501898D01*
X17535000Y-8301939D01*
X17535000Y-8239801D01*
X18211003Y-7563799D01*
X18240001Y-7540001D01*
X18334974Y-7424276D01*
X18405546Y-7292247D01*
X18449003Y-7148986D01*
X18460000Y-7037333D01*
X18460000Y-7037324D01*
X18463676Y-7000001D01*
X18460000Y-6962678D01*
X18460000Y-5637322D01*
X18463676Y-5599999D01*
X18460000Y-5562676D01*
X18460000Y-5562667D01*
X18449003Y-5451014D01*
X18405546Y-5307753D01*
X18334974Y-5175724D01*
X18240001Y-5059999D01*
X18211004Y-5036202D01*
X17535000Y-4360199D01*
X17535000Y-4298061D01*
X17495226Y-4098102D01*
X17417205Y-3909744D01*
X17303937Y-3740226D01*
X17159774Y-3596063D01*
X16990256Y-3482795D01*
X16801898Y-3404774D01*
X16601939Y-3365000D01*
X16398061Y-3365000D01*
X16198102Y-3404774D01*
X16009744Y-3482795D01*
X15840226Y-3596063D01*
X15696063Y-3740226D01*
X15582795Y-3909744D01*
X15504774Y-4098102D01*
X15465000Y-4298061D01*
X660000Y-4298061D01*
X660000Y-3757068D01*
X731881Y-3827725D01*
X927246Y-3955850D01*
X1143853Y-4043399D01*
X1170256Y-4043803D01*
X1353000Y-3918361D01*
X1353000Y-2727000D01*
X1607000Y-2727000D01*
X1607000Y-3918361D01*
X1789744Y-4043803D01*
X1816147Y-4043399D01*
X2032754Y-3955850D01*
X2228119Y-3827725D01*
X2394734Y-3663948D01*
X2526196Y-3470813D01*
X2617454Y-3255742D01*
X2665000Y-3027000D01*
X2665000Y-2727000D01*
X8935000Y-2727000D01*
X8935000Y-3027000D01*
X8982546Y-3255742D01*
X9073804Y-3470813D01*
X9205266Y-3663948D01*
X9371881Y-3827725D01*
X9567246Y-3955850D01*
X9783853Y-4043399D01*
X9810256Y-4043803D01*
X9993000Y-3918361D01*
X9993000Y-2727000D01*
X10247000Y-2727000D01*
X10247000Y-3918361D01*
X10429744Y-4043803D01*
X10456147Y-4043399D01*
X10672754Y-3955850D01*
X10868119Y-3827725D01*
X11034734Y-3663948D01*
X11166196Y-3470813D01*
X11257454Y-3255742D01*
X11305000Y-3027000D01*
X11305000Y-2727000D01*
X10247000Y-2727000D01*
X9993000Y-2727000D01*
X8935000Y-2727000D01*
X2665000Y-2727000D01*
X1607000Y-2727000D01*
X1353000Y-2727000D01*
X1333000Y-2727000D01*
X1333000Y-2473000D01*
X1353000Y-2473000D01*
X1353000Y-1281639D01*
X1607000Y-1281639D01*
X1607000Y-2473000D01*
X2665000Y-2473000D01*
X2665000Y-2173000D01*
X8935000Y-2173000D01*
X8935000Y-2473000D01*
X9993000Y-2473000D01*
X9993000Y-1281639D01*
X10247000Y-1281639D01*
X10247000Y-2473000D01*
X11305000Y-2473000D01*
X11305000Y-2173000D01*
X11257454Y-1944258D01*
X11166196Y-1729187D01*
X11034734Y-1536052D01*
X10868119Y-1372275D01*
X10672754Y-1244150D01*
X10456147Y-1156601D01*
X10429744Y-1156197D01*
X10247000Y-1281639D01*
X9993000Y-1281639D01*
X9810256Y-1156197D01*
X9783853Y-1156601D01*
X9567246Y-1244150D01*
X9371881Y-1372275D01*
X9205266Y-1536052D01*
X9073804Y-1729187D01*
X8982546Y-1944258D01*
X8935000Y-2173000D01*
X2665000Y-2173000D01*
X2617454Y-1944258D01*
X2526196Y-1729187D01*
X2394734Y-1536052D01*
X2228119Y-1372275D01*
X2032754Y-1244150D01*
X1816147Y-1156601D01*
X1789744Y-1156197D01*
X1607000Y-1281639D01*
X1353000Y-1281639D01*
X1170256Y-1156197D01*
X1143853Y-1156601D01*
X927246Y-1244150D01*
X731881Y-1372275D01*
X660000Y-1442932D01*
X660000Y-1032279D01*
X669580Y-934576D01*
X688580Y-871644D01*
X719445Y-813595D01*
X760989Y-762657D01*
X811644Y-720752D01*
X869471Y-689485D01*
X932272Y-670044D01*
X1027835Y-660000D01*
X36967721Y-660000D01*
X37065424Y-669580D01*
G04 #@! TA.AperFunction,Conductor*
D17*
G36*
X37065424Y-669580D02*
G01*
X37128356Y-688580D01*
X37186405Y-719445D01*
X37237343Y-760989D01*
X37279248Y-811644D01*
X37310515Y-869471D01*
X37329956Y-932272D01*
X37340000Y-1027835D01*
X37340001Y-33967711D01*
X37330420Y-34065424D01*
X37311420Y-34128357D01*
X37280554Y-34186406D01*
X37239011Y-34237343D01*
X37188356Y-34279248D01*
X37130529Y-34310515D01*
X37067728Y-34329956D01*
X36972165Y-34340000D01*
X1032279Y-34340000D01*
X934576Y-34330420D01*
X871643Y-34311420D01*
X813594Y-34280554D01*
X762657Y-34239011D01*
X720752Y-34188356D01*
X689485Y-34130529D01*
X670044Y-34067728D01*
X660000Y-33972165D01*
X660000Y-27433740D01*
X1815000Y-27433740D01*
X1815000Y-27726260D01*
X1872068Y-28013158D01*
X1984010Y-28283411D01*
X2146525Y-28526632D01*
X2353368Y-28733475D01*
X2527760Y-28850000D01*
X2353368Y-28966525D01*
X2146525Y-29173368D01*
X1984010Y-29416589D01*
X1872068Y-29686842D01*
X1815000Y-29973740D01*
X1815000Y-30266260D01*
X1872068Y-30553158D01*
X1984010Y-30823411D01*
X2146525Y-31066632D01*
X2353368Y-31273475D01*
X2596589Y-31435990D01*
X2866842Y-31547932D01*
X3153740Y-31605000D01*
X3446260Y-31605000D01*
X3733158Y-31547932D01*
X4003411Y-31435990D01*
X4246632Y-31273475D01*
X4453475Y-31066632D01*
X4615990Y-30823411D01*
X4727932Y-30553158D01*
X4785000Y-30266260D01*
X4785000Y-29973740D01*
X4727932Y-29686842D01*
X4615990Y-29416589D01*
X4453475Y-29173368D01*
X4246632Y-28966525D01*
X4072240Y-28850000D01*
X4246632Y-28733475D01*
X4453475Y-28526632D01*
X4615990Y-28283411D01*
X4727932Y-28013158D01*
X4785000Y-27726260D01*
X4785000Y-27433740D01*
X4727932Y-27146842D01*
X4615990Y-26876589D01*
X4453475Y-26633368D01*
X4246632Y-26426525D01*
X4064466Y-26304805D01*
X4181355Y-26235178D01*
X4397588Y-26040269D01*
X4571641Y-25806920D01*
X4696825Y-25544099D01*
X4741476Y-25396890D01*
X4620155Y-25167000D01*
X3427000Y-25167000D01*
X3427000Y-25187000D01*
X3173000Y-25187000D01*
X3173000Y-25167000D01*
X1979845Y-25167000D01*
X1858524Y-25396890D01*
X1903175Y-25544099D01*
X2028359Y-25806920D01*
X2202412Y-26040269D01*
X2418645Y-26235178D01*
X2535534Y-26304805D01*
X2353368Y-26426525D01*
X2146525Y-26633368D01*
X1984010Y-26876589D01*
X1872068Y-27146842D01*
X1815000Y-27433740D01*
X660000Y-27433740D01*
X660000Y-21650000D01*
X1811928Y-21650000D01*
X1811928Y-23350000D01*
X1824188Y-23474482D01*
X1860498Y-23594180D01*
X1919463Y-23704494D01*
X1998815Y-23801185D01*
X2095506Y-23880537D01*
X2205820Y-23939502D01*
X2286466Y-23963966D01*
X2202412Y-24039731D01*
X2028359Y-24273080D01*
X1903175Y-24535901D01*
X1858524Y-24683110D01*
X1979845Y-24913000D01*
X3173000Y-24913000D01*
X3173000Y-24893000D01*
X3427000Y-24893000D01*
X3427000Y-24913000D01*
X4620155Y-24913000D01*
X4741476Y-24683110D01*
X4696825Y-24535901D01*
X4571641Y-24273080D01*
X4397588Y-24039731D01*
X4313534Y-23963966D01*
X4394180Y-23939502D01*
X4504494Y-23880537D01*
X4601185Y-23801185D01*
X4680537Y-23704494D01*
X4739502Y-23594180D01*
X4775812Y-23474482D01*
X4788072Y-23350000D01*
X4788072Y-23260000D01*
X9985199Y-23260000D01*
X18765000Y-32039802D01*
X18765000Y-32101939D01*
X18804774Y-32301898D01*
X18882795Y-32490256D01*
X18996063Y-32659774D01*
X19140226Y-32803937D01*
X19309744Y-32917205D01*
X19498102Y-32995226D01*
X19698061Y-33035000D01*
X19901939Y-33035000D01*
X20101898Y-32995226D01*
X20290256Y-32917205D01*
X20459774Y-32803937D01*
X20603937Y-32659774D01*
X20717205Y-32490256D01*
X20795226Y-32301898D01*
X20835000Y-32101939D01*
X20835000Y-31898061D01*
X20795226Y-31698102D01*
X20717205Y-31509744D01*
X20603937Y-31340226D01*
X20459774Y-31196063D01*
X20290256Y-31082795D01*
X20101898Y-31004774D01*
X19901939Y-30965000D01*
X19839802Y-30965000D01*
X10863804Y-21989003D01*
X10840001Y-21959999D01*
X10724276Y-21865026D01*
X10592247Y-21794454D01*
X10448986Y-21750997D01*
X10337333Y-21740000D01*
X10337322Y-21740000D01*
X10300000Y-21736324D01*
X10262678Y-21740000D01*
X4788072Y-21740000D01*
X4788072Y-21650000D01*
X4775812Y-21525518D01*
X4739502Y-21405820D01*
X4680537Y-21295506D01*
X4601185Y-21198815D01*
X4504494Y-21119463D01*
X4394180Y-21060498D01*
X4274482Y-21024188D01*
X4150000Y-21011928D01*
X2450000Y-21011928D01*
X2325518Y-21024188D01*
X2205820Y-21060498D01*
X2095506Y-21119463D01*
X1998815Y-21198815D01*
X1919463Y-21295506D01*
X1860498Y-21405820D01*
X1824188Y-21525518D01*
X1811928Y-21650000D01*
X660000Y-21650000D01*
X660000Y-18198061D01*
X9265000Y-18198061D01*
X9265000Y-18401939D01*
X9304774Y-18601898D01*
X9382795Y-18790256D01*
X9496063Y-18959774D01*
X9640226Y-19103937D01*
X9809744Y-19217205D01*
X9998102Y-19295226D01*
X10198061Y-19335000D01*
X10260199Y-19335000D01*
X14636205Y-23711008D01*
X14659999Y-23740001D01*
X14688992Y-23763795D01*
X14688996Y-23763799D01*
X14734552Y-23801185D01*
X14775724Y-23834974D01*
X14907753Y-23905546D01*
X15051014Y-23949003D01*
X15162667Y-23960000D01*
X15162676Y-23960000D01*
X15199999Y-23963676D01*
X15237322Y-23960000D01*
X25492462Y-23960000D01*
X25465000Y-24098061D01*
X25465000Y-24301939D01*
X25504774Y-24501898D01*
X25582795Y-24690256D01*
X25696063Y-24859774D01*
X25740000Y-24903711D01*
X25740001Y-30596288D01*
X25696063Y-30640226D01*
X25582795Y-30809744D01*
X25504774Y-30998102D01*
X25465000Y-31198061D01*
X25465000Y-31401939D01*
X25504774Y-31601898D01*
X25582795Y-31790256D01*
X25696063Y-31959774D01*
X25840226Y-32103937D01*
X26009744Y-32217205D01*
X26198102Y-32295226D01*
X26398061Y-32335000D01*
X26601939Y-32335000D01*
X26801898Y-32295226D01*
X26990256Y-32217205D01*
X27159774Y-32103937D01*
X27303937Y-31959774D01*
X27417205Y-31790256D01*
X27495226Y-31601898D01*
X27535000Y-31401939D01*
X27535000Y-31198061D01*
X27495226Y-30998102D01*
X27417205Y-30809744D01*
X27303937Y-30640226D01*
X27260000Y-30596289D01*
X27260000Y-24903711D01*
X27303937Y-24859774D01*
X27405408Y-24707911D01*
X33465000Y-24707911D01*
X33465000Y-24892089D01*
X33500932Y-25072729D01*
X33571414Y-25242889D01*
X33673738Y-25396028D01*
X33803972Y-25526262D01*
X33957111Y-25628586D01*
X34127271Y-25699068D01*
X34131956Y-25700000D01*
X34127271Y-25700932D01*
X33957111Y-25771414D01*
X33803972Y-25873738D01*
X33673738Y-26003972D01*
X33571414Y-26157111D01*
X33500932Y-26327271D01*
X33465000Y-26507911D01*
X33465000Y-26692089D01*
X33500932Y-26872729D01*
X33571414Y-27042889D01*
X33673738Y-27196028D01*
X33803972Y-27326262D01*
X33957111Y-27428586D01*
X34127271Y-27499068D01*
X34307911Y-27535000D01*
X34492089Y-27535000D01*
X34672729Y-27499068D01*
X34842889Y-27428586D01*
X34996028Y-27326262D01*
X35126262Y-27196028D01*
X35228586Y-27042889D01*
X35299068Y-26872729D01*
X35335000Y-26692089D01*
X35335000Y-26507911D01*
X35299068Y-26327271D01*
X35228586Y-26157111D01*
X35126262Y-26003972D01*
X34996028Y-25873738D01*
X34842889Y-25771414D01*
X34672729Y-25700932D01*
X34668044Y-25700000D01*
X34672729Y-25699068D01*
X34842889Y-25628586D01*
X34996028Y-25526262D01*
X35126262Y-25396028D01*
X35228586Y-25242889D01*
X35299068Y-25072729D01*
X35335000Y-24892089D01*
X35335000Y-24707911D01*
X35299068Y-24527271D01*
X35228586Y-24357111D01*
X35126262Y-24203972D01*
X34996028Y-24073738D01*
X34842889Y-23971414D01*
X34672729Y-23900932D01*
X34492089Y-23865000D01*
X34307911Y-23865000D01*
X34127271Y-23900932D01*
X33957111Y-23971414D01*
X33803972Y-24073738D01*
X33673738Y-24203972D01*
X33571414Y-24357111D01*
X33500932Y-24527271D01*
X33465000Y-24707911D01*
X27405408Y-24707911D01*
X27417205Y-24690256D01*
X27495226Y-24501898D01*
X27535000Y-24301939D01*
X27535000Y-24228424D01*
X27701898Y-24195226D01*
X27890256Y-24117205D01*
X28059774Y-24003937D01*
X28203937Y-23859774D01*
X28317205Y-23690256D01*
X28395226Y-23501898D01*
X28435000Y-23301939D01*
X28435000Y-23098061D01*
X28395226Y-22898102D01*
X28317205Y-22709744D01*
X28203937Y-22540226D01*
X28059774Y-22396063D01*
X27890256Y-22282795D01*
X27701898Y-22204774D01*
X27501939Y-22165000D01*
X27298061Y-22165000D01*
X27098102Y-22204774D01*
X26909744Y-22282795D01*
X26740226Y-22396063D01*
X26696289Y-22440000D01*
X15514803Y-22440000D01*
X11335000Y-18260199D01*
X11335000Y-18198061D01*
X11295226Y-17998102D01*
X11217205Y-17809744D01*
X11103937Y-17640226D01*
X10959774Y-17496063D01*
X10790256Y-17382795D01*
X10601898Y-17304774D01*
X10401939Y-17265000D01*
X10198061Y-17265000D01*
X9998102Y-17304774D01*
X9809744Y-17382795D01*
X9640226Y-17496063D01*
X9496063Y-17640226D01*
X9382795Y-17809744D01*
X9304774Y-17998102D01*
X9265000Y-18198061D01*
X660000Y-18198061D01*
X660000Y-12798061D01*
X18965000Y-12798061D01*
X18965000Y-13001939D01*
X19004774Y-13201898D01*
X19082795Y-13390256D01*
X19196063Y-13559774D01*
X19240000Y-13603711D01*
X19240001Y-18462668D01*
X19236324Y-18500000D01*
X19240001Y-18537333D01*
X19250998Y-18648986D01*
X19264180Y-18692442D01*
X19294454Y-18792246D01*
X19365026Y-18924276D01*
X19394159Y-18959774D01*
X19460000Y-19040001D01*
X19488998Y-19063799D01*
X21665000Y-21239802D01*
X21665000Y-21301939D01*
X21704774Y-21501898D01*
X21782795Y-21690256D01*
X21896063Y-21859774D01*
X22040226Y-22003937D01*
X22209744Y-22117205D01*
X22398102Y-22195226D01*
X22598061Y-22235000D01*
X22801939Y-22235000D01*
X23001898Y-22195226D01*
X23190256Y-22117205D01*
X23359774Y-22003937D01*
X23503937Y-21859774D01*
X23617205Y-21690256D01*
X23695226Y-21501898D01*
X23735000Y-21301939D01*
X23735000Y-21098061D01*
X23695226Y-20898102D01*
X23617205Y-20709744D01*
X23503937Y-20540226D01*
X23359774Y-20396063D01*
X23190256Y-20282795D01*
X23001898Y-20204774D01*
X22801939Y-20165000D01*
X22739802Y-20165000D01*
X22482713Y-19907911D01*
X33465000Y-19907911D01*
X33465000Y-20092089D01*
X33500932Y-20272729D01*
X33571414Y-20442889D01*
X33673738Y-20596028D01*
X33803972Y-20726262D01*
X33957111Y-20828586D01*
X34127271Y-20899068D01*
X34131956Y-20900000D01*
X34127271Y-20900932D01*
X33957111Y-20971414D01*
X33803972Y-21073738D01*
X33673738Y-21203972D01*
X33571414Y-21357111D01*
X33500932Y-21527271D01*
X33465000Y-21707911D01*
X33465000Y-21892089D01*
X33500932Y-22072729D01*
X33571414Y-22242889D01*
X33673738Y-22396028D01*
X33803972Y-22526262D01*
X33957111Y-22628586D01*
X34127271Y-22699068D01*
X34307911Y-22735000D01*
X34492089Y-22735000D01*
X34672729Y-22699068D01*
X34842889Y-22628586D01*
X34996028Y-22526262D01*
X35126262Y-22396028D01*
X35228586Y-22242889D01*
X35299068Y-22072729D01*
X35335000Y-21892089D01*
X35335000Y-21707911D01*
X35299068Y-21527271D01*
X35228586Y-21357111D01*
X35126262Y-21203972D01*
X34996028Y-21073738D01*
X34842889Y-20971414D01*
X34672729Y-20900932D01*
X34668044Y-20900000D01*
X34672729Y-20899068D01*
X34842889Y-20828586D01*
X34996028Y-20726262D01*
X35126262Y-20596028D01*
X35228586Y-20442889D01*
X35299068Y-20272729D01*
X35335000Y-20092089D01*
X35335000Y-19907911D01*
X35299068Y-19727271D01*
X35228586Y-19557111D01*
X35126262Y-19403972D01*
X34996028Y-19273738D01*
X34842889Y-19171414D01*
X34672729Y-19100932D01*
X34492089Y-19065000D01*
X34307911Y-19065000D01*
X34127271Y-19100932D01*
X33957111Y-19171414D01*
X33803972Y-19273738D01*
X33673738Y-19403972D01*
X33571414Y-19557111D01*
X33500932Y-19727271D01*
X33465000Y-19907911D01*
X22482713Y-19907911D01*
X20760000Y-18185199D01*
X20760000Y-17898061D01*
X21665000Y-17898061D01*
X21665000Y-18101939D01*
X21704774Y-18301898D01*
X21782795Y-18490256D01*
X21896063Y-18659774D01*
X22040226Y-18803937D01*
X22209744Y-18917205D01*
X22398102Y-18995226D01*
X22598061Y-19035000D01*
X22801939Y-19035000D01*
X23001898Y-18995226D01*
X23190256Y-18917205D01*
X23359774Y-18803937D01*
X23503937Y-18659774D01*
X23617205Y-18490256D01*
X23695226Y-18301898D01*
X23735000Y-18101939D01*
X23735000Y-18039801D01*
X25614802Y-16160000D01*
X26962678Y-16160000D01*
X27000000Y-16163676D01*
X27037322Y-16160000D01*
X27037333Y-16160000D01*
X27148986Y-16149003D01*
X27292247Y-16105546D01*
X27424276Y-16034974D01*
X27540001Y-15940001D01*
X27563804Y-15910997D01*
X27966890Y-15507911D01*
X33440000Y-15507911D01*
X33440000Y-15692089D01*
X33475932Y-15872729D01*
X33546414Y-16042889D01*
X33648738Y-16196028D01*
X33778972Y-16326262D01*
X33932111Y-16428586D01*
X34102271Y-16499068D01*
X34106956Y-16500000D01*
X34102271Y-16500932D01*
X33932111Y-16571414D01*
X33778972Y-16673738D01*
X33648738Y-16803972D01*
X33546414Y-16957111D01*
X33475932Y-17127271D01*
X33440000Y-17307911D01*
X33440000Y-17492089D01*
X33475932Y-17672729D01*
X33546414Y-17842889D01*
X33648738Y-17996028D01*
X33778972Y-18126262D01*
X33932111Y-18228586D01*
X34102271Y-18299068D01*
X34282911Y-18335000D01*
X34467089Y-18335000D01*
X34647729Y-18299068D01*
X34817889Y-18228586D01*
X34971028Y-18126262D01*
X35101262Y-17996028D01*
X35203586Y-17842889D01*
X35274068Y-17672729D01*
X35310000Y-17492089D01*
X35310000Y-17307911D01*
X35274068Y-17127271D01*
X35203586Y-16957111D01*
X35101262Y-16803972D01*
X34971028Y-16673738D01*
X34817889Y-16571414D01*
X34647729Y-16500932D01*
X34643044Y-16500000D01*
X34647729Y-16499068D01*
X34817889Y-16428586D01*
X34971028Y-16326262D01*
X35101262Y-16196028D01*
X35203586Y-16042889D01*
X35274068Y-15872729D01*
X35310000Y-15692089D01*
X35310000Y-15507911D01*
X35274068Y-15327271D01*
X35203586Y-15157111D01*
X35101262Y-15003972D01*
X34971028Y-14873738D01*
X34817889Y-14771414D01*
X34647729Y-14700932D01*
X34467089Y-14665000D01*
X34282911Y-14665000D01*
X34102271Y-14700932D01*
X33932111Y-14771414D01*
X33778972Y-14873738D01*
X33648738Y-15003972D01*
X33546414Y-15157111D01*
X33475932Y-15327271D01*
X33440000Y-15507911D01*
X27966890Y-15507911D01*
X30176740Y-13298061D01*
X32365000Y-13298061D01*
X32365000Y-13501939D01*
X32404774Y-13701898D01*
X32482795Y-13890256D01*
X32596063Y-14059774D01*
X32740226Y-14203937D01*
X32909744Y-14317205D01*
X33098102Y-14395226D01*
X33298061Y-14435000D01*
X33501939Y-14435000D01*
X33701898Y-14395226D01*
X33890256Y-14317205D01*
X34059774Y-14203937D01*
X34103711Y-14160000D01*
X34696289Y-14160000D01*
X34740226Y-14203937D01*
X34909744Y-14317205D01*
X35098102Y-14395226D01*
X35298061Y-14435000D01*
X35501939Y-14435000D01*
X35701898Y-14395226D01*
X35890256Y-14317205D01*
X36059774Y-14203937D01*
X36203937Y-14059774D01*
X36317205Y-13890256D01*
X36395226Y-13701898D01*
X36435000Y-13501939D01*
X36435000Y-13298061D01*
X36395226Y-13098102D01*
X36317205Y-12909744D01*
X36203937Y-12740226D01*
X36059774Y-12596063D01*
X35890256Y-12482795D01*
X35701898Y-12404774D01*
X35501939Y-12365000D01*
X35298061Y-12365000D01*
X35098102Y-12404774D01*
X34909744Y-12482795D01*
X34740226Y-12596063D01*
X34696289Y-12640000D01*
X34103711Y-12640000D01*
X34059774Y-12596063D01*
X33890256Y-12482795D01*
X33701898Y-12404774D01*
X33501939Y-12365000D01*
X33298061Y-12365000D01*
X33098102Y-12404774D01*
X32909744Y-12482795D01*
X32740226Y-12596063D01*
X32596063Y-12740226D01*
X32482795Y-12909744D01*
X32404774Y-13098102D01*
X32365000Y-13298061D01*
X30176740Y-13298061D01*
X33439802Y-10035000D01*
X33501939Y-10035000D01*
X33701898Y-9995226D01*
X33890256Y-9917205D01*
X34059774Y-9803937D01*
X34203937Y-9659774D01*
X34317205Y-9490256D01*
X34395226Y-9301898D01*
X34435000Y-9101939D01*
X34435000Y-8898061D01*
X34395226Y-8698102D01*
X34317205Y-8509744D01*
X34203937Y-8340226D01*
X34176783Y-8313072D01*
X34850001Y-8313072D01*
X35023255Y-8296008D01*
X35189851Y-8245472D01*
X35343387Y-8163405D01*
X35477962Y-8052962D01*
X35588405Y-7918387D01*
X35670472Y-7764851D01*
X35721008Y-7598255D01*
X35738072Y-7425001D01*
X35738072Y-6174999D01*
X35721008Y-6001745D01*
X35670472Y-5835149D01*
X35588405Y-5681613D01*
X35477962Y-5547038D01*
X35343387Y-5436595D01*
X35189851Y-5354528D01*
X35023255Y-5303992D01*
X34850001Y-5286928D01*
X34149999Y-5286928D01*
X33976745Y-5303992D01*
X33810149Y-5354528D01*
X33656613Y-5436595D01*
X33522038Y-5547038D01*
X33411595Y-5681613D01*
X33409191Y-5686111D01*
X33377502Y-5647498D01*
X33189449Y-5493167D01*
X32974901Y-5378489D01*
X32742102Y-5307870D01*
X32500000Y-5284025D01*
X32257899Y-5307870D01*
X32025100Y-5378489D01*
X31810552Y-5493167D01*
X31622499Y-5647498D01*
X31500001Y-5796763D01*
X31377502Y-5647498D01*
X31189449Y-5493167D01*
X30974901Y-5378489D01*
X30742102Y-5307870D01*
X30500000Y-5284025D01*
X30257899Y-5307870D01*
X30025100Y-5378489D01*
X29810552Y-5493167D01*
X29622499Y-5647498D01*
X29468168Y-5835551D01*
X29353489Y-6050099D01*
X29282870Y-6282898D01*
X29265000Y-6464335D01*
X29265000Y-7135664D01*
X29282870Y-7317101D01*
X29353489Y-7549900D01*
X29468167Y-7764448D01*
X29622498Y-7952502D01*
X29810551Y-8106833D01*
X30025099Y-8221511D01*
X30086049Y-8240000D01*
X26603711Y-8240000D01*
X26559774Y-8196063D01*
X26390256Y-8082795D01*
X26201898Y-8004774D01*
X26001939Y-7965000D01*
X25798061Y-7965000D01*
X25598102Y-8004774D01*
X25409744Y-8082795D01*
X25240226Y-8196063D01*
X25096063Y-8340226D01*
X24982795Y-8509744D01*
X24904774Y-8698102D01*
X24865000Y-8898061D01*
X24865000Y-9101939D01*
X24904774Y-9301898D01*
X24982795Y-9490256D01*
X25096063Y-9659774D01*
X25240226Y-9803937D01*
X25409744Y-9917205D01*
X25598102Y-9995226D01*
X25798061Y-10035000D01*
X26001939Y-10035000D01*
X26201898Y-9995226D01*
X26390256Y-9917205D01*
X26559774Y-9803937D01*
X26603711Y-9760000D01*
X31196289Y-9760000D01*
X31240226Y-9803937D01*
X31408694Y-9916504D01*
X26685199Y-14640000D01*
X25337322Y-14640000D01*
X25299999Y-14636324D01*
X25262676Y-14640000D01*
X25262667Y-14640000D01*
X25151014Y-14650997D01*
X25007753Y-14694454D01*
X24875724Y-14765026D01*
X24759999Y-14859999D01*
X24736201Y-14888997D01*
X22660199Y-16965000D01*
X22598061Y-16965000D01*
X22398102Y-17004774D01*
X22209744Y-17082795D01*
X22040226Y-17196063D01*
X21896063Y-17340226D01*
X21782795Y-17509744D01*
X21704774Y-17698102D01*
X21665000Y-17898061D01*
X20760000Y-17898061D01*
X20760000Y-13603711D01*
X20803937Y-13559774D01*
X20917205Y-13390256D01*
X20995226Y-13201898D01*
X21035000Y-13001939D01*
X21035000Y-12798061D01*
X20995226Y-12598102D01*
X20917205Y-12409744D01*
X20803937Y-12240226D01*
X20659774Y-12096063D01*
X20490256Y-11982795D01*
X20301898Y-11904774D01*
X20101939Y-11865000D01*
X19898061Y-11865000D01*
X19698102Y-11904774D01*
X19509744Y-11982795D01*
X19340226Y-12096063D01*
X19196063Y-12240226D01*
X19082795Y-12409744D01*
X19004774Y-12598102D01*
X18965000Y-12798061D01*
X660000Y-12798061D01*
X660000Y-7557068D01*
X731881Y-7627725D01*
X927246Y-7755850D01*
X1143853Y-7843399D01*
X1170256Y-7843803D01*
X1353000Y-7718361D01*
X1353000Y-6527000D01*
X1607000Y-6527000D01*
X1607000Y-7718361D01*
X1789744Y-7843803D01*
X1816147Y-7843399D01*
X2032754Y-7755850D01*
X2228119Y-7627725D01*
X2394734Y-7463948D01*
X2526196Y-7270813D01*
X2617454Y-7055742D01*
X2665000Y-6827000D01*
X2665000Y-6527000D01*
X8935000Y-6527000D01*
X8935000Y-6827000D01*
X8982546Y-7055742D01*
X9073804Y-7270813D01*
X9205266Y-7463948D01*
X9371881Y-7627725D01*
X9567246Y-7755850D01*
X9783853Y-7843399D01*
X9810256Y-7843803D01*
X9993000Y-7718361D01*
X9993000Y-6527000D01*
X10247000Y-6527000D01*
X10247000Y-7718361D01*
X10429744Y-7843803D01*
X10456147Y-7843399D01*
X10672754Y-7755850D01*
X10868119Y-7627725D01*
X11034734Y-7463948D01*
X11166196Y-7270813D01*
X11257454Y-7055742D01*
X11305000Y-6827000D01*
X11305000Y-6527000D01*
X10247000Y-6527000D01*
X9993000Y-6527000D01*
X8935000Y-6527000D01*
X2665000Y-6527000D01*
X1607000Y-6527000D01*
X1353000Y-6527000D01*
X1333000Y-6527000D01*
X1333000Y-6273000D01*
X1353000Y-6273000D01*
X1353000Y-5081639D01*
X1607000Y-5081639D01*
X1607000Y-6273000D01*
X2665000Y-6273000D01*
X2665000Y-5973000D01*
X8935000Y-5973000D01*
X8935000Y-6273000D01*
X9993000Y-6273000D01*
X9993000Y-5081639D01*
X10247000Y-5081639D01*
X10247000Y-6273000D01*
X11305000Y-6273000D01*
X11305000Y-5973000D01*
X11257454Y-5744258D01*
X11166196Y-5529187D01*
X11034734Y-5336052D01*
X10868119Y-5172275D01*
X10672754Y-5044150D01*
X10456147Y-4956601D01*
X10429744Y-4956197D01*
X10247000Y-5081639D01*
X9993000Y-5081639D01*
X9810256Y-4956197D01*
X9783853Y-4956601D01*
X9567246Y-5044150D01*
X9371881Y-5172275D01*
X9205266Y-5336052D01*
X9073804Y-5529187D01*
X8982546Y-5744258D01*
X8935000Y-5973000D01*
X2665000Y-5973000D01*
X2617454Y-5744258D01*
X2526196Y-5529187D01*
X2394734Y-5336052D01*
X2228119Y-5172275D01*
X2032754Y-5044150D01*
X1816147Y-4956601D01*
X1789744Y-4956197D01*
X1607000Y-5081639D01*
X1353000Y-5081639D01*
X1170256Y-4956197D01*
X1143853Y-4956601D01*
X927246Y-5044150D01*
X731881Y-5172275D01*
X660000Y-5242932D01*
X660000Y-4298061D01*
X15465000Y-4298061D01*
X15465000Y-4501939D01*
X15504774Y-4701898D01*
X15582795Y-4890256D01*
X15696063Y-5059774D01*
X15840226Y-5203937D01*
X16009744Y-5317205D01*
X16198102Y-5395226D01*
X16398061Y-5435000D01*
X16460199Y-5435000D01*
X16940000Y-5914802D01*
X16940001Y-6685197D01*
X16460199Y-7165000D01*
X16398061Y-7165000D01*
X16198102Y-7204774D01*
X16009744Y-7282795D01*
X15840226Y-7396063D01*
X15696063Y-7540226D01*
X15582795Y-7709744D01*
X15504774Y-7898102D01*
X15465000Y-8098061D01*
X15465000Y-8301939D01*
X15504774Y-8501898D01*
X15582795Y-8690256D01*
X15696063Y-8859774D01*
X15840226Y-9003937D01*
X16009744Y-9117205D01*
X16198102Y-9195226D01*
X16398061Y-9235000D01*
X16601939Y-9235000D01*
X16801898Y-9195226D01*
X16990256Y-9117205D01*
X17159774Y-9003937D01*
X17303937Y-8859774D01*
X17417205Y-8690256D01*
X17495226Y-8501898D01*
X17535000Y-8301939D01*
X17535000Y-8239801D01*
X18211003Y-7563799D01*
X18240001Y-7540001D01*
X18334974Y-7424276D01*
X18405546Y-7292247D01*
X18449003Y-7148986D01*
X18460000Y-7037333D01*
X18460000Y-7037324D01*
X18463676Y-7000001D01*
X18460000Y-6962678D01*
X18460000Y-5637322D01*
X18463676Y-5599999D01*
X18460000Y-5562676D01*
X18460000Y-5562667D01*
X18449003Y-5451014D01*
X18405546Y-5307753D01*
X18334974Y-5175724D01*
X18240001Y-5059999D01*
X18211004Y-5036202D01*
X17535000Y-4360199D01*
X17535000Y-4298061D01*
X17495226Y-4098102D01*
X17417205Y-3909744D01*
X17303937Y-3740226D01*
X17159774Y-3596063D01*
X16990256Y-3482795D01*
X16801898Y-3404774D01*
X16601939Y-3365000D01*
X16398061Y-3365000D01*
X16198102Y-3404774D01*
X16009744Y-3482795D01*
X15840226Y-3596063D01*
X15696063Y-3740226D01*
X15582795Y-3909744D01*
X15504774Y-4098102D01*
X15465000Y-4298061D01*
X660000Y-4298061D01*
X660000Y-3757068D01*
X731881Y-3827725D01*
X927246Y-3955850D01*
X1143853Y-4043399D01*
X1170256Y-4043803D01*
X1353000Y-3918361D01*
X1353000Y-2727000D01*
X1607000Y-2727000D01*
X1607000Y-3918361D01*
X1789744Y-4043803D01*
X1816147Y-4043399D01*
X2032754Y-3955850D01*
X2228119Y-3827725D01*
X2394734Y-3663948D01*
X2526196Y-3470813D01*
X2617454Y-3255742D01*
X2665000Y-3027000D01*
X2665000Y-2727000D01*
X8935000Y-2727000D01*
X8935000Y-3027000D01*
X8982546Y-3255742D01*
X9073804Y-3470813D01*
X9205266Y-3663948D01*
X9371881Y-3827725D01*
X9567246Y-3955850D01*
X9783853Y-4043399D01*
X9810256Y-4043803D01*
X9993000Y-3918361D01*
X9993000Y-2727000D01*
X10247000Y-2727000D01*
X10247000Y-3918361D01*
X10429744Y-4043803D01*
X10456147Y-4043399D01*
X10672754Y-3955850D01*
X10868119Y-3827725D01*
X11034734Y-3663948D01*
X11166196Y-3470813D01*
X11257454Y-3255742D01*
X11305000Y-3027000D01*
X11305000Y-2727000D01*
X10247000Y-2727000D01*
X9993000Y-2727000D01*
X8935000Y-2727000D01*
X2665000Y-2727000D01*
X1607000Y-2727000D01*
X1353000Y-2727000D01*
X1333000Y-2727000D01*
X1333000Y-2473000D01*
X1353000Y-2473000D01*
X1353000Y-1281639D01*
X1607000Y-1281639D01*
X1607000Y-2473000D01*
X2665000Y-2473000D01*
X2665000Y-2173000D01*
X8935000Y-2173000D01*
X8935000Y-2473000D01*
X9993000Y-2473000D01*
X9993000Y-1281639D01*
X10247000Y-1281639D01*
X10247000Y-2473000D01*
X11305000Y-2473000D01*
X11305000Y-2173000D01*
X11257454Y-1944258D01*
X11166196Y-1729187D01*
X11034734Y-1536052D01*
X10868119Y-1372275D01*
X10672754Y-1244150D01*
X10456147Y-1156601D01*
X10429744Y-1156197D01*
X10247000Y-1281639D01*
X9993000Y-1281639D01*
X9810256Y-1156197D01*
X9783853Y-1156601D01*
X9567246Y-1244150D01*
X9371881Y-1372275D01*
X9205266Y-1536052D01*
X9073804Y-1729187D01*
X8982546Y-1944258D01*
X8935000Y-2173000D01*
X2665000Y-2173000D01*
X2617454Y-1944258D01*
X2526196Y-1729187D01*
X2394734Y-1536052D01*
X2228119Y-1372275D01*
X2032754Y-1244150D01*
X1816147Y-1156601D01*
X1789744Y-1156197D01*
X1607000Y-1281639D01*
X1353000Y-1281639D01*
X1170256Y-1156197D01*
X1143853Y-1156601D01*
X927246Y-1244150D01*
X731881Y-1372275D01*
X660000Y-1442932D01*
X660000Y-1032279D01*
X669580Y-934576D01*
X688580Y-871644D01*
X719445Y-813595D01*
X760989Y-762657D01*
X811644Y-720752D01*
X869471Y-689485D01*
X932272Y-670044D01*
X1027835Y-660000D01*
X36967721Y-660000D01*
X37065424Y-669580D01*
G37*
G04 #@! TD.AperFunction*
M02*
